<svg width="136" height="115" viewBox="0 0 136 115" fill="none" xmlns="http://www.w3.org/2000/svg">
<path d="M3.88043 33.7043C3.88043 34.9762 3.04891 35.9301 1.94022 35.9301C0.831521 35.9301 0 34.9762 0 33.7043C0 32.4324 0.831521 31.4785 1.94022 31.4785C3.04891 31.4785 3.88043 32.5384 3.88043 33.7043Z" fill="#FFCF2D"/>
<path d="M20.4185 33.7042C20.4185 34.9761 19.587 35.9299 18.4783 35.9299C17.3696 35.9299 16.5381 34.9761 16.5381 33.7042C16.5381 32.4324 17.3696 31.4785 18.4783 31.4785C19.4946 31.4785 20.4185 32.5384 20.4185 33.7042Z" fill="#FFCF2D"/>
<path d="M36.8643 33.7043C36.8643 34.9762 36.0328 35.9301 34.9241 35.9301C33.8154 35.9301 32.9839 34.9762 32.9839 33.7043C32.9839 32.4324 33.8154 31.4785 34.9241 31.4785C36.0328 31.4785 36.8643 32.5384 36.8643 33.7043Z" fill="#FFCF2D"/>
<path d="M53.4024 33.7043C53.4024 34.9762 52.5709 35.9301 51.4622 35.9301C50.3535 35.9301 49.522 34.9762 49.522 33.7043C49.522 32.4324 50.3535 31.4785 51.4622 31.4785C52.5709 31.4785 53.4024 32.5384 53.4024 33.7043Z" fill="#FFCF2D"/>
<path d="M69.94 33.7043C69.94 34.9762 69.1085 35.9301 67.9998 35.9301C66.8911 35.9301 66.0596 34.9762 66.0596 33.7043C66.0596 32.4324 66.8911 31.4785 67.9998 31.4785C69.0161 31.4785 69.94 32.5384 69.94 33.7043Z" fill="#FFCF2D"/>
<path d="M86.4781 33.7043C86.4781 34.9762 85.6466 35.9301 84.5379 35.9301C83.4292 35.9301 82.5977 34.9762 82.5977 33.7043C82.5977 32.4324 83.4292 31.4785 84.5379 31.4785C85.6466 31.4785 86.4781 32.5384 86.4781 33.7043Z" fill="#FFCF2D"/>
<path d="M102.924 33.7043C102.924 34.9762 102.092 35.9301 100.984 35.9301C99.875 35.9301 99.0435 34.9762 99.0435 33.7043C99.0435 32.4324 99.875 31.4785 100.984 31.4785C102.092 31.4785 102.924 32.5384 102.924 33.7043Z" fill="#FFCF2D"/>
<path d="M119.462 33.7043C119.462 34.9762 118.63 35.9301 117.522 35.9301C116.413 35.9301 115.582 34.9762 115.582 33.7043C115.582 32.4324 116.413 31.4785 117.522 31.4785C118.63 31.4785 119.462 32.5384 119.462 33.7043Z" fill="#FFCF2D"/>
<path d="M136 33.7042C136 34.9761 135.169 35.9299 134.06 35.9299C132.951 35.9299 132.12 34.9761 132.12 33.7042C132.12 32.4324 132.951 31.4785 134.06 31.4785C135.076 31.4785 136 32.5384 136 33.7042Z" fill="#FFCF2D"/>
<path d="M3.88043 49.4974C3.88043 50.7693 3.04891 51.7233 1.94022 51.7233C0.831521 51.7233 0 50.7693 0 49.4974C0 48.2254 0.831521 47.2715 1.94022 47.2715C3.04891 47.2715 3.88043 48.2254 3.88043 49.4974Z" fill="#FFCF2D"/>
<path d="M20.4185 49.4973C20.4185 50.7692 19.587 51.7231 18.4783 51.7231C17.3696 51.7231 16.5381 50.7692 16.5381 49.4973C16.5381 48.2254 17.3696 47.2715 18.4783 47.2715C19.4946 47.2715 20.4185 48.2254 20.4185 49.4973Z" fill="#FFCF2D"/>
<path d="M36.8643 49.4974C36.8643 50.7693 36.0328 51.7233 34.9241 51.7233C33.8154 51.7233 32.9839 50.7693 32.9839 49.4974C32.9839 48.2254 33.8154 47.2715 34.9241 47.2715C36.0328 47.2715 36.8643 48.2254 36.8643 49.4974Z" fill="#FFCF2D"/>
<path d="M53.4024 49.4974C53.4024 50.7693 52.5709 51.7233 51.4622 51.7233C50.3535 51.7233 49.522 50.7693 49.522 49.4974C49.522 48.2254 50.3535 47.2715 51.4622 47.2715C52.5709 47.2715 53.4024 48.2254 53.4024 49.4974Z" fill="#FFCF2D"/>
<path d="M69.94 49.4974C69.94 50.7693 69.1085 51.7233 67.9998 51.7233C66.8911 51.7233 66.0596 50.7693 66.0596 49.4974C66.0596 48.2254 66.8911 47.2715 67.9998 47.2715C69.0161 47.2715 69.94 48.2254 69.94 49.4974Z" fill="#FFCF2D"/>
<path d="M86.4781 49.4974C86.4781 50.7693 85.6466 51.7233 84.5379 51.7233C83.4292 51.7233 82.5977 50.7693 82.5977 49.4974C82.5977 48.2254 83.4292 47.2715 84.5379 47.2715C85.6466 47.2715 86.4781 48.2254 86.4781 49.4974Z" fill="#FFCF2D"/>
<path d="M102.924 49.4974C102.924 50.7693 102.092 51.7233 100.984 51.7233C99.875 51.7233 99.0435 50.7693 99.0435 49.4974C99.0435 48.2254 99.875 47.2715 100.984 47.2715C102.092 47.2715 102.924 48.2254 102.924 49.4974Z" fill="#FFCF2D"/>
<path d="M119.462 49.4974C119.462 50.7693 118.63 51.7233 117.522 51.7233C116.413 51.7233 115.582 50.7693 115.582 49.4974C115.582 48.2254 116.413 47.2715 117.522 47.2715C118.63 47.2715 119.462 48.2254 119.462 49.4974Z" fill="#FFCF2D"/>
<path d="M136 49.4973C136 50.7692 135.169 51.7231 134.06 51.7231C132.951 51.7231 132.12 50.7692 132.12 49.4973C132.12 48.2254 132.951 47.2715 134.06 47.2715C135.076 47.2715 136 48.2254 136 49.4973Z" fill="#FFCF2D"/>
<path d="M3.88043 2.22583C3.88043 3.49773 3.04891 4.45166 1.94022 4.45166C0.831521 4.45166 0 3.49773 0 2.22583C0 0.953927 0.831521 0 1.94022 0C3.04891 0 3.88043 0.953927 3.88043 2.22583Z" fill="#FFCF2D"/>
<path d="M20.4185 2.22583C20.4185 3.49773 19.587 4.45166 18.4783 4.45166C17.3696 4.45166 16.5381 3.49773 16.5381 2.22583C16.5381 0.953927 17.3696 0 18.4783 0C19.4946 0 20.4185 0.953927 20.4185 2.22583Z" fill="#FFCF2D"/>
<path d="M36.8643 2.22583C36.8643 3.49773 36.0328 4.45166 34.9241 4.45166C33.8154 4.45166 32.9839 3.49773 32.9839 2.22583C32.9839 0.953927 33.9078 0 34.9241 0C36.0328 0 36.8643 0.953927 36.8643 2.22583Z" fill="#FFCF2D"/>
<path d="M53.4024 2.22583C53.4024 3.49773 52.5709 4.45166 51.4622 4.45166C50.3535 4.45166 49.522 3.49773 49.522 2.22583C49.522 0.953927 50.4459 0 51.4622 0C52.4785 0 53.4024 0.953927 53.4024 2.22583Z" fill="#FFCF2D"/>
<path d="M69.94 2.22583C69.94 3.49773 69.1085 4.45166 67.9998 4.45166C66.8911 4.45166 66.0596 3.49773 66.0596 2.22583C66.0596 0.953927 66.8911 0 67.9998 0C69.0161 0 69.94 0.953927 69.94 2.22583Z" fill="#FFCF2D"/>
<path d="M86.4781 2.22583C86.4781 3.49773 85.6466 4.45166 84.5379 4.45166C83.4292 4.45166 82.5977 3.49773 82.5977 2.22583C82.5977 0.953927 83.4292 0 84.5379 0C85.6466 0 86.4781 0.953927 86.4781 2.22583Z" fill="#FFCF2D"/>
<path d="M102.924 2.22577C102.924 3.49764 102.092 4.45154 100.984 4.45154C99.875 4.45154 99.0435 3.49764 99.0435 2.22577C99.0435 0.953901 99.875 0 100.984 0C102.092 0 102.924 0.953901 102.924 2.22577Z" fill="#FFCF2D"/>
<path d="M119.462 2.22583C119.462 3.49773 118.63 4.45166 117.522 4.45166C116.413 4.45166 115.582 3.49773 115.582 2.22583C115.582 0.953927 116.413 0 117.522 0C118.63 0 119.462 0.953927 119.462 2.22583Z" fill="#FFCF2D"/>
<path d="M136 2.22583C136 3.49773 135.169 4.45166 134.06 4.45166C132.951 4.45166 132.12 3.49773 132.12 2.22583C132.12 0.953927 132.951 0 134.06 0C135.076 0 136 0.953927 136 2.22583Z" fill="#FFCF2D"/>
<path d="M3.88045 18.0189C3.88045 19.2908 3.04892 20.2448 1.94022 20.2448C0.831524 20.2448 0 19.1848 0 18.0189C0 16.7469 0.831524 15.793 1.94022 15.793C3.04892 15.793 3.88045 16.7469 3.88045 18.0189Z" fill="#FFCF2D"/>
<path d="M20.4185 18.0189C20.4185 19.2908 19.587 20.2448 18.4783 20.2448C17.3696 20.2448 16.5381 19.2908 16.5381 18.0189C16.5381 16.7469 17.3696 15.793 18.4783 15.793C19.4946 15.793 20.4185 16.7469 20.4185 18.0189Z" fill="#FFCF2D"/>
<path d="M36.8643 18.0189C36.8643 19.2908 36.0328 20.2448 34.9241 20.2448C33.8154 20.2448 32.9839 19.2908 32.9839 18.0189C32.9839 16.7469 33.8154 15.793 34.9241 15.793C36.0328 15.793 36.8643 16.7469 36.8643 18.0189Z" fill="#FFCF2D"/>
<path d="M53.4024 18.0188C53.4024 19.2907 52.5709 20.2446 51.4622 20.2446C50.3535 20.2446 49.522 19.2907 49.522 18.0188C49.522 16.7469 50.3535 15.793 51.4622 15.793C52.5709 15.793 53.4024 16.7469 53.4024 18.0188Z" fill="#FFCF2D"/>
<path d="M69.94 18.0189C69.94 19.2908 69.1085 20.2448 67.9998 20.2448C66.8911 20.2448 66.0596 19.2908 66.0596 18.0189C66.0596 16.7469 66.8911 15.793 67.9998 15.793C69.0161 15.793 69.94 16.7469 69.94 18.0189Z" fill="#FFCF2D"/>
<path d="M86.4781 18.0189C86.4781 19.2908 85.6466 20.2448 84.5379 20.2448C83.4292 20.2448 82.5977 19.2908 82.5977 18.0189C82.5977 16.7469 83.4292 15.793 84.5379 15.793C85.6466 15.793 86.4781 16.7469 86.4781 18.0189Z" fill="#FFCF2D"/>
<path d="M102.924 18.0189C102.924 19.2908 102.092 20.2448 100.984 20.2448C99.875 20.2448 99.0435 19.2908 99.0435 18.0189C99.0435 16.7469 99.875 15.793 100.984 15.793C102.092 15.793 102.924 16.7469 102.924 18.0189Z" fill="#FFCF2D"/>
<path d="M119.462 18.0189C119.462 19.2908 118.63 20.2448 117.522 20.2448C116.413 20.2448 115.582 19.2908 115.582 18.0189C115.582 16.7469 116.413 15.793 117.522 15.793C118.63 15.793 119.462 16.7469 119.462 18.0189Z" fill="#FFCF2D"/>
<path d="M136 18.0189C136 19.2908 135.169 20.2448 134.06 20.2448C132.951 20.2448 132.12 19.2908 132.12 18.0189C132.12 16.7469 132.951 15.793 134.06 15.793C135.076 15.793 136 16.7469 136 18.0189Z" fill="#FFCF2D"/>
<path d="M3.88043 65.1848C3.88043 66.4566 3.04891 67.4105 1.94022 67.4105C0.831521 67.4105 0 66.4566 0 65.1848C0 63.9129 0.831521 62.959 1.94022 62.959C3.04891 62.959 3.88043 64.0189 3.88043 65.1848Z" fill="#FFCF2D"/>
<path d="M20.4185 65.1847C20.4185 66.4565 19.587 67.4104 18.4783 67.4104C17.3696 67.4104 16.5381 66.4565 16.5381 65.1847C16.5381 63.9129 17.3696 62.959 18.4783 62.959C19.4946 62.959 20.4185 64.0188 20.4185 65.1847Z" fill="#FFCF2D"/>
<path d="M36.8643 65.1848C36.8643 66.4566 36.0328 67.4105 34.9241 67.4105C33.8154 67.4105 32.9839 66.4566 32.9839 65.1848C32.9839 63.9129 33.8154 62.959 34.9241 62.959C36.0328 62.959 36.8643 64.0189 36.8643 65.1848Z" fill="#FFCF2D"/>
<path d="M53.4024 65.1848C53.4024 66.4566 52.5709 67.4105 51.4622 67.4105C50.3535 67.4105 49.522 66.4566 49.522 65.1848C49.522 63.9129 50.3535 62.959 51.4622 62.959C52.5709 62.959 53.4024 64.0189 53.4024 65.1848Z" fill="#FFCF2D"/>
<path d="M69.94 65.1848C69.94 66.4566 69.1085 67.4105 67.9998 67.4105C66.8911 67.4105 66.0596 66.4566 66.0596 65.1848C66.0596 63.9129 66.8911 62.959 67.9998 62.959C69.0161 62.959 69.94 64.0189 69.94 65.1848Z" fill="#FFCF2D"/>
<path d="M86.4781 65.1848C86.4781 66.4566 85.6466 67.4105 84.5379 67.4105C83.4292 67.4105 82.5977 66.4566 82.5977 65.1848C82.5977 63.9129 83.4292 62.959 84.5379 62.959C85.6466 62.959 86.4781 64.0189 86.4781 65.1848Z" fill="#FFCF2D"/>
<path d="M102.924 65.1848C102.924 66.4566 102.092 67.4105 100.984 67.4105C99.875 67.4105 99.0435 66.4566 99.0435 65.1848C99.0435 63.9129 99.875 62.959 100.984 62.959C102.092 62.959 102.924 64.0189 102.924 65.1848Z" fill="#FFCF2D"/>
<path d="M119.462 65.1848C119.462 66.4566 118.63 67.4105 117.522 67.4105C116.413 67.4105 115.582 66.4566 115.582 65.1848C115.582 63.9129 116.413 62.959 117.522 62.959C118.63 62.959 119.462 64.0189 119.462 65.1848Z" fill="#FFCF2D"/>
<path d="M136 65.1847C136 66.4565 135.169 67.4104 134.06 67.4104C132.951 67.4104 132.12 66.4565 132.12 65.1847C132.12 63.9129 132.951 62.959 134.06 62.959C135.076 62.959 136 64.0188 136 65.1847Z" fill="#FFCF2D"/>
<path d="M3.88043 80.9776C3.88043 82.2494 3.04891 83.2032 1.94022 83.2032C0.831521 83.2032 0 82.2494 0 80.9776C0 79.7058 0.831521 78.752 1.94022 78.752C3.04891 78.752 3.88043 79.7058 3.88043 80.9776Z" fill="#FFCF2D"/>
<path d="M20.4185 80.9777C20.4185 82.2495 19.587 83.2034 18.4783 83.2034C17.3696 83.2034 16.5381 82.2495 16.5381 80.9777C16.5381 79.7058 17.3696 78.752 18.4783 78.752C19.4946 78.752 20.4185 79.7058 20.4185 80.9777Z" fill="#FFCF2D"/>
<path d="M36.8643 80.9777C36.8643 82.2495 36.0328 83.2034 34.9241 83.2034C33.8154 83.2034 32.9839 82.2495 32.9839 80.9777C32.9839 79.7058 33.8154 78.752 34.9241 78.752C36.0328 78.752 36.8643 79.7058 36.8643 80.9777Z" fill="#FFCF2D"/>
<path d="M51.4622 83.2034C52.5337 83.2034 53.4024 82.2069 53.4024 80.9777C53.4024 79.7484 52.5337 78.752 51.4622 78.752C50.3906 78.752 49.522 79.7484 49.522 80.9777C49.522 82.2069 50.3906 83.2034 51.4622 83.2034Z" fill="#FFCF2D"/>
<path d="M69.94 80.9777C69.94 82.2495 69.1085 83.2034 67.9998 83.2034C66.8911 83.2034 66.0596 82.2495 66.0596 80.9777C66.0596 79.7058 66.8911 78.752 67.9998 78.752C69.0161 78.752 69.94 79.7058 69.94 80.9777Z" fill="#FFCF2D"/>
<path d="M86.4781 80.9777C86.4781 82.2495 85.6466 83.2034 84.5379 83.2034C83.4292 83.2034 82.5977 82.2495 82.5977 80.9777C82.5977 79.7058 83.4292 78.752 84.5379 78.752C85.6466 78.752 86.4781 79.7058 86.4781 80.9777Z" fill="#FFCF2D"/>
<path d="M102.924 80.9777C102.924 82.2495 102.092 83.2034 100.984 83.2034C99.875 83.2034 99.0435 82.2495 99.0435 80.9777C99.0435 79.7058 99.875 78.752 100.984 78.752C102.092 78.752 102.924 79.7058 102.924 80.9777Z" fill="#FFCF2D"/>
<path d="M117.522 83.2032C118.593 83.2032 119.462 82.2068 119.462 80.9776C119.462 79.7484 118.593 78.752 117.522 78.752C116.45 78.752 115.582 79.7484 115.582 80.9776C115.582 82.2068 116.45 83.2032 117.522 83.2032Z" fill="#FFCF2D"/>
<path d="M136 80.9777C136 82.2495 135.169 83.2034 134.06 83.2034C132.951 83.2034 132.12 82.2495 132.12 80.9777C132.12 79.7058 132.951 78.752 134.06 78.752C135.076 78.752 136 79.7058 136 80.9777Z" fill="#FFCF2D"/>
<path d="M3.88045 96.7689C3.88045 98.0408 3.04892 98.9948 1.94022 98.9948C0.831524 98.9948 0 98.0408 0 96.7689C0 95.4969 0.831524 94.543 1.94022 94.543C3.04892 94.543 3.88045 95.4969 3.88045 96.7689Z" fill="#FFCF2D"/>
<path d="M20.4185 96.7689C20.4185 98.0408 19.587 98.9948 18.4783 98.9948C17.3696 98.9948 16.5381 98.0408 16.5381 96.7689C16.5381 95.4969 17.3696 94.543 18.4783 94.543C19.4946 94.543 20.4185 95.4969 20.4185 96.7689Z" fill="#FFCF2D"/>
<path d="M36.8643 96.7689C36.8643 98.0408 36.0328 98.9948 34.9241 98.9948C33.8154 98.9948 32.9839 98.0408 32.9839 96.7689C32.9839 95.4969 33.8154 94.543 34.9241 94.543C36.0328 94.543 36.8643 95.4969 36.8643 96.7689Z" fill="#FFCF2D"/>
<path d="M53.4024 96.7689C53.4024 98.0408 52.5709 98.9948 51.4622 98.9948C50.3535 98.9948 49.522 98.0408 49.522 96.7689C49.522 95.4969 50.3535 94.543 51.4622 94.543C52.5709 94.543 53.4024 95.4969 53.4024 96.7689Z" fill="#FFCF2D"/>
<path d="M69.94 96.7689C69.94 98.0408 69.1085 98.9948 67.9998 98.9948C66.8911 98.9948 66.0596 98.0408 66.0596 96.7689C66.0596 95.4969 66.8911 94.543 67.9998 94.543C69.0161 94.543 69.94 95.4969 69.94 96.7689Z" fill="#FFCF2D"/>
<path d="M86.4781 96.7689C86.4781 98.0408 85.6466 98.9948 84.5379 98.9948C83.4292 98.9948 82.5977 98.0408 82.5977 96.7689C82.5977 95.4969 83.4292 94.543 84.5379 94.543C85.6466 94.543 86.4781 95.4969 86.4781 96.7689Z" fill="#FFCF2D"/>
<path d="M102.924 96.7689C102.924 98.0408 102.092 98.9948 100.984 98.9948C99.875 98.9948 99.0435 98.0408 99.0435 96.7689C99.0435 95.4969 99.875 94.543 100.984 94.543C102.092 94.543 102.924 95.4969 102.924 96.7689Z" fill="#FFCF2D"/>
<path d="M119.462 96.7689C119.462 98.0408 118.63 98.9948 117.522 98.9948C116.413 98.9948 115.582 98.0408 115.582 96.7689C115.582 95.4969 116.413 94.543 117.522 94.543C118.63 94.543 119.462 95.4969 119.462 96.7689Z" fill="#FFCF2D"/>
<path d="M136 96.7689C136 98.0408 135.169 98.9948 134.06 98.9948C132.951 98.9948 132.12 98.0408 132.12 96.7689C132.12 95.4969 132.951 94.543 134.06 94.543C135.076 94.543 136 95.4969 136 96.7689Z" fill="#FFCF2D"/>
<path d="M3.88043 112.456C3.88043 113.728 3.04891 114.682 1.94022 114.682C0.831521 114.682 0 113.728 0 112.456C0 111.184 0.831521 110.23 1.94022 110.23C3.04891 110.23 3.88043 111.29 3.88043 112.456Z" fill="#FFCF2D"/>
<path d="M20.4185 112.456C20.4185 113.728 19.587 114.682 18.4783 114.682C17.3696 114.682 16.5381 113.728 16.5381 112.456C16.5381 111.184 17.3696 110.23 18.4783 110.23C19.4946 110.23 20.4185 111.29 20.4185 112.456Z" fill="#FFCF2D"/>
<path d="M36.8643 112.456C36.8643 113.728 36.0328 114.682 34.9241 114.682C33.8154 114.682 32.9839 113.728 32.9839 112.456C32.9839 111.184 33.8154 110.23 34.9241 110.23C36.0328 110.23 36.8643 111.29 36.8643 112.456Z" fill="#FFCF2D"/>
<path d="M53.4024 112.456C53.4024 113.728 52.5709 114.682 51.4622 114.682C50.3535 114.682 49.522 113.728 49.522 112.456C49.522 111.184 50.3535 110.23 51.4622 110.23C52.5709 110.23 53.4024 111.29 53.4024 112.456Z" fill="#FFCF2D"/>
<path d="M69.94 112.456C69.94 113.728 69.1085 114.682 67.9998 114.682C66.8911 114.682 66.0596 113.728 66.0596 112.456C66.0596 111.184 66.8911 110.23 67.9998 110.23C69.0161 110.23 69.94 111.29 69.94 112.456Z" fill="#FFCF2D"/>
<path d="M86.4781 112.456C86.4781 113.728 85.6465 114.682 84.5379 114.682C83.4292 114.682 82.5977 113.728 82.5977 112.456C82.5977 111.184 83.4292 110.23 84.5379 110.23C85.6465 110.23 86.4781 111.29 86.4781 112.456Z" fill="#FFCF2D"/>
<path d="M102.924 112.456C102.924 113.728 102.092 114.682 100.984 114.682C99.875 114.682 99.0435 113.728 99.0435 112.456C99.0435 111.184 99.875 110.23 100.984 110.23C102.092 110.23 102.924 111.29 102.924 112.456Z" fill="#FFCF2D"/>
<path d="M119.462 112.456C119.462 113.728 118.63 114.682 117.522 114.682C116.413 114.682 115.582 113.728 115.582 112.456C115.582 111.184 116.413 110.23 117.522 110.23C118.63 110.23 119.462 111.29 119.462 112.456Z" fill="#FFCF2D"/>
<path d="M136 112.456C136 113.728 135.169 114.682 134.06 114.682C132.951 114.682 132.12 113.728 132.12 112.456C132.12 111.184 132.951 110.23 134.06 110.23C135.076 110.23 136 111.29 136 112.456Z" fill="#FFCF2D"/>
</svg>
