<svg width="2062" height="1225" viewBox="0 0 2062 1225" fill="none" xmlns="http://www.w3.org/2000/svg">
<g opacity="0.2" clip-path="url(#clip0_2520_457)">
<path d="M142.097 941C63.5443 941 0 1004.54 0 1083.1C0 1161.46 63.5443 1225.19 142.097 1225.19C220.456 1225.19 284.195 1161.65 284.195 1083.1C284 1004.54 220.456 941 142.097 941ZM142.097 1216.03C68.6122 1216.03 9.16129 1156.58 9.16129 1083.1C9.16129 1009.61 68.6122 950.161 142.097 950.161C215.583 950.161 275.034 1009.61 275.034 1083.1C275.034 1156.39 215.388 1216.03 142.097 1216.03Z" fill="white"/>
<path d="M142.099 971.603C80.6986 971.603 30.7988 1021.5 30.7988 1082.9C30.7988 1144.3 80.6986 1194.2 142.099 1194.2C203.499 1194.2 253.399 1144.5 253.399 1083.1C253.399 1021.5 203.499 971.603 142.099 971.603ZM142.099 1177.24C90.0548 1177.24 47.757 1134.95 47.757 1082.9C47.757 1030.86 90.0548 988.561 142.099 988.561C194.143 988.561 236.441 1030.86 236.441 1082.9C236.441 1134.95 194.143 1177.24 142.099 1177.24Z" fill="white"/>
<path d="M142.098 1020.53C107.597 1020.53 79.5283 1048.6 79.5283 1083.1C79.5283 1117.6 107.402 1145.67 142.098 1145.67C176.599 1145.67 204.668 1117.6 204.668 1083.1C204.473 1048.6 176.599 1020.53 142.098 1020.53ZM142.098 1116.62C123.58 1116.62 108.572 1101.61 108.572 1083.1C108.572 1064.58 123.58 1049.57 142.098 1049.57C160.616 1049.57 175.624 1064.58 175.624 1083.1C175.624 1101.61 160.616 1116.62 142.098 1116.62Z" fill="white"/>
</g>
<g opacity="0.8">
<path d="M1880.34 834.264C1880.34 835.784 1879.19 836.923 1877.67 836.923C1876.14 836.923 1875 835.784 1875 834.264C1875 832.745 1876.14 831.605 1877.67 831.605C1879.19 831.605 1880.34 832.872 1880.34 834.264Z" fill="white"/>
<path d="M1903.08 834.264C1903.08 835.784 1901.93 836.923 1900.41 836.923C1898.88 836.923 1897.74 835.784 1897.74 834.264C1897.74 832.745 1898.88 831.605 1900.41 831.605C1901.81 831.605 1903.08 832.872 1903.08 834.264Z" fill="white"/>
<path d="M1925.69 834.264C1925.69 835.784 1924.54 836.923 1923.02 836.923C1921.5 836.923 1920.35 835.784 1920.35 834.264C1920.35 832.745 1921.5 831.605 1923.02 831.605C1924.54 831.605 1925.69 832.872 1925.69 834.264Z" fill="white"/>
<path d="M1948.43 834.264C1948.43 835.784 1947.28 836.923 1945.76 836.923C1944.24 836.923 1943.09 835.784 1943.09 834.264C1943.09 832.745 1944.24 831.605 1945.76 831.605C1947.28 831.605 1948.43 832.872 1948.43 834.264Z" fill="white"/>
<path d="M1971.17 834.264C1971.17 835.784 1970.02 836.923 1968.5 836.923C1966.98 836.923 1965.83 835.784 1965.83 834.264C1965.83 832.745 1966.98 831.605 1968.5 831.605C1969.9 831.605 1971.17 832.872 1971.17 834.264Z" fill="white"/>
<path d="M1993.91 834.264C1993.91 835.784 1992.76 836.923 1991.24 836.923C1989.72 836.923 1988.57 835.784 1988.57 834.264C1988.57 832.745 1989.72 831.605 1991.24 831.605C1992.76 831.605 1993.91 832.872 1993.91 834.264Z" fill="white"/>
<path d="M2016.52 834.264C2016.52 835.784 2015.38 836.923 2013.85 836.923C2012.33 836.923 2011.18 835.784 2011.18 834.264C2011.18 832.745 2012.33 831.605 2013.85 831.605C2015.38 831.605 2016.52 832.872 2016.52 834.264Z" fill="white"/>
<path d="M2039.26 834.264C2039.26 835.784 2038.12 836.923 2036.59 836.923C2035.07 836.923 2033.92 835.784 2033.92 834.264C2033.92 832.745 2035.07 831.605 2036.59 831.605C2038.12 831.605 2039.26 832.872 2039.26 834.264Z" fill="white"/>
<path d="M2062 834.264C2062 835.784 2060.86 836.923 2059.33 836.923C2057.81 836.923 2056.66 835.784 2056.66 834.264C2056.66 832.745 2057.81 831.605 2059.33 831.605C2060.73 831.605 2062 832.872 2062 834.264Z" fill="white"/>
<path d="M1880.34 853.131C1880.34 854.65 1879.19 855.79 1877.67 855.79C1876.14 855.79 1875 854.65 1875 853.131C1875 851.611 1876.14 850.472 1877.67 850.472C1879.19 850.472 1880.34 851.611 1880.34 853.131Z" fill="white"/>
<path d="M1903.08 853.131C1903.08 854.65 1901.93 855.79 1900.41 855.79C1898.88 855.79 1897.74 854.65 1897.74 853.131C1897.74 851.611 1898.88 850.472 1900.41 850.472C1901.81 850.472 1903.08 851.611 1903.08 853.131Z" fill="white"/>
<path d="M1925.69 853.131C1925.69 854.65 1924.54 855.79 1923.02 855.79C1921.5 855.79 1920.35 854.65 1920.35 853.131C1920.35 851.611 1921.5 850.472 1923.02 850.472C1924.54 850.472 1925.69 851.611 1925.69 853.131Z" fill="white"/>
<path d="M1948.43 853.131C1948.43 854.65 1947.28 855.79 1945.76 855.79C1944.24 855.79 1943.09 854.65 1943.09 853.131C1943.09 851.611 1944.24 850.472 1945.76 850.472C1947.28 850.472 1948.43 851.611 1948.43 853.131Z" fill="white"/>
<path d="M1971.17 853.131C1971.17 854.65 1970.02 855.79 1968.5 855.79C1966.98 855.79 1965.83 854.65 1965.83 853.131C1965.83 851.611 1966.98 850.472 1968.5 850.472C1969.9 850.472 1971.17 851.611 1971.17 853.131Z" fill="white"/>
<path d="M1993.91 853.131C1993.91 854.65 1992.76 855.79 1991.24 855.79C1989.72 855.79 1988.57 854.65 1988.57 853.131C1988.57 851.611 1989.72 850.472 1991.24 850.472C1992.76 850.472 1993.91 851.611 1993.91 853.131Z" fill="white"/>
<path d="M2016.52 853.131C2016.52 854.65 2015.38 855.79 2013.85 855.79C2012.33 855.79 2011.18 854.65 2011.18 853.131C2011.18 851.611 2012.33 850.472 2013.85 850.472C2015.38 850.472 2016.52 851.611 2016.52 853.131Z" fill="white"/>
<path d="M2039.26 853.131C2039.26 854.65 2038.12 855.79 2036.59 855.79C2035.07 855.79 2033.92 854.65 2033.92 853.131C2033.92 851.611 2035.07 850.472 2036.59 850.472C2038.12 850.472 2039.26 851.611 2039.26 853.131Z" fill="white"/>
<path d="M2062 853.131C2062 854.65 2060.86 855.79 2059.33 855.79C2057.81 855.79 2056.66 854.65 2056.66 853.131C2056.66 851.611 2057.81 850.472 2059.33 850.472C2060.73 850.472 2062 851.611 2062 853.131Z" fill="white"/>
<path d="M1880.34 796.659C1880.34 798.178 1879.19 799.318 1877.67 799.318C1876.14 799.318 1875 798.178 1875 796.659C1875 795.14 1876.14 794 1877.67 794C1879.19 794 1880.34 795.14 1880.34 796.659Z" fill="white"/>
<path d="M1903.08 796.659C1903.08 798.178 1901.93 799.318 1900.41 799.318C1898.88 799.318 1897.74 798.178 1897.74 796.659C1897.74 795.14 1898.88 794 1900.41 794C1901.81 794 1903.08 795.14 1903.08 796.659Z" fill="white"/>
<path d="M1925.69 796.659C1925.69 798.178 1924.54 799.318 1923.02 799.318C1921.5 799.318 1920.35 798.178 1920.35 796.659C1920.35 795.14 1921.62 794 1923.02 794C1924.54 794 1925.69 795.14 1925.69 796.659Z" fill="white"/>
<path d="M1948.43 796.659C1948.43 798.178 1947.28 799.318 1945.76 799.318C1944.24 799.318 1943.09 798.178 1943.09 796.659C1943.09 795.14 1944.36 794 1945.76 794C1947.16 794 1948.43 795.14 1948.43 796.659Z" fill="white"/>
<path d="M1971.17 796.659C1971.17 798.178 1970.02 799.318 1968.5 799.318C1966.98 799.318 1965.83 798.178 1965.83 796.659C1965.83 795.14 1966.98 794 1968.5 794C1969.9 794 1971.17 795.14 1971.17 796.659Z" fill="white"/>
<path d="M1993.91 796.659C1993.91 798.178 1992.76 799.318 1991.24 799.318C1989.72 799.318 1988.57 798.178 1988.57 796.659C1988.57 795.14 1989.72 794 1991.24 794C1992.76 794 1993.91 795.14 1993.91 796.659Z" fill="white"/>
<path d="M2016.52 796.659C2016.52 798.178 2015.38 799.318 2013.85 799.318C2012.33 799.318 2011.18 798.178 2011.18 796.659C2011.18 795.14 2012.33 794 2013.85 794C2015.38 794 2016.52 795.14 2016.52 796.659Z" fill="white"/>
<path d="M2039.26 796.659C2039.26 798.178 2038.12 799.318 2036.59 799.318C2035.07 799.318 2033.92 798.178 2033.92 796.659C2033.92 795.14 2035.07 794 2036.59 794C2038.12 794 2039.26 795.14 2039.26 796.659Z" fill="white"/>
<path d="M2062 796.659C2062 798.178 2060.86 799.318 2059.33 799.318C2057.81 799.318 2056.66 798.178 2056.66 796.659C2056.66 795.14 2057.81 794 2059.33 794C2060.73 794 2062 795.14 2062 796.659Z" fill="white"/>
<path d="M1880.34 815.525C1880.34 817.045 1879.19 818.184 1877.67 818.184C1876.14 818.184 1875 816.918 1875 815.525C1875 814.006 1876.14 812.866 1877.67 812.866C1879.19 812.866 1880.34 814.006 1880.34 815.525Z" fill="white"/>
<path d="M1903.08 815.525C1903.08 817.045 1901.93 818.184 1900.41 818.184C1898.88 818.184 1897.74 817.045 1897.74 815.525C1897.74 814.006 1898.88 812.866 1900.41 812.866C1901.81 812.866 1903.08 814.006 1903.08 815.525Z" fill="white"/>
<path d="M1925.69 815.525C1925.69 817.045 1924.54 818.184 1923.02 818.184C1921.5 818.184 1920.35 817.045 1920.35 815.525C1920.35 814.006 1921.5 812.866 1923.02 812.866C1924.54 812.866 1925.69 814.006 1925.69 815.525Z" fill="white"/>
<path d="M1948.43 815.525C1948.43 817.045 1947.28 818.184 1945.76 818.184C1944.24 818.184 1943.09 817.045 1943.09 815.525C1943.09 814.006 1944.24 812.866 1945.76 812.866C1947.28 812.866 1948.43 814.006 1948.43 815.525Z" fill="white"/>
<path d="M1971.17 815.525C1971.17 817.045 1970.02 818.184 1968.5 818.184C1966.98 818.184 1965.83 817.045 1965.83 815.525C1965.83 814.006 1966.98 812.866 1968.5 812.866C1969.9 812.866 1971.17 814.006 1971.17 815.525Z" fill="white"/>
<path d="M1993.91 815.525C1993.91 817.045 1992.76 818.184 1991.24 818.184C1989.72 818.184 1988.57 817.045 1988.57 815.525C1988.57 814.006 1989.72 812.866 1991.24 812.866C1992.76 812.866 1993.91 814.006 1993.91 815.525Z" fill="white"/>
<path d="M2016.52 815.525C2016.52 817.045 2015.38 818.184 2013.85 818.184C2012.33 818.184 2011.18 817.045 2011.18 815.525C2011.18 814.006 2012.33 812.866 2013.85 812.866C2015.38 812.866 2016.52 814.006 2016.52 815.525Z" fill="white"/>
<path d="M2039.26 815.525C2039.26 817.045 2038.12 818.184 2036.59 818.184C2035.07 818.184 2033.92 817.045 2033.92 815.525C2033.92 814.006 2035.07 812.866 2036.59 812.866C2038.12 812.866 2039.26 814.006 2039.26 815.525Z" fill="white"/>
<path d="M2062 815.525C2062 817.045 2060.86 818.184 2059.33 818.184C2057.81 818.184 2056.66 817.045 2056.66 815.525C2056.66 814.006 2057.81 812.866 2059.33 812.866C2060.73 812.866 2062 814.006 2062 815.525Z" fill="white"/>
<path d="M1880.34 871.87C1880.34 873.389 1879.19 874.529 1877.67 874.529C1876.14 874.529 1875 873.389 1875 871.87C1875 870.35 1876.14 869.211 1877.67 869.211C1879.19 869.211 1880.34 870.477 1880.34 871.87Z" fill="white"/>
<path d="M1903.08 871.87C1903.08 873.389 1901.93 874.529 1900.41 874.529C1898.88 874.529 1897.74 873.389 1897.74 871.87C1897.74 870.35 1898.88 869.211 1900.41 869.211C1901.81 869.211 1903.08 870.477 1903.08 871.87Z" fill="white"/>
<path d="M1925.69 871.87C1925.69 873.389 1924.54 874.529 1923.02 874.529C1921.5 874.529 1920.35 873.389 1920.35 871.87C1920.35 870.35 1921.5 869.211 1923.02 869.211C1924.54 869.211 1925.69 870.477 1925.69 871.87Z" fill="white"/>
<path d="M1948.43 871.87C1948.43 873.389 1947.28 874.529 1945.76 874.529C1944.24 874.529 1943.09 873.389 1943.09 871.87C1943.09 870.35 1944.24 869.211 1945.76 869.211C1947.28 869.211 1948.43 870.477 1948.43 871.87Z" fill="white"/>
<path d="M1971.17 871.87C1971.17 873.389 1970.02 874.529 1968.5 874.529C1966.98 874.529 1965.83 873.389 1965.83 871.87C1965.83 870.35 1966.98 869.211 1968.5 869.211C1969.9 869.211 1971.17 870.477 1971.17 871.87Z" fill="white"/>
<path d="M1993.91 871.87C1993.91 873.389 1992.76 874.529 1991.24 874.529C1989.72 874.529 1988.57 873.389 1988.57 871.87C1988.57 870.35 1989.72 869.211 1991.24 869.211C1992.76 869.211 1993.91 870.477 1993.91 871.87Z" fill="white"/>
<path d="M2016.52 871.87C2016.52 873.389 2015.38 874.529 2013.85 874.529C2012.33 874.529 2011.18 873.389 2011.18 871.87C2011.18 870.35 2012.33 869.211 2013.85 869.211C2015.38 869.211 2016.52 870.477 2016.52 871.87Z" fill="white"/>
<path d="M2039.26 871.87C2039.26 873.389 2038.12 874.529 2036.59 874.529C2035.07 874.529 2033.92 873.389 2033.92 871.87C2033.92 870.35 2035.07 869.211 2036.59 869.211C2038.12 869.211 2039.26 870.477 2039.26 871.87Z" fill="white"/>
<path d="M2062 871.87C2062 873.389 2060.86 874.529 2059.33 874.529C2057.81 874.529 2056.66 873.389 2056.66 871.87C2056.66 870.35 2057.81 869.211 2059.33 869.211C2060.73 869.211 2062 870.477 2062 871.87Z" fill="white"/>
<path d="M1880.34 890.736C1880.34 892.256 1879.19 893.395 1877.67 893.395C1876.14 893.395 1875 892.256 1875 890.736C1875 889.217 1876.14 888.077 1877.67 888.077C1879.19 888.077 1880.34 889.217 1880.34 890.736Z" fill="white"/>
<path d="M1903.08 890.736C1903.08 892.256 1901.93 893.395 1900.41 893.395C1898.88 893.395 1897.74 892.256 1897.74 890.736C1897.74 889.217 1898.88 888.077 1900.41 888.077C1901.81 888.077 1903.08 889.217 1903.08 890.736Z" fill="white"/>
<path d="M1925.69 890.736C1925.69 892.256 1924.54 893.395 1923.02 893.395C1921.5 893.395 1920.35 892.256 1920.35 890.736C1920.35 889.217 1921.5 888.077 1923.02 888.077C1924.54 888.077 1925.69 889.217 1925.69 890.736Z" fill="white"/>
<path d="M1945.76 893.395C1947.23 893.395 1948.43 892.205 1948.43 890.736C1948.43 889.268 1947.23 888.077 1945.76 888.077C1944.29 888.077 1943.09 889.268 1943.09 890.736C1943.09 892.205 1944.29 893.395 1945.76 893.395Z" fill="white"/>
<path d="M1971.17 890.736C1971.17 892.256 1970.02 893.395 1968.5 893.395C1966.98 893.395 1965.83 892.256 1965.83 890.736C1965.83 889.217 1966.98 888.077 1968.5 888.077C1969.9 888.077 1971.17 889.217 1971.17 890.736Z" fill="white"/>
<path d="M1993.91 890.736C1993.91 892.256 1992.76 893.395 1991.24 893.395C1989.72 893.395 1988.57 892.256 1988.57 890.736C1988.57 889.217 1989.72 888.077 1991.24 888.077C1992.76 888.077 1993.91 889.217 1993.91 890.736Z" fill="white"/>
<path d="M2016.52 890.736C2016.52 892.256 2015.38 893.395 2013.85 893.395C2012.33 893.395 2011.18 892.256 2011.18 890.736C2011.18 889.217 2012.33 888.077 2013.85 888.077C2015.38 888.077 2016.52 889.217 2016.52 890.736Z" fill="white"/>
<path d="M2036.59 893.395C2038.07 893.395 2039.26 892.205 2039.26 890.736C2039.26 889.268 2038.07 888.077 2036.59 888.077C2035.12 888.077 2033.92 889.268 2033.92 890.736C2033.92 892.205 2035.12 893.395 2036.59 893.395Z" fill="white"/>
<path d="M2062 890.736C2062 892.256 2060.86 893.395 2059.33 893.395C2057.81 893.395 2056.66 892.256 2056.66 890.736C2056.66 889.217 2057.81 888.077 2059.33 888.077C2060.73 888.077 2062 889.217 2062 890.736Z" fill="white"/>
<path d="M1880.34 909.601C1880.34 911.121 1879.19 912.26 1877.67 912.26C1876.14 912.26 1875 911.121 1875 909.601C1875 908.082 1876.14 906.942 1877.67 906.942C1879.19 906.942 1880.34 908.082 1880.34 909.601Z" fill="white"/>
<path d="M1903.08 909.601C1903.08 911.121 1901.93 912.26 1900.41 912.26C1898.88 912.26 1897.74 911.121 1897.74 909.601C1897.74 908.082 1898.88 906.942 1900.41 906.942C1901.81 906.942 1903.08 908.082 1903.08 909.601Z" fill="white"/>
<path d="M1925.69 909.601C1925.69 911.121 1924.54 912.26 1923.02 912.26C1921.5 912.26 1920.35 911.121 1920.35 909.601C1920.35 908.082 1921.5 906.942 1923.02 906.942C1924.54 906.942 1925.69 908.082 1925.69 909.601Z" fill="white"/>
<path d="M1948.43 909.601C1948.43 911.121 1947.28 912.26 1945.76 912.26C1944.24 912.26 1943.09 911.121 1943.09 909.601C1943.09 908.082 1944.24 906.942 1945.76 906.942C1947.28 906.942 1948.43 908.082 1948.43 909.601Z" fill="white"/>
<path d="M1971.17 909.601C1971.17 911.121 1970.02 912.26 1968.5 912.26C1966.98 912.26 1965.83 911.121 1965.83 909.601C1965.83 908.082 1966.98 906.942 1968.5 906.942C1969.9 906.942 1971.17 908.082 1971.17 909.601Z" fill="white"/>
<path d="M1993.91 909.601C1993.91 911.121 1992.76 912.26 1991.24 912.26C1989.72 912.26 1988.57 911.121 1988.57 909.601C1988.57 908.082 1989.72 906.942 1991.24 906.942C1992.76 906.942 1993.91 908.082 1993.91 909.601Z" fill="white"/>
<path d="M2016.52 909.601C2016.52 911.121 2015.38 912.26 2013.85 912.26C2012.33 912.26 2011.18 911.121 2011.18 909.601C2011.18 908.082 2012.33 906.942 2013.85 906.942C2015.38 906.942 2016.52 908.082 2016.52 909.601Z" fill="white"/>
<path d="M2039.26 909.601C2039.26 911.121 2038.12 912.26 2036.59 912.26C2035.07 912.26 2033.92 911.121 2033.92 909.601C2033.92 908.082 2035.07 906.942 2036.59 906.942C2038.12 906.942 2039.26 908.082 2039.26 909.601Z" fill="white"/>
<path d="M2062 909.601C2062 911.121 2060.86 912.26 2059.33 912.26C2057.81 912.26 2056.66 911.121 2056.66 909.601C2056.66 908.082 2057.81 906.942 2059.33 906.942C2060.73 906.942 2062 908.082 2062 909.601Z" fill="white"/>
<path d="M1880.34 928.341C1880.34 929.86 1879.19 931 1877.67 931C1876.14 931 1875 929.86 1875 928.341C1875 926.821 1876.14 925.682 1877.67 925.682C1879.19 925.682 1880.34 926.948 1880.34 928.341Z" fill="white"/>
<path d="M1903.08 928.341C1903.08 929.86 1901.93 931 1900.41 931C1898.88 931 1897.74 929.86 1897.74 928.341C1897.74 926.821 1898.88 925.682 1900.41 925.682C1901.81 925.682 1903.08 926.948 1903.08 928.341Z" fill="white"/>
<path d="M1925.69 928.341C1925.69 929.86 1924.54 931 1923.02 931C1921.5 931 1920.35 929.86 1920.35 928.341C1920.35 926.821 1921.5 925.682 1923.02 925.682C1924.54 925.682 1925.69 926.948 1925.69 928.341Z" fill="white"/>
<path d="M1948.43 928.341C1948.43 929.86 1947.28 931 1945.76 931C1944.24 931 1943.09 929.86 1943.09 928.341C1943.09 926.821 1944.24 925.682 1945.76 925.682C1947.28 925.682 1948.43 926.948 1948.43 928.341Z" fill="white"/>
<path d="M1971.17 928.341C1971.17 929.86 1970.02 931 1968.5 931C1966.98 931 1965.83 929.86 1965.83 928.341C1965.83 926.821 1966.98 925.682 1968.5 925.682C1969.9 925.682 1971.17 926.948 1971.17 928.341Z" fill="white"/>
<path d="M1993.91 928.341C1993.91 929.86 1992.76 931 1991.24 931C1989.72 931 1988.57 929.86 1988.57 928.341C1988.57 926.821 1989.72 925.682 1991.24 925.682C1992.76 925.682 1993.91 926.948 1993.91 928.341Z" fill="white"/>
<path d="M2016.52 928.341C2016.52 929.86 2015.38 931 2013.85 931C2012.33 931 2011.18 929.86 2011.18 928.341C2011.18 926.821 2012.33 925.682 2013.85 925.682C2015.38 925.682 2016.52 926.948 2016.52 928.341Z" fill="white"/>
<path d="M2039.26 928.341C2039.26 929.86 2038.12 931 2036.59 931C2035.07 931 2033.92 929.86 2033.92 928.341C2033.92 926.821 2035.07 925.682 2036.59 925.682C2038.12 925.682 2039.26 926.948 2039.26 928.341Z" fill="white"/>
<path d="M2062 928.341C2062 929.86 2060.86 931 2059.33 931C2057.81 931 2056.66 929.86 2056.66 928.341C2056.66 926.821 2057.81 925.682 2059.33 925.682C2060.73 925.682 2062 926.948 2062 928.341Z" fill="white"/>
</g>
<g opacity="0.3">
<path d="M1873.81 120.221L1883.47 129.88L1857.78 155.563L1832.1 129.88L1841.68 120.294L1857.71 136.319L1873.81 120.221Z" fill="white"/>
<path d="M1873.81 85.5386L1883.39 95.1241L1857.71 120.807L1832.1 95.1973L1841.76 85.5386L1857.78 101.563L1873.81 85.5386Z" fill="white"/>
<path d="M1873.73 50.7816L1883.39 60.4404L1857.78 86.0506L1832.1 60.3672L1841.68 50.7816L1857.71 66.8063L1873.73 50.7816Z" fill="white"/>
<path d="M1873.81 16.0239L1883.47 25.6826L1857.78 51.366L1832.1 25.6826L1841.76 16.0239L1857.78 32.0486L1873.81 16.0239Z" fill="white"/>
</g>
<path opacity="0.3" d="M906 853.553C892.071 867.482 869.377 867.482 855.447 853.553C841.518 839.623 841.518 816.929 855.447 803L906 853.553Z" fill="white"/>
<g opacity="0.3">
<path d="M960.486 574.89C971.205 574.89 979.937 566.165 979.937 555.453C979.937 544.742 971.205 536.017 960.486 536.017L960.486 574.89Z" fill="white"/>
<path d="M930.141 574.89C940.861 574.89 949.592 566.165 949.592 555.453C949.592 544.742 940.861 536.017 930.141 536.017L930.141 574.89Z" fill="white"/>
<path d="M899.797 574.89C910.516 574.89 919.248 566.165 919.248 555.453C919.248 544.742 910.516 536.017 899.797 536.017L899.797 574.89Z" fill="white"/>
</g>
<g opacity="0.3">
<path d="M258.301 189.921L258.301 178L290 178L290 209.699L278.169 209.699L278.169 189.921L258.301 189.921Z" fill="white"/>
<path d="M236.899 211.325L236.899 199.494L268.598 199.494L268.598 231.103L256.677 231.103L256.677 211.325L236.899 211.325Z" fill="white"/>
<path d="M215.495 232.819L215.495 220.898L247.104 220.898L247.104 252.597L235.273 252.597L235.273 232.819L215.495 232.819Z" fill="white"/>
<path d="M194.001 254.222L194.001 242.301L225.7 242.301L225.7 274L213.779 274L213.779 254.222L194.001 254.222Z" fill="white"/>
</g>
<defs>
<clipPath id="clip0_2520_457">
<rect width="284" height="284" fill="white" transform="translate(0 941)"/>
</clipPath>
</defs>
</svg>
