<svg width="1734" height="597" viewBox="0 0 1734 597" fill="none" xmlns="http://www.w3.org/2000/svg">
<g opacity="0.6">
<path d="M1702.3 512.921L1702.3 501L1734 501L1734 532.699L1722.17 532.699L1722.17 512.921L1702.3 512.921Z" fill="white"/>
<path d="M1680.9 534.326L1680.9 522.495L1712.6 522.495L1712.6 554.104L1700.68 554.104L1700.68 534.326L1680.9 534.326Z" fill="white"/>
<path d="M1659.49 555.818L1659.49 543.897L1691.1 543.897L1691.1 575.596L1679.27 575.596L1679.27 555.818L1659.49 555.818Z" fill="white"/>
<path d="M1638 577.222L1638 565.301L1669.7 565.301L1669.7 597L1657.78 597L1657.78 577.222L1638 577.222Z" fill="white"/>
</g>
<path d="M1052.08 30.8602C1052.08 32.0247 1051.21 32.8981 1050.04 32.8981C1048.87 32.8981 1048 32.0247 1048 30.8602C1048 29.6956 1048.87 28.8223 1050.04 28.8223C1051.21 28.8223 1052.08 29.7927 1052.08 30.8602Z" fill="white"/>
<path d="M1069.47 30.8602C1069.47 32.0247 1068.6 32.8981 1067.43 32.8981C1066.26 32.8981 1065.39 32.0247 1065.39 30.8602C1065.39 29.6956 1066.26 28.8223 1067.43 28.8223C1068.5 28.8223 1069.47 29.7927 1069.47 30.8602Z" fill="white"/>
<path d="M1086.76 30.8602C1086.76 32.0247 1085.89 32.8981 1084.72 32.8981C1083.56 32.8981 1082.68 32.0247 1082.68 30.8602C1082.68 29.6956 1083.56 28.8223 1084.72 28.8223C1085.89 28.8223 1086.76 29.7927 1086.76 30.8602Z" fill="white"/>
<path d="M1104.15 30.8602C1104.15 32.0247 1103.28 32.8981 1102.11 32.8981C1100.94 32.8981 1100.07 32.0247 1100.07 30.8602C1100.07 29.6956 1100.94 28.8223 1102.11 28.8223C1103.28 28.8223 1104.15 29.7927 1104.15 30.8602Z" fill="white"/>
<path d="M1121.54 30.8602C1121.54 32.0247 1120.67 32.8981 1119.5 32.8981C1118.33 32.8981 1117.46 32.0247 1117.46 30.8602C1117.46 29.6956 1118.33 28.8223 1119.5 28.8223C1120.57 28.8223 1121.54 29.7927 1121.54 30.8602Z" fill="white"/>
<path d="M1138.93 30.8602C1138.93 32.0247 1138.06 32.8981 1136.89 32.8981C1135.72 32.8981 1134.85 32.0247 1134.85 30.8602C1134.85 29.6956 1135.72 28.8223 1136.89 28.8223C1138.06 28.8223 1138.93 29.7927 1138.93 30.8602Z" fill="white"/>
<path d="M1156.22 30.8602C1156.22 32.0247 1155.35 32.8981 1154.18 32.8981C1153.02 32.8981 1152.14 32.0247 1152.14 30.8602C1152.14 29.6956 1153.02 28.8223 1154.18 28.8223C1155.35 28.8223 1156.22 29.7927 1156.22 30.8602Z" fill="white"/>
<path d="M1173.61 30.8602C1173.61 32.0247 1172.74 32.8981 1171.57 32.8981C1170.4 32.8981 1169.53 32.0247 1169.53 30.8602C1169.53 29.6956 1170.4 28.8223 1171.57 28.8223C1172.74 28.8223 1173.61 29.7927 1173.61 30.8602Z" fill="white"/>
<path d="M1191 30.8602C1191 32.0247 1190.13 32.8981 1188.96 32.8981C1187.79 32.8981 1186.92 32.0247 1186.92 30.8602C1186.92 29.6956 1187.79 28.8223 1188.96 28.8223C1190.03 28.8223 1191 29.7927 1191 30.8602Z" fill="white"/>
<path d="M1052.08 45.3191C1052.08 46.4837 1051.21 47.357 1050.04 47.357C1048.87 47.357 1048 46.4837 1048 45.3191C1048 44.1546 1048.87 43.2812 1050.04 43.2812C1051.21 43.2812 1052.08 44.1546 1052.08 45.3191Z" fill="white"/>
<path d="M1069.47 45.3191C1069.47 46.4837 1068.6 47.357 1067.43 47.357C1066.26 47.357 1065.39 46.4837 1065.39 45.3191C1065.39 44.1546 1066.26 43.2812 1067.43 43.2812C1068.5 43.2812 1069.47 44.1546 1069.47 45.3191Z" fill="white"/>
<path d="M1086.76 45.3191C1086.76 46.4837 1085.89 47.357 1084.72 47.357C1083.56 47.357 1082.68 46.4837 1082.68 45.3191C1082.68 44.1546 1083.56 43.2812 1084.72 43.2812C1085.89 43.2812 1086.76 44.1546 1086.76 45.3191Z" fill="white"/>
<path d="M1104.15 45.3191C1104.15 46.4837 1103.28 47.357 1102.11 47.357C1100.94 47.357 1100.07 46.4837 1100.07 45.3191C1100.07 44.1546 1100.94 43.2812 1102.11 43.2812C1103.28 43.2812 1104.15 44.1546 1104.15 45.3191Z" fill="white"/>
<path d="M1121.54 45.3191C1121.54 46.4837 1120.67 47.357 1119.5 47.357C1118.33 47.357 1117.46 46.4837 1117.46 45.3191C1117.46 44.1546 1118.33 43.2812 1119.5 43.2812C1120.57 43.2812 1121.54 44.1546 1121.54 45.3191Z" fill="white"/>
<path d="M1138.93 45.3191C1138.93 46.4837 1138.06 47.357 1136.89 47.357C1135.72 47.357 1134.85 46.4837 1134.85 45.3191C1134.85 44.1546 1135.72 43.2812 1136.89 43.2812C1138.06 43.2812 1138.93 44.1546 1138.93 45.3191Z" fill="white"/>
<path d="M1156.22 45.3191C1156.22 46.4837 1155.35 47.357 1154.18 47.357C1153.02 47.357 1152.14 46.4837 1152.14 45.3191C1152.14 44.1546 1153.02 43.2812 1154.18 43.2812C1155.35 43.2812 1156.22 44.1546 1156.22 45.3191Z" fill="white"/>
<path d="M1173.61 45.3191C1173.61 46.4837 1172.74 47.357 1171.57 47.357C1170.4 47.357 1169.53 46.4837 1169.53 45.3191C1169.53 44.1546 1170.4 43.2812 1171.57 43.2812C1172.74 43.2812 1173.61 44.1546 1173.61 45.3191Z" fill="white"/>
<path d="M1191 45.3191C1191 46.4837 1190.13 47.357 1188.96 47.357C1187.79 47.357 1186.92 46.4837 1186.92 45.3191C1186.92 44.1546 1187.79 43.2812 1188.96 43.2812C1190.03 43.2812 1191 44.1546 1191 45.3191Z" fill="white"/>
<path d="M1052.08 2.03789C1052.08 3.2024 1051.21 4.07579 1050.04 4.07579C1048.87 4.07579 1048 3.2024 1048 2.03789C1048 0.873382 1048.87 0 1050.04 0C1051.21 0 1052.08 0.873382 1052.08 2.03789Z" fill="white"/>
<path d="M1069.47 2.03789C1069.47 3.2024 1068.6 4.07579 1067.43 4.07579C1066.26 4.07579 1065.39 3.2024 1065.39 2.03789C1065.39 0.873382 1066.26 0 1067.43 0C1068.5 0 1069.47 0.873382 1069.47 2.03789Z" fill="white"/>
<path d="M1086.76 2.03789C1086.76 3.2024 1085.89 4.07579 1084.72 4.07579C1083.56 4.07579 1082.68 3.2024 1082.68 2.03789C1082.68 0.873382 1083.65 0 1084.72 0C1085.89 0 1086.76 0.873382 1086.76 2.03789Z" fill="white"/>
<path d="M1104.15 2.03789C1104.15 3.2024 1103.28 4.07579 1102.11 4.07579C1100.94 4.07579 1100.07 3.2024 1100.07 2.03789C1100.07 0.873382 1101.04 0 1102.11 0C1103.18 0 1104.15 0.873382 1104.15 2.03789Z" fill="white"/>
<path d="M1121.54 2.03789C1121.54 3.2024 1120.67 4.07579 1119.5 4.07579C1118.33 4.07579 1117.46 3.2024 1117.46 2.03789C1117.46 0.873382 1118.33 0 1119.5 0C1120.57 0 1121.54 0.873382 1121.54 2.03789Z" fill="white"/>
<path d="M1138.93 2.03789C1138.93 3.2024 1138.06 4.07579 1136.89 4.07579C1135.72 4.07579 1134.85 3.2024 1134.85 2.03789C1134.85 0.873382 1135.72 0 1136.89 0C1138.06 0 1138.93 0.873382 1138.93 2.03789Z" fill="white"/>
<path d="M1156.22 2.03789C1156.22 3.2024 1155.35 4.07579 1154.18 4.07579C1153.02 4.07579 1152.14 3.2024 1152.14 2.03789C1152.14 0.873382 1153.02 0 1154.18 0C1155.35 0 1156.22 0.873382 1156.22 2.03789Z" fill="white"/>
<path d="M1173.61 2.03789C1173.61 3.2024 1172.74 4.07579 1171.57 4.07579C1170.4 4.07579 1169.53 3.2024 1169.53 2.03789C1169.53 0.873382 1170.4 0 1171.57 0C1172.74 0 1173.61 0.873382 1173.61 2.03789Z" fill="white"/>
<path d="M1191 2.03789C1191 3.2024 1190.13 4.07579 1188.96 4.07579C1187.79 4.07579 1186.92 3.2024 1186.92 2.03789C1186.92 0.873382 1187.79 0 1188.96 0C1190.03 0 1191 0.873382 1191 2.03789Z" fill="white"/>
<path d="M1052.08 16.4969C1052.08 17.6614 1051.21 18.5348 1050.04 18.5348C1048.87 18.5348 1048 17.5643 1048 16.4969C1048 15.3324 1048.87 14.459 1050.04 14.459C1051.21 14.459 1052.08 15.3324 1052.08 16.4969Z" fill="white"/>
<path d="M1069.47 16.4969C1069.47 17.6614 1068.6 18.5348 1067.43 18.5348C1066.26 18.5348 1065.39 17.6614 1065.39 16.4969C1065.39 15.3324 1066.26 14.459 1067.43 14.459C1068.5 14.459 1069.47 15.3324 1069.47 16.4969Z" fill="white"/>
<path d="M1086.76 16.4969C1086.76 17.6614 1085.89 18.5348 1084.72 18.5348C1083.56 18.5348 1082.68 17.6614 1082.68 16.4969C1082.68 15.3324 1083.56 14.459 1084.72 14.459C1085.89 14.459 1086.76 15.3324 1086.76 16.4969Z" fill="white"/>
<path d="M1104.15 16.4969C1104.15 17.6614 1103.28 18.5348 1102.11 18.5348C1100.94 18.5348 1100.07 17.6614 1100.07 16.4969C1100.07 15.3324 1100.94 14.459 1102.11 14.459C1103.28 14.459 1104.15 15.3324 1104.15 16.4969Z" fill="white"/>
<path d="M1121.54 16.4969C1121.54 17.6614 1120.67 18.5348 1119.5 18.5348C1118.33 18.5348 1117.46 17.6614 1117.46 16.4969C1117.46 15.3324 1118.33 14.459 1119.5 14.459C1120.57 14.459 1121.54 15.3324 1121.54 16.4969Z" fill="white"/>
<path d="M1138.93 16.4969C1138.93 17.6614 1138.06 18.5348 1136.89 18.5348C1135.72 18.5348 1134.85 17.6614 1134.85 16.4969C1134.85 15.3324 1135.72 14.459 1136.89 14.459C1138.06 14.459 1138.93 15.3324 1138.93 16.4969Z" fill="white"/>
<path d="M1156.22 16.4969C1156.22 17.6614 1155.35 18.5348 1154.18 18.5348C1153.02 18.5348 1152.14 17.6614 1152.14 16.4969C1152.14 15.3324 1153.02 14.459 1154.18 14.459C1155.35 14.459 1156.22 15.3324 1156.22 16.4969Z" fill="white"/>
<path d="M1173.61 16.4969C1173.61 17.6614 1172.74 18.5348 1171.57 18.5348C1170.4 18.5348 1169.53 17.6614 1169.53 16.4969C1169.53 15.3324 1170.4 14.459 1171.57 14.459C1172.74 14.459 1173.61 15.3324 1173.61 16.4969Z" fill="white"/>
<path d="M1191 16.4969C1191 17.6614 1190.13 18.5348 1188.96 18.5348C1187.79 18.5348 1186.92 17.6614 1186.92 16.4969C1186.92 15.3324 1187.79 14.459 1188.96 14.459C1190.03 14.459 1191 15.3324 1191 16.4969Z" fill="white"/>
<path d="M1052.08 59.6805C1052.08 60.845 1051.21 61.7184 1050.04 61.7184C1048.87 61.7184 1048 60.845 1048 59.6805C1048 58.516 1048.87 57.6426 1050.04 57.6426C1051.21 57.6426 1052.08 58.613 1052.08 59.6805Z" fill="white"/>
<path d="M1069.47 59.6805C1069.47 60.845 1068.6 61.7184 1067.43 61.7184C1066.26 61.7184 1065.39 60.845 1065.39 59.6805C1065.39 58.516 1066.26 57.6426 1067.43 57.6426C1068.5 57.6426 1069.47 58.613 1069.47 59.6805Z" fill="white"/>
<path d="M1086.76 59.6805C1086.76 60.845 1085.89 61.7184 1084.72 61.7184C1083.56 61.7184 1082.68 60.845 1082.68 59.6805C1082.68 58.516 1083.56 57.6426 1084.72 57.6426C1085.89 57.6426 1086.76 58.613 1086.76 59.6805Z" fill="white"/>
<path d="M1104.15 59.6805C1104.15 60.845 1103.28 61.7184 1102.11 61.7184C1100.94 61.7184 1100.07 60.845 1100.07 59.6805C1100.07 58.516 1100.94 57.6426 1102.11 57.6426C1103.28 57.6426 1104.15 58.613 1104.15 59.6805Z" fill="white"/>
<path d="M1121.54 59.6805C1121.54 60.845 1120.67 61.7184 1119.5 61.7184C1118.33 61.7184 1117.46 60.845 1117.46 59.6805C1117.46 58.516 1118.33 57.6426 1119.5 57.6426C1120.57 57.6426 1121.54 58.613 1121.54 59.6805Z" fill="white"/>
<path d="M1138.93 59.6805C1138.93 60.845 1138.06 61.7184 1136.89 61.7184C1135.72 61.7184 1134.85 60.845 1134.85 59.6805C1134.85 58.516 1135.72 57.6426 1136.89 57.6426C1138.06 57.6426 1138.93 58.613 1138.93 59.6805Z" fill="white"/>
<path d="M1156.22 59.6805C1156.22 60.845 1155.35 61.7184 1154.18 61.7184C1153.02 61.7184 1152.14 60.845 1152.14 59.6805C1152.14 58.516 1153.02 57.6426 1154.18 57.6426C1155.35 57.6426 1156.22 58.613 1156.22 59.6805Z" fill="white"/>
<path d="M1173.61 59.6805C1173.61 60.845 1172.74 61.7184 1171.57 61.7184C1170.4 61.7184 1169.53 60.845 1169.53 59.6805C1169.53 58.516 1170.4 57.6426 1171.57 57.6426C1172.74 57.6426 1173.61 58.613 1173.61 59.6805Z" fill="white"/>
<path d="M1191 59.6805C1191 60.845 1190.13 61.7184 1188.96 61.7184C1187.79 61.7184 1186.92 60.845 1186.92 59.6805C1186.92 58.516 1187.79 57.6426 1188.96 57.6426C1190.03 57.6426 1191 58.613 1191 59.6805Z" fill="white"/>
<path d="M1052.08 74.1395C1052.08 75.304 1051.21 76.1773 1050.04 76.1773C1048.87 76.1773 1048 75.304 1048 74.1395C1048 72.9749 1048.87 72.1016 1050.04 72.1016C1051.21 72.1016 1052.08 72.9749 1052.08 74.1395Z" fill="white"/>
<path d="M1069.47 74.1395C1069.47 75.304 1068.6 76.1773 1067.43 76.1773C1066.26 76.1773 1065.39 75.304 1065.39 74.1395C1065.39 72.9749 1066.26 72.1016 1067.43 72.1016C1068.5 72.1016 1069.47 72.9749 1069.47 74.1395Z" fill="white"/>
<path d="M1086.76 74.1395C1086.76 75.304 1085.89 76.1773 1084.72 76.1773C1083.56 76.1773 1082.68 75.304 1082.68 74.1395C1082.68 72.9749 1083.56 72.1016 1084.72 72.1016C1085.89 72.1016 1086.76 72.9749 1086.76 74.1395Z" fill="white"/>
<path d="M1102.11 76.1773C1103.24 76.1773 1104.15 75.265 1104.15 74.1395C1104.15 73.014 1103.24 72.1016 1102.11 72.1016C1100.98 72.1016 1100.07 73.014 1100.07 74.1395C1100.07 75.265 1100.98 76.1773 1102.11 76.1773Z" fill="white"/>
<path d="M1121.54 74.1395C1121.54 75.304 1120.67 76.1773 1119.5 76.1773C1118.33 76.1773 1117.46 75.304 1117.46 74.1395C1117.46 72.9749 1118.33 72.1016 1119.5 72.1016C1120.57 72.1016 1121.54 72.9749 1121.54 74.1395Z" fill="white"/>
<path d="M1138.93 74.1395C1138.93 75.304 1138.06 76.1773 1136.89 76.1773C1135.72 76.1773 1134.85 75.304 1134.85 74.1395C1134.85 72.9749 1135.72 72.1016 1136.89 72.1016C1138.06 72.1016 1138.93 72.9749 1138.93 74.1395Z" fill="white"/>
<path d="M1156.22 74.1395C1156.22 75.304 1155.35 76.1773 1154.18 76.1773C1153.02 76.1773 1152.14 75.304 1152.14 74.1395C1152.14 72.9749 1153.02 72.1016 1154.18 72.1016C1155.35 72.1016 1156.22 72.9749 1156.22 74.1395Z" fill="white"/>
<path d="M1171.57 76.1773C1172.7 76.1773 1173.61 75.265 1173.61 74.1395C1173.61 73.014 1172.7 72.1016 1171.57 72.1016C1170.44 72.1016 1169.53 73.014 1169.53 74.1395C1169.53 75.265 1170.44 76.1773 1171.57 76.1773Z" fill="white"/>
<path d="M1191 74.1395C1191 75.304 1190.13 76.1773 1188.96 76.1773C1187.79 76.1773 1186.92 75.304 1186.92 74.1395C1186.92 72.9749 1187.79 72.1016 1188.96 72.1016C1190.03 72.1016 1191 72.9749 1191 74.1395Z" fill="white"/>
<path d="M1052.08 88.6004C1052.08 89.7649 1051.21 90.6383 1050.04 90.6383C1048.87 90.6383 1048 89.7649 1048 88.6004C1048 87.4359 1048.87 86.5625 1050.04 86.5625C1051.21 86.5625 1052.08 87.4359 1052.08 88.6004Z" fill="white"/>
<path d="M1069.47 88.6004C1069.47 89.7649 1068.6 90.6383 1067.43 90.6383C1066.26 90.6383 1065.39 89.7649 1065.39 88.6004C1065.39 87.4359 1066.26 86.5625 1067.43 86.5625C1068.5 86.5625 1069.47 87.4359 1069.47 88.6004Z" fill="white"/>
<path d="M1086.76 88.6004C1086.76 89.7649 1085.89 90.6383 1084.72 90.6383C1083.56 90.6383 1082.68 89.7649 1082.68 88.6004C1082.68 87.4359 1083.56 86.5625 1084.72 86.5625C1085.89 86.5625 1086.76 87.4359 1086.76 88.6004Z" fill="white"/>
<path d="M1104.15 88.6004C1104.15 89.7649 1103.28 90.6383 1102.11 90.6383C1100.94 90.6383 1100.07 89.7649 1100.07 88.6004C1100.07 87.4359 1100.94 86.5625 1102.11 86.5625C1103.28 86.5625 1104.15 87.4359 1104.15 88.6004Z" fill="white"/>
<path d="M1121.54 88.6004C1121.54 89.7649 1120.67 90.6383 1119.5 90.6383C1118.33 90.6383 1117.46 89.7649 1117.46 88.6004C1117.46 87.4359 1118.33 86.5625 1119.5 86.5625C1120.57 86.5625 1121.54 87.4359 1121.54 88.6004Z" fill="white"/>
<path d="M1138.93 88.6004C1138.93 89.7649 1138.06 90.6383 1136.89 90.6383C1135.72 90.6383 1134.85 89.7649 1134.85 88.6004C1134.85 87.4359 1135.72 86.5625 1136.89 86.5625C1138.06 86.5625 1138.93 87.4359 1138.93 88.6004Z" fill="white"/>
<path d="M1156.22 88.6004C1156.22 89.7649 1155.35 90.6383 1154.18 90.6383C1153.02 90.6383 1152.14 89.7649 1152.14 88.6004C1152.14 87.4359 1153.02 86.5625 1154.18 86.5625C1155.35 86.5625 1156.22 87.4359 1156.22 88.6004Z" fill="white"/>
<path d="M1173.61 88.6004C1173.61 89.7649 1172.74 90.6383 1171.57 90.6383C1170.4 90.6383 1169.53 89.7649 1169.53 88.6004C1169.53 87.4359 1170.4 86.5625 1171.57 86.5625C1172.74 86.5625 1173.61 87.4359 1173.61 88.6004Z" fill="white"/>
<path d="M1191 88.6004C1191 89.7649 1190.13 90.6383 1188.96 90.6383C1187.79 90.6383 1186.92 89.7649 1186.92 88.6004C1186.92 87.4359 1187.79 86.5625 1188.96 86.5625C1190.03 86.5625 1191 87.4359 1191 88.6004Z" fill="white"/>
<path d="M1052.08 102.962C1052.08 104.126 1051.21 105 1050.04 105C1048.87 105 1048 104.126 1048 102.962C1048 101.797 1048.87 100.924 1050.04 100.924C1051.21 100.924 1052.08 101.894 1052.08 102.962Z" fill="white"/>
<path d="M1069.47 102.962C1069.47 104.126 1068.6 105 1067.43 105C1066.26 105 1065.39 104.126 1065.39 102.962C1065.39 101.797 1066.26 100.924 1067.43 100.924C1068.5 100.924 1069.47 101.894 1069.47 102.962Z" fill="white"/>
<path d="M1086.76 102.962C1086.76 104.126 1085.89 105 1084.72 105C1083.56 105 1082.68 104.126 1082.68 102.962C1082.68 101.797 1083.56 100.924 1084.72 100.924C1085.89 100.924 1086.76 101.894 1086.76 102.962Z" fill="white"/>
<path d="M1104.15 102.962C1104.15 104.126 1103.28 105 1102.11 105C1100.94 105 1100.07 104.126 1100.07 102.962C1100.07 101.797 1100.94 100.924 1102.11 100.924C1103.28 100.924 1104.15 101.894 1104.15 102.962Z" fill="white"/>
<path d="M1121.54 102.962C1121.54 104.126 1120.67 105 1119.5 105C1118.33 105 1117.46 104.126 1117.46 102.962C1117.46 101.797 1118.33 100.924 1119.5 100.924C1120.57 100.924 1121.54 101.894 1121.54 102.962Z" fill="white"/>
<path d="M1138.93 102.962C1138.93 104.126 1138.06 105 1136.89 105C1135.72 105 1134.85 104.126 1134.85 102.962C1134.85 101.797 1135.72 100.924 1136.89 100.924C1138.06 100.924 1138.93 101.894 1138.93 102.962Z" fill="white"/>
<path d="M1156.22 102.962C1156.22 104.126 1155.35 105 1154.18 105C1153.02 105 1152.14 104.126 1152.14 102.962C1152.14 101.797 1153.02 100.924 1154.18 100.924C1155.35 100.924 1156.22 101.894 1156.22 102.962Z" fill="white"/>
<path d="M1173.61 102.962C1173.61 104.126 1172.74 105 1171.57 105C1170.4 105 1169.53 104.126 1169.53 102.962C1169.53 101.797 1170.4 100.924 1171.57 100.924C1172.74 100.924 1173.61 101.894 1173.61 102.962Z" fill="white"/>
<path d="M1191 102.962C1191 104.126 1190.13 105 1188.96 105C1187.79 105 1186.92 104.126 1186.92 102.962C1186.92 101.797 1187.79 100.924 1188.96 100.924C1190.03 100.924 1191 101.894 1191 102.962Z" fill="white"/>
<path opacity="0.6" d="M41 81.9782C31.6376 91.3406 16.3842 91.3406 7.02181 81.9782C-2.3406 72.6158 -2.3406 57.3624 7.02181 48L41 81.9782Z" fill="white"/>
</svg>
