<svg width="1845" height="816" viewBox="0 0 1845 816" fill="none" xmlns="http://www.w3.org/2000/svg">
<g opacity="0.4" clip-path="url(#clip0_2506_471)">
<path d="M1842.09 558C1770.73 558 1713 615.727 1713 687.089C1713 758.273 1770.73 816.177 1842.09 816.177C1913.27 816.177 1971.18 758.45 1971.18 687.089C1971 615.727 1913.27 558 1842.09 558ZM1842.09 807.855C1775.33 807.855 1721.32 753.846 1721.32 687.089C1721.32 620.331 1775.33 566.323 1842.09 566.323C1908.85 566.323 1962.85 620.331 1962.85 687.089C1962.85 753.669 1908.67 807.855 1842.09 807.855Z" fill="white"/>
<path d="M1842.09 585.801C1786.31 585.801 1740.98 631.132 1740.98 686.911C1740.98 742.69 1786.31 788.022 1842.09 788.022C1897.87 788.022 1943.2 742.867 1943.2 687.088C1943.2 631.132 1897.87 585.801 1842.09 585.801ZM1842.09 772.616C1794.81 772.616 1756.38 734.191 1756.38 686.911C1756.38 639.632 1794.81 601.206 1842.09 601.206C1889.37 601.206 1927.79 639.632 1927.79 686.911C1927.79 734.191 1889.37 772.616 1842.09 772.616Z" fill="white"/>
</g>
<g clip-path="url(#clip1_2506_471)">
<path d="M272.08 548.86C272.08 550.025 271.206 550.898 270.04 550.898C268.874 550.898 268 550.025 268 548.86C268 547.696 268.874 546.822 270.04 546.822C271.206 546.822 272.08 547.793 272.08 548.86Z" fill="white"/>
<path d="M289.469 548.86C289.469 550.025 288.595 550.898 287.429 550.898C286.263 550.898 285.389 550.025 285.389 548.86C285.389 547.696 286.263 546.822 287.429 546.822C288.498 546.822 289.469 547.793 289.469 548.86Z" fill="white"/>
<path d="M306.762 548.86C306.762 550.025 305.887 550.898 304.722 550.898C303.556 550.898 302.682 550.025 302.682 548.86C302.682 547.696 303.556 546.822 304.722 546.822C305.887 546.822 306.762 547.793 306.762 548.86Z" fill="white"/>
<path d="M324.151 548.86C324.151 550.025 323.277 550.898 322.111 550.898C320.945 550.898 320.071 550.025 320.071 548.86C320.071 547.696 320.945 546.822 322.111 546.822C323.277 546.822 324.151 547.793 324.151 548.86Z" fill="white"/>
<path d="M341.54 548.86C341.54 550.025 340.666 550.898 339.5 550.898C338.334 550.898 337.46 550.025 337.46 548.86C337.46 547.696 338.334 546.822 339.5 546.822C340.569 546.822 341.54 547.793 341.54 548.86Z" fill="white"/>
<path d="M358.929 548.86C358.929 550.025 358.055 550.898 356.889 550.898C355.723 550.898 354.849 550.025 354.849 548.86C354.849 547.696 355.723 546.822 356.889 546.822C358.055 546.822 358.929 547.793 358.929 548.86Z" fill="white"/>
<path d="M376.222 548.86C376.222 550.025 375.347 550.898 374.182 550.898C373.016 550.898 372.142 550.025 372.142 548.86C372.142 547.696 373.016 546.822 374.182 546.822C375.347 546.822 376.222 547.793 376.222 548.86Z" fill="white"/>
<path d="M393.611 548.86C393.611 550.025 392.737 550.898 391.571 550.898C390.405 550.898 389.531 550.025 389.531 548.86C389.531 547.696 390.405 546.822 391.571 546.822C392.737 546.822 393.611 547.793 393.611 548.86Z" fill="white"/>
<path d="M411 548.86C411 550.025 410.126 550.898 408.96 550.898C407.794 550.898 406.92 550.025 406.92 548.86C406.92 547.696 407.794 546.822 408.96 546.822C410.029 546.822 411 547.793 411 548.86Z" fill="white"/>
<path d="M272.08 563.319C272.08 564.484 271.206 565.357 270.04 565.357C268.874 565.357 268 564.484 268 563.319C268 562.155 268.874 561.281 270.04 561.281C271.206 561.281 272.08 562.155 272.08 563.319Z" fill="white"/>
<path d="M289.469 563.319C289.469 564.484 288.595 565.357 287.429 565.357C286.263 565.357 285.389 564.484 285.389 563.319C285.389 562.155 286.263 561.281 287.429 561.281C288.498 561.281 289.469 562.155 289.469 563.319Z" fill="white"/>
<path d="M306.762 563.319C306.762 564.484 305.887 565.357 304.722 565.357C303.556 565.357 302.682 564.484 302.682 563.319C302.682 562.155 303.556 561.281 304.722 561.281C305.887 561.281 306.762 562.155 306.762 563.319Z" fill="white"/>
<path d="M324.151 563.319C324.151 564.484 323.277 565.357 322.111 565.357C320.945 565.357 320.071 564.484 320.071 563.319C320.071 562.155 320.945 561.281 322.111 561.281C323.277 561.281 324.151 562.155 324.151 563.319Z" fill="white"/>
<path d="M341.54 563.319C341.54 564.484 340.666 565.357 339.5 565.357C338.334 565.357 337.46 564.484 337.46 563.319C337.46 562.155 338.334 561.281 339.5 561.281C340.569 561.281 341.54 562.155 341.54 563.319Z" fill="white"/>
<path d="M358.929 563.319C358.929 564.484 358.055 565.357 356.889 565.357C355.723 565.357 354.849 564.484 354.849 563.319C354.849 562.155 355.723 561.281 356.889 561.281C358.055 561.281 358.929 562.155 358.929 563.319Z" fill="white"/>
<path d="M376.222 563.319C376.222 564.484 375.347 565.357 374.182 565.357C373.016 565.357 372.142 564.484 372.142 563.319C372.142 562.155 373.016 561.281 374.182 561.281C375.347 561.281 376.222 562.155 376.222 563.319Z" fill="white"/>
<path d="M393.611 563.319C393.611 564.484 392.737 565.357 391.571 565.357C390.405 565.357 389.531 564.484 389.531 563.319C389.531 562.155 390.405 561.281 391.571 561.281C392.737 561.281 393.611 562.155 393.611 563.319Z" fill="white"/>
<path d="M411 563.319C411 564.484 410.126 565.357 408.96 565.357C407.794 565.357 406.92 564.484 406.92 563.319C406.92 562.155 407.794 561.281 408.96 561.281C410.029 561.281 411 562.155 411 563.319Z" fill="white"/>
<path d="M272.08 520.038C272.08 521.202 271.206 522.076 270.04 522.076C268.874 522.076 268 521.202 268 520.038C268 518.873 268.874 518 270.04 518C271.206 518 272.08 518.873 272.08 520.038Z" fill="white"/>
<path d="M289.469 520.038C289.469 521.202 288.595 522.076 287.429 522.076C286.263 522.076 285.389 521.202 285.389 520.038C285.389 518.873 286.263 518 287.429 518C288.498 518 289.469 518.873 289.469 520.038Z" fill="white"/>
<path d="M306.762 520.038C306.762 521.202 305.887 522.076 304.722 522.076C303.556 522.076 302.682 521.202 302.682 520.038C302.682 518.873 303.653 518 304.722 518C305.887 518 306.762 518.873 306.762 520.038Z" fill="white"/>
<path d="M324.151 520.038C324.151 521.202 323.277 522.076 322.111 522.076C320.945 522.076 320.071 521.202 320.071 520.038C320.071 518.873 321.042 518 322.111 518C323.179 518 324.151 518.873 324.151 520.038Z" fill="white"/>
<path d="M341.54 520.038C341.54 521.202 340.666 522.076 339.5 522.076C338.334 522.076 337.46 521.202 337.46 520.038C337.46 518.873 338.334 518 339.5 518C340.569 518 341.54 518.873 341.54 520.038Z" fill="white"/>
<path d="M358.929 520.038C358.929 521.202 358.055 522.076 356.889 522.076C355.723 522.076 354.849 521.202 354.849 520.038C354.849 518.873 355.723 518 356.889 518C358.055 518 358.929 518.873 358.929 520.038Z" fill="white"/>
<path d="M376.222 520.038C376.222 521.202 375.347 522.076 374.182 522.076C373.016 522.076 372.142 521.202 372.142 520.038C372.142 518.873 373.016 518 374.182 518C375.347 518 376.222 518.873 376.222 520.038Z" fill="white"/>
<path d="M393.611 520.038C393.611 521.202 392.737 522.076 391.571 522.076C390.405 522.076 389.531 521.202 389.531 520.038C389.531 518.873 390.405 518 391.571 518C392.737 518 393.611 518.873 393.611 520.038Z" fill="white"/>
<path d="M411 520.038C411 521.202 410.126 522.076 408.96 522.076C407.794 522.076 406.92 521.202 406.92 520.038C406.92 518.873 407.794 518 408.96 518C410.029 518 411 518.873 411 520.038Z" fill="white"/>
<path d="M272.08 534.497C272.08 535.661 271.206 536.535 270.04 536.535C268.874 536.535 268 535.564 268 534.497C268 533.332 268.874 532.459 270.04 532.459C271.206 532.459 272.08 533.332 272.08 534.497Z" fill="white"/>
<path d="M289.469 534.497C289.469 535.661 288.595 536.535 287.429 536.535C286.263 536.535 285.389 535.661 285.389 534.497C285.389 533.332 286.263 532.459 287.429 532.459C288.498 532.459 289.469 533.332 289.469 534.497Z" fill="white"/>
<path d="M306.762 534.497C306.762 535.661 305.887 536.535 304.722 536.535C303.556 536.535 302.682 535.661 302.682 534.497C302.682 533.332 303.556 532.459 304.722 532.459C305.887 532.459 306.762 533.332 306.762 534.497Z" fill="white"/>
<path d="M324.151 534.497C324.151 535.661 323.277 536.535 322.111 536.535C320.945 536.535 320.071 535.661 320.071 534.497C320.071 533.332 320.945 532.459 322.111 532.459C323.277 532.459 324.151 533.332 324.151 534.497Z" fill="white"/>
<path d="M341.54 534.497C341.54 535.661 340.666 536.535 339.5 536.535C338.334 536.535 337.46 535.661 337.46 534.497C337.46 533.332 338.334 532.459 339.5 532.459C340.569 532.459 341.54 533.332 341.54 534.497Z" fill="white"/>
<path d="M358.929 534.497C358.929 535.661 358.055 536.535 356.889 536.535C355.723 536.535 354.849 535.661 354.849 534.497C354.849 533.332 355.723 532.459 356.889 532.459C358.055 532.459 358.929 533.332 358.929 534.497Z" fill="white"/>
<path d="M376.222 534.497C376.222 535.661 375.347 536.535 374.182 536.535C373.016 536.535 372.142 535.661 372.142 534.497C372.142 533.332 373.016 532.459 374.182 532.459C375.347 532.459 376.222 533.332 376.222 534.497Z" fill="white"/>
<path d="M393.611 534.497C393.611 535.661 392.737 536.535 391.571 536.535C390.405 536.535 389.531 535.661 389.531 534.497C389.531 533.332 390.405 532.459 391.571 532.459C392.737 532.459 393.611 533.332 393.611 534.497Z" fill="white"/>
<path d="M411 534.497C411 535.661 410.126 536.535 408.96 536.535C407.794 536.535 406.92 535.661 406.92 534.497C406.92 533.332 407.794 532.459 408.96 532.459C410.029 532.459 411 533.332 411 534.497Z" fill="white"/>
<path d="M272.08 577.68C272.08 578.845 271.206 579.718 270.04 579.718C268.874 579.718 268 578.845 268 577.68C268 576.516 268.874 575.643 270.04 575.643C271.206 575.643 272.08 576.613 272.08 577.68Z" fill="white"/>
<path d="M289.469 577.68C289.469 578.845 288.595 579.718 287.429 579.718C286.263 579.718 285.389 578.845 285.389 577.68C285.389 576.516 286.263 575.643 287.429 575.643C288.498 575.643 289.469 576.613 289.469 577.68Z" fill="white"/>
<path d="M306.762 577.68C306.762 578.845 305.887 579.718 304.722 579.718C303.556 579.718 302.682 578.845 302.682 577.68C302.682 576.516 303.556 575.643 304.722 575.643C305.887 575.643 306.762 576.613 306.762 577.68Z" fill="white"/>
<path d="M324.151 577.68C324.151 578.845 323.277 579.718 322.111 579.718C320.945 579.718 320.071 578.845 320.071 577.68C320.071 576.516 320.945 575.643 322.111 575.643C323.277 575.643 324.151 576.613 324.151 577.68Z" fill="white"/>
<path d="M341.54 577.68C341.54 578.845 340.666 579.718 339.5 579.718C338.334 579.718 337.46 578.845 337.46 577.68C337.46 576.516 338.334 575.643 339.5 575.643C340.569 575.643 341.54 576.613 341.54 577.68Z" fill="white"/>
<path d="M358.929 577.68C358.929 578.845 358.055 579.718 356.889 579.718C355.723 579.718 354.849 578.845 354.849 577.68C354.849 576.516 355.723 575.643 356.889 575.643C358.055 575.643 358.929 576.613 358.929 577.68Z" fill="white"/>
<path d="M376.222 577.68C376.222 578.845 375.347 579.718 374.182 579.718C373.016 579.718 372.142 578.845 372.142 577.68C372.142 576.516 373.016 575.643 374.182 575.643C375.347 575.643 376.222 576.613 376.222 577.68Z" fill="white"/>
<path d="M393.611 577.68C393.611 578.845 392.737 579.718 391.571 579.718C390.405 579.718 389.531 578.845 389.531 577.68C389.531 576.516 390.405 575.643 391.571 575.643C392.737 575.643 393.611 576.613 393.611 577.68Z" fill="white"/>
<path d="M411 577.68C411 578.845 410.126 579.718 408.96 579.718C407.794 579.718 406.92 578.845 406.92 577.68C406.92 576.516 407.794 575.643 408.96 575.643C410.029 575.643 411 576.613 411 577.68Z" fill="white"/>
<path d="M272.08 592.139C272.08 593.304 271.206 594.177 270.04 594.177C268.874 594.177 268 593.304 268 592.139C268 590.975 268.874 590.102 270.04 590.102C271.206 590.102 272.08 590.975 272.08 592.139Z" fill="white"/>
<path d="M289.469 592.139C289.469 593.304 288.595 594.177 287.429 594.177C286.263 594.177 285.389 593.304 285.389 592.139C285.389 590.975 286.263 590.102 287.429 590.102C288.498 590.102 289.469 590.975 289.469 592.139Z" fill="white"/>
<path d="M306.762 592.139C306.762 593.304 305.887 594.177 304.722 594.177C303.556 594.177 302.682 593.304 302.682 592.139C302.682 590.975 303.556 590.102 304.722 590.102C305.887 590.102 306.762 590.975 306.762 592.139Z" fill="white"/>
<path d="M322.111 594.177C323.238 594.177 324.151 593.265 324.151 592.139C324.151 591.014 323.238 590.102 322.111 590.102C320.984 590.102 320.071 591.014 320.071 592.139C320.071 593.265 320.984 594.177 322.111 594.177Z" fill="white"/>
<path d="M341.54 592.139C341.54 593.304 340.666 594.177 339.5 594.177C338.334 594.177 337.46 593.304 337.46 592.139C337.46 590.975 338.334 590.102 339.5 590.102C340.569 590.102 341.54 590.975 341.54 592.139Z" fill="white"/>
<path d="M358.929 592.139C358.929 593.304 358.055 594.177 356.889 594.177C355.723 594.177 354.849 593.304 354.849 592.139C354.849 590.975 355.723 590.102 356.889 590.102C358.055 590.102 358.929 590.975 358.929 592.139Z" fill="white"/>
<path d="M376.222 592.139C376.222 593.304 375.347 594.177 374.182 594.177C373.016 594.177 372.142 593.304 372.142 592.139C372.142 590.975 373.016 590.102 374.182 590.102C375.347 590.102 376.222 590.975 376.222 592.139Z" fill="white"/>
<path d="M391.571 594.177C392.698 594.177 393.611 593.265 393.611 592.139C393.611 591.014 392.698 590.102 391.571 590.102C390.444 590.102 389.531 591.014 389.531 592.139C389.531 593.265 390.444 594.177 391.571 594.177Z" fill="white"/>
<path d="M411 592.139C411 593.304 410.126 594.177 408.96 594.177C407.794 594.177 406.92 593.304 406.92 592.139C406.92 590.975 407.794 590.102 408.96 590.102C410.029 590.102 411 590.975 411 592.139Z" fill="white"/>
<path d="M272.08 606.6C272.08 607.765 271.206 608.638 270.04 608.638C268.874 608.638 268 607.765 268 606.6C268 605.436 268.874 604.562 270.04 604.562C271.206 604.562 272.08 605.436 272.08 606.6Z" fill="white"/>
<path d="M289.469 606.6C289.469 607.765 288.595 608.638 287.429 608.638C286.263 608.638 285.389 607.765 285.389 606.6C285.389 605.436 286.263 604.562 287.429 604.562C288.498 604.562 289.469 605.436 289.469 606.6Z" fill="white"/>
<path d="M306.762 606.6C306.762 607.765 305.887 608.638 304.722 608.638C303.556 608.638 302.682 607.765 302.682 606.6C302.682 605.436 303.556 604.562 304.722 604.562C305.887 604.562 306.762 605.436 306.762 606.6Z" fill="white"/>
<path d="M324.151 606.6C324.151 607.765 323.277 608.638 322.111 608.638C320.945 608.638 320.071 607.765 320.071 606.6C320.071 605.436 320.945 604.562 322.111 604.562C323.277 604.562 324.151 605.436 324.151 606.6Z" fill="white"/>
<path d="M341.54 606.6C341.54 607.765 340.666 608.638 339.5 608.638C338.334 608.638 337.46 607.765 337.46 606.6C337.46 605.436 338.334 604.562 339.5 604.562C340.569 604.562 341.54 605.436 341.54 606.6Z" fill="white"/>
<path d="M358.929 606.6C358.929 607.765 358.055 608.638 356.889 608.638C355.723 608.638 354.849 607.765 354.849 606.6C354.849 605.436 355.723 604.562 356.889 604.562C358.055 604.562 358.929 605.436 358.929 606.6Z" fill="white"/>
<path d="M376.222 606.6C376.222 607.765 375.347 608.638 374.182 608.638C373.016 608.638 372.142 607.765 372.142 606.6C372.142 605.436 373.016 604.562 374.182 604.562C375.347 604.562 376.222 605.436 376.222 606.6Z" fill="white"/>
<path d="M393.611 606.6C393.611 607.765 392.737 608.638 391.571 608.638C390.405 608.638 389.531 607.765 389.531 606.6C389.531 605.436 390.405 604.562 391.571 604.562C392.737 604.562 393.611 605.436 393.611 606.6Z" fill="white"/>
<path d="M411 606.6C411 607.765 410.126 608.638 408.96 608.638C407.794 608.638 406.92 607.765 406.92 606.6C406.92 605.436 407.794 604.562 408.96 604.562C410.029 604.562 411 605.436 411 606.6Z" fill="white"/>
<path d="M272.08 620.962C272.08 622.126 271.206 623 270.04 623C268.874 623 268 622.126 268 620.962C268 619.797 268.874 618.924 270.04 618.924C271.206 618.924 272.08 619.894 272.08 620.962Z" fill="white"/>
<path d="M289.469 620.962C289.469 622.126 288.595 623 287.429 623C286.263 623 285.389 622.126 285.389 620.962C285.389 619.797 286.263 618.924 287.429 618.924C288.498 618.924 289.469 619.894 289.469 620.962Z" fill="white"/>
<path d="M306.762 620.962C306.762 622.126 305.887 623 304.722 623C303.556 623 302.682 622.126 302.682 620.962C302.682 619.797 303.556 618.924 304.722 618.924C305.887 618.924 306.762 619.894 306.762 620.962Z" fill="white"/>
<path d="M324.151 620.962C324.151 622.126 323.277 623 322.111 623C320.945 623 320.071 622.126 320.071 620.962C320.071 619.797 320.945 618.924 322.111 618.924C323.277 618.924 324.151 619.894 324.151 620.962Z" fill="white"/>
<path d="M341.54 620.962C341.54 622.126 340.666 623 339.5 623C338.334 623 337.46 622.126 337.46 620.962C337.46 619.797 338.334 618.924 339.5 618.924C340.569 618.924 341.54 619.894 341.54 620.962Z" fill="white"/>
<path d="M358.929 620.962C358.929 622.126 358.055 623 356.889 623C355.723 623 354.849 622.126 354.849 620.962C354.849 619.797 355.723 618.924 356.889 618.924C358.055 618.924 358.929 619.894 358.929 620.962Z" fill="white"/>
<path d="M376.222 620.962C376.222 622.126 375.347 623 374.182 623C373.016 623 372.142 622.126 372.142 620.962C372.142 619.797 373.016 618.924 374.182 618.924C375.347 618.924 376.222 619.894 376.222 620.962Z" fill="white"/>
<path d="M393.611 620.962C393.611 622.126 392.737 623 391.571 623C390.405 623 389.531 622.126 389.531 620.962C389.531 619.797 390.405 618.924 391.571 618.924C392.737 618.924 393.611 619.894 393.611 620.962Z" fill="white"/>
<path d="M411 620.962C411 622.126 410.126 623 408.96 623C407.794 623 406.92 622.126 406.92 620.962C406.92 619.797 407.794 618.924 408.96 618.924C410.029 618.924 411 619.894 411 620.962Z" fill="white"/>
</g>
<g opacity="0.6">
<path d="M1173.73 141.89C1184.33 141.89 1192.96 133.165 1192.96 122.453C1192.96 111.742 1184.33 103.017 1173.73 103.017L1173.73 141.89Z" fill="white"/>
<path d="M1143.73 141.89C1154.33 141.89 1162.96 133.165 1162.96 122.453C1162.96 111.742 1154.33 103.017 1143.73 103.017L1143.73 141.89Z" fill="white"/>
<path d="M1113.73 141.89C1124.33 141.89 1132.96 133.165 1132.96 122.453C1132.96 111.742 1124.33 103.017 1113.73 103.017L1113.73 141.89Z" fill="white"/>
</g>
<g opacity="0.6" clip-path="url(#clip2_2506_471)">
<path d="M72.5498 0C32.4434 0 0 32.4434 0 72.5498C0 112.557 32.4434 145.1 72.5498 145.1C112.557 145.1 145.1 112.656 145.1 72.5498C145 32.4434 112.557 0 72.5498 0ZM72.5498 140.422C35.0309 140.422 4.67742 110.069 4.67742 72.5498C4.67742 35.0309 35.0309 4.67742 72.5498 4.67742C110.069 4.67742 140.422 35.0309 140.422 72.5498C140.422 109.969 109.969 140.422 72.5498 140.422Z" fill="white"/>
<path d="M72.5498 15.625C41.2011 15.625 15.7241 41.102 15.7241 72.4507C15.7241 103.799 41.2011 129.276 72.5498 129.276C103.898 129.276 129.375 103.899 129.375 72.5502C129.375 41.102 103.898 15.625 72.5498 15.625ZM72.5498 120.618C45.9781 120.618 24.3823 99.0224 24.3823 72.4507C24.3823 45.8789 45.9781 24.2832 72.5498 24.2832C99.1215 24.2832 120.717 45.8789 120.717 72.4507C120.717 99.0224 99.1215 120.618 72.5498 120.618Z" fill="white"/>
<path d="M72.5503 40.6035C54.9353 40.6035 40.6045 54.9343 40.6045 72.5493C40.6045 90.1642 54.8358 104.495 72.5503 104.495C90.1652 104.495 104.496 90.1642 104.496 72.5493C104.397 54.9343 90.1652 40.6035 72.5503 40.6035ZM72.5503 89.6666C63.0959 89.6666 55.4329 82.0036 55.4329 72.5493C55.4329 63.0949 63.0959 55.4319 72.5503 55.4319C82.0046 55.4319 89.6676 63.0949 89.6676 72.5493C89.6676 82.0036 82.0046 89.6666 72.5503 89.6666Z" fill="white"/>
</g>
<defs>
<clipPath id="clip0_2506_471">
<rect width="258" height="258" fill="white" transform="translate(1713 558)"/>
</clipPath>
<clipPath id="clip1_2506_471">
<rect width="143" height="105" fill="white" transform="translate(268 518)"/>
</clipPath>
<clipPath id="clip2_2506_471">
<rect width="145" height="145" fill="white"/>
</clipPath>
</defs>
</svg>
