<svg width="435" height="481" viewBox="0 0 435 481" fill="none" xmlns="http://www.w3.org/2000/svg">
<path fill-rule="evenodd" clip-rule="evenodd" d="M49.4341 468.666H315.043V469.899H49.4341V468.666Z" fill="#3FB1B5"/>
<path fill-rule="evenodd" clip-rule="evenodd" d="M296.443 480.999H4.08301V480.045H296.443V480.999Z" fill="#66B0F0"/>
<path d="M295.153 4.92188V52.7712C295.153 62.1421 287.508 69.7545 278.097 69.7545H224.816C234.227 69.7545 241.872 62.1652 241.872 52.7712V4.92188H295.153Z" fill="white"/>
<path fill-rule="evenodd" clip-rule="evenodd" d="M241.291 4.34375H295.733V52.7716C295.733 62.4619 287.829 70.3333 278.097 70.3333H224.816V69.1764C233.907 69.1764 241.291 61.8456 241.291 52.7716V4.34375ZM231.126 69.1764H278.097C287.187 69.1764 294.572 61.823 294.572 52.7716V5.50065H242.453V52.7716C242.453 60.2669 237.746 66.6511 231.126 69.1764Z" fill="#66B0F0"/>
<path d="M270.545 0.294922H266.246V10.4988H270.545V0.294922Z" fill="#FFCF2D"/>
<path d="M279.655 23.1086C279.05 23.1086 278.446 22.8773 277.958 22.4376L276.169 20.8643C275.612 20.3784 274.868 20.3784 274.31 20.8643L272.614 22.3682C271.615 23.2475 270.221 23.2475 269.198 22.3682L267.641 21.0031C267.084 20.5172 266.34 20.5172 265.783 21.0031L264.342 22.2757C263.343 23.1549 261.949 23.1549 260.926 22.2757L259.741 21.2345C259.184 20.7486 258.44 20.7486 257.882 21.2345L256.604 22.3682C255.605 23.2475 254.211 23.2475 253.189 22.3682L252.004 21.327C251.446 20.8411 250.702 20.8411 250.145 21.327C249.912 21.5353 249.54 21.5121 249.331 21.2807C249.122 21.0494 249.145 20.6791 249.378 20.4709C250.377 19.5917 251.771 19.5917 252.794 20.4709L253.979 21.5121C254.536 21.998 255.28 21.998 255.837 21.5121L257.115 20.3784C258.115 19.4991 259.509 19.4991 260.531 20.3784L261.716 21.4196C262.274 21.9055 263.017 21.9055 263.575 21.4196L265.016 20.147C266.015 19.2677 267.409 19.2677 268.432 20.147L269.988 21.5121C270.546 21.998 271.29 21.998 271.847 21.5121L273.544 20.0081C274.543 19.1289 275.937 19.1289 276.959 20.0081L278.748 21.5815C279.306 22.0674 280.05 22.0674 280.607 21.5815L282.466 19.9387C283.465 19.0595 284.86 19.0595 285.882 19.9387C286.114 20.147 286.138 20.5172 285.928 20.7486C285.719 20.9799 285.347 21.0031 285.115 20.7948C284.557 20.3089 283.814 20.3089 283.256 20.7948L281.397 22.4376C280.84 22.8773 280.259 23.1086 279.655 23.1086Z" fill="#66B0F0"/>
<path d="M279.655 32.6184C279.05 32.6184 278.446 32.387 277.958 31.9474L276.169 30.374C275.612 29.8881 274.868 29.8881 274.31 30.374L272.614 31.878C271.615 32.7572 270.221 32.7572 269.198 31.878L267.641 30.5128C267.084 30.0269 266.34 30.0269 265.783 30.5128L264.342 31.7854C263.343 32.6646 261.949 32.6646 260.926 31.7854L259.741 30.7442C259.184 30.2583 258.44 30.2583 257.882 30.7442L256.604 31.878C255.605 32.7572 254.211 32.7572 253.189 31.878L252.004 30.8368C251.446 30.3509 250.702 30.3509 250.145 30.8368C249.912 31.045 249.54 31.0219 249.331 30.7905C249.122 30.5591 249.145 30.1889 249.378 29.9807C250.377 29.1014 251.771 29.1014 252.794 29.9807L253.979 31.0219C254.536 31.5077 255.28 31.5077 255.837 31.0219L257.115 29.8881C258.115 29.0089 259.509 29.0089 260.531 29.8881L261.716 30.9293C262.274 31.4152 263.017 31.4152 263.575 30.9293L265.016 29.6567C266.015 28.7775 267.409 28.7775 268.432 29.6567L269.988 31.0219C270.546 31.5077 271.29 31.5077 271.847 31.0219L273.544 29.5179C274.543 28.6387 275.937 28.6387 276.959 29.5179L278.748 31.0913C279.306 31.5772 280.05 31.5772 280.607 31.0913L282.466 29.4485C283.465 28.5693 284.86 28.5693 285.882 29.4485C286.114 29.6567 286.138 30.0269 285.928 30.2583C285.719 30.4897 285.347 30.5128 285.115 30.3046C284.557 29.8187 283.814 29.8187 283.256 30.3046L281.397 31.9474C280.84 32.4101 280.259 32.6184 279.655 32.6184Z" fill="#66B0F0"/>
<path d="M279.655 42.1281C279.05 42.1281 278.446 41.8968 277.958 41.4572L276.169 39.8838C275.612 39.3979 274.868 39.3979 274.31 39.8838L272.614 41.3877C271.615 42.267 270.221 42.267 269.198 41.3877L267.641 40.0226C267.084 39.5367 266.34 39.5367 265.783 40.0226L264.342 41.2952C263.343 42.1744 261.949 42.1744 260.926 41.2952L259.741 40.254C259.184 39.7681 258.44 39.7681 257.882 40.254L256.604 41.3877C255.605 42.267 254.211 42.267 253.189 41.3877L252.004 40.3465C251.446 39.8606 250.702 39.8606 250.145 40.3465C249.912 40.5548 249.54 40.5316 249.331 40.3003C249.122 40.0689 249.145 39.6987 249.378 39.4904C250.377 38.6112 251.771 38.6112 252.794 39.4904L253.979 40.5316C254.536 41.0175 255.28 41.0175 255.837 40.5316L257.115 39.3979C258.115 38.5186 259.509 38.5186 260.531 39.3979L261.716 40.4391C262.274 40.925 263.017 40.925 263.575 40.4391L265.016 39.1665C266.015 38.2873 267.409 38.2873 268.432 39.1665L269.988 40.5316C270.546 41.0175 271.29 41.0175 271.847 40.5316L273.544 39.0277C274.543 38.1484 275.937 38.1484 276.959 39.0277L278.748 40.601C279.306 41.0869 280.05 41.0869 280.607 40.601L282.466 38.9583C283.465 38.079 284.86 38.079 285.882 38.9583C286.114 39.1665 286.138 39.5367 285.928 39.7681C285.719 39.9995 285.347 40.0226 285.115 39.8144C284.557 39.3285 283.814 39.3285 283.256 39.8144L281.397 41.4572C280.84 41.9199 280.259 42.1281 279.655 42.1281Z" fill="#66B0F0"/>
<path d="M279.655 51.6594C279.05 51.6594 278.446 51.428 277.958 50.9884L276.169 49.415C275.612 48.9291 274.868 48.9291 274.31 49.415L272.614 50.919C271.615 51.7982 270.221 51.7982 269.198 50.919L267.641 49.5539C267.084 49.068 266.34 49.068 265.783 49.5539L264.342 50.8264C263.343 51.7057 261.949 51.7057 260.926 50.8264L259.741 49.7852C259.184 49.2993 258.44 49.2993 257.882 49.7852L256.604 50.919C255.605 51.7982 254.211 51.7982 253.189 50.919L252.004 49.8778C251.446 49.3919 250.702 49.3919 250.145 49.8778C249.912 50.086 249.54 50.0629 249.331 49.8315C249.122 49.6001 249.145 49.2299 249.378 49.0217C250.377 48.1425 251.771 48.1425 252.794 49.0217L253.979 50.0629C254.536 50.5488 255.28 50.5488 255.837 50.0629L257.115 48.9291C258.115 48.0499 259.509 48.0499 260.531 48.9291L261.716 49.9703C262.274 50.4562 263.017 50.4562 263.575 49.9703L265.016 48.6978C266.015 47.8185 267.409 47.8185 268.432 48.6978L269.988 50.0629C270.546 50.5488 271.29 50.5488 271.847 50.0629L273.544 48.5589C274.543 47.6797 275.937 47.6797 276.959 48.5589L278.748 50.1323C279.306 50.6182 280.05 50.6182 280.607 50.1323L282.466 48.4895C283.465 47.6103 284.86 47.6103 285.882 48.4895C286.114 48.6978 286.138 49.068 285.928 49.2993C285.719 49.5307 285.347 49.5539 285.115 49.3456C284.557 48.8597 283.814 48.8597 283.256 49.3456L281.397 50.9884C280.84 51.428 280.259 51.6594 279.655 51.6594Z" fill="#66B0F0"/>
<path d="M350.012 4.91992H312.741V42.0333H350.012V4.91992Z" fill="#FFCF2D"/>
<path d="M320.931 3.33629L318.232 0.00390625L308.391 7.94158L311.09 11.274L320.931 3.33629Z" fill="#FE5244"/>
<path d="M351.945 11.2571L354.647 7.92773L344.797 0.000951168L342.095 3.33035L351.945 11.2571Z" fill="#FE5244"/>
<path d="M342.135 13.7148H319.526V15.1031H342.135V13.7148Z" fill="white"/>
<path d="M342.135 19.707H319.526V21.0953H342.135V19.707Z" fill="white"/>
<path d="M342.135 25.7207H319.526V27.1089H342.135V25.7207Z" fill="white"/>
<path d="M342.135 31.7148H319.526V33.1031H342.135V31.7148Z" fill="white"/>
<path d="M378.457 404.179C377.917 404.02 377.618 403.94 377.618 403.94L371.085 425.244L346.494 418.819C346.295 418.64 346.195 418.541 346.195 418.541C346.195 418.541 246.612 340.823 241.378 303.525C236.164 266.228 277.875 230.84 277.875 230.84C277.875 230.84 366.83 398.271 377.837 403.741C378.057 403.861 378.277 404 378.457 404.179Z" fill="#E57281"/>
<path d="M298.931 270.008C295.814 286.618 284.867 320.255 273.541 352.799C256.76 334.796 243.216 316.635 241.378 303.506C238.062 279.874 253.624 256.979 265.45 243.412C269.785 239.951 274.459 236.768 279.513 233.924C282.61 239.712 289.781 253.12 298.931 270.008Z" fill="#9A3B82"/>
<path d="M434.351 418.522L397.774 441.895L387.166 440.304L377.398 446.47L380.554 452.915L364.473 463.199C343.158 443.884 346.174 418.761 346.174 418.761L371.065 425.265L377.597 403.961C377.597 403.961 399.951 410.466 416.452 409.909C432.992 409.352 434.351 418.522 434.351 418.522Z" fill="white"/>
<path fill-rule="evenodd" clip-rule="evenodd" d="M377.197 403.223L377.765 403.388L377.597 403.961C377.765 403.388 377.765 403.388 377.765 403.388L377.781 403.392L377.828 403.406C377.87 403.418 377.933 403.436 378.016 403.46C378.183 403.507 378.429 403.576 378.749 403.664C379.39 403.84 380.324 404.091 381.497 404.39C383.843 404.99 387.143 405.783 390.957 406.559C398.595 408.113 408.253 409.588 416.431 409.312C424.816 409.03 429.46 411.213 432.011 413.569C433.281 414.742 434.012 415.939 434.426 416.852C434.633 417.308 434.761 417.694 434.838 417.97C434.876 418.108 434.902 418.218 434.918 418.298C434.926 418.337 434.932 418.369 434.936 418.392C434.938 418.403 434.94 418.413 434.941 418.42L434.943 418.429L434.943 418.432L434.943 418.434C434.943 418.434 434.944 418.435 434.351 418.522L434.944 418.435L435 418.816L397.907 442.518L387.298 440.927L378.171 446.688L381.326 453.13L364.41 463.949L364.069 463.641C353.3 453.882 348.675 442.651 346.745 433.864C345.78 429.472 345.488 425.688 345.437 422.999C345.411 421.654 345.446 420.583 345.488 419.844C345.509 419.475 345.531 419.189 345.549 418.994C345.557 418.897 345.565 418.822 345.57 418.771C345.573 418.745 345.575 418.726 345.577 418.712L345.578 418.696L345.579 418.692L345.579 418.69C345.579 418.69 345.579 418.69 346.174 418.76L345.579 418.69L345.661 418.009L370.66 424.542L377.197 403.223ZM346.71 419.517C346.701 419.634 346.693 419.766 346.685 419.911C346.645 420.622 346.61 421.664 346.635 422.977C346.685 425.602 346.971 429.306 347.916 433.609C349.786 442.12 354.234 452.965 364.538 462.449L379.782 452.7L376.624 446.252L387.034 439.68L397.64 441.271L433.671 418.247C433.607 418.026 433.502 417.714 433.334 417.343C432.976 416.554 432.334 415.494 431.196 414.444C428.933 412.354 424.627 410.23 416.472 410.505C408.15 410.786 398.381 409.287 390.717 407.728C386.88 406.948 383.56 406.15 381.199 405.547C380.018 405.245 379.077 404.992 378.431 404.815C378.268 404.77 378.124 404.73 377.999 404.695L371.47 425.988L346.71 419.517Z" fill="#FE5244"/>
<path fill-rule="evenodd" clip-rule="evenodd" d="M393.299 406.023C393.249 405.58 393.174 404.955 393.073 404.211C392.867 402.7 392.552 400.69 392.114 398.707C391.678 396.735 391.112 394.748 390.392 393.305C390.033 392.587 389.613 391.954 389.111 391.532C388.59 391.094 387.949 390.862 387.233 391.05L387.231 391.051L387.23 391.051C386.515 391.243 386.052 391.78 385.778 392.427C385.507 393.064 385.392 393.859 385.381 394.714C385.358 396.43 385.754 398.557 386.401 400.569C387.047 402.58 387.964 404.537 389.026 405.894C389.555 406.571 390.149 407.134 390.796 407.463C391.461 407.802 392.195 407.895 392.927 407.596C394.164 407.091 395.328 405.934 396.359 404.589C397.404 403.226 398.37 401.593 399.191 400.033C400.013 398.469 400.697 396.964 401.175 395.851C401.415 395.294 401.603 394.834 401.731 394.513C401.796 394.352 401.845 394.226 401.879 394.14C401.895 394.097 401.908 394.064 401.917 394.041L401.927 394.015L401.93 394.006L401.93 394.006C401.93 394.006 401.93 394.006 401.369 393.795C400.808 393.585 400.808 393.585 400.808 393.585L400.808 393.586L400.808 393.587L400.806 393.593L400.797 393.616C400.789 393.637 400.777 393.668 400.761 393.71C400.729 393.792 400.681 393.915 400.618 394.071C400.493 394.384 400.308 394.835 400.073 395.382C399.603 396.476 398.933 397.951 398.129 399.479C397.324 401.009 396.394 402.577 395.407 403.865C394.697 404.791 393.985 405.534 393.299 406.023ZM392.154 406.575C391.899 406.604 391.632 406.548 391.341 406.4C390.909 406.181 390.444 405.765 389.971 405.16C389.028 403.954 388.164 402.141 387.542 400.205C386.921 398.272 386.559 396.277 386.579 394.729C386.589 393.952 386.695 393.329 386.881 392.892C387.063 392.464 387.292 392.271 387.54 392.204C387.788 392.139 388.037 392.191 388.338 392.444C388.658 392.713 388.99 393.179 389.318 393.836C389.971 395.144 390.512 397.015 390.943 398.964C391.372 400.903 391.682 402.878 391.885 404.371C391.987 405.117 392.061 405.741 392.11 406.178C392.128 406.335 392.143 406.469 392.154 406.575Z" fill="#FE5244"/>
<path fill-rule="evenodd" clip-rule="evenodd" d="M433.149 415.844L398.339 437.486L386.786 435.635L374.662 442.851L349.98 442.471L349.999 441.277L374.339 441.653L386.546 434.388L398.086 436.237L432.515 414.832L433.149 415.844Z" fill="#FE5244"/>
<path fill-rule="evenodd" clip-rule="evenodd" d="M384.842 416.328L387.12 405.766L388.292 406.016L386.014 416.579L384.842 416.328Z" fill="#FE5244"/>
<path fill-rule="evenodd" clip-rule="evenodd" d="M389.797 417.522L392.074 406.959L393.246 407.21L390.969 417.772L389.797 417.522Z" fill="#FE5244"/>
<path fill-rule="evenodd" clip-rule="evenodd" d="M394.971 418.377L397.248 407.814L398.42 408.065L396.143 418.628L394.971 418.377Z" fill="#FE5244"/>
<path d="M269.425 222.705C269.425 222.705 284.068 229.508 284.068 254.453C284.068 278.562 228.174 426.2 228.174 426.2L210.974 440.722L193.515 421.685C202.045 413.609 177.553 267.601 269.425 222.705Z" fill="#E57281"/>
<path d="M267.868 469.007L224.399 469.047L216.328 462.005L204.762 461.945L203.923 469.067L186.883 469.087C177.614 440.363 193.595 421.664 193.595 421.664L210.935 440.681L228.255 426.18C228.255 426.18 243.277 443.724 257.46 452.119C271.683 460.533 267.868 469.007 267.868 469.007Z" fill="white"/>
<path fill-rule="evenodd" clip-rule="evenodd" d="M193.58 420.76L210.99 439.854L228.324 425.341L228.71 425.792L228.254 426.179C228.71 425.792 228.71 425.792 228.71 425.792L228.72 425.804L228.752 425.841C228.781 425.874 228.823 425.923 228.879 425.987C228.992 426.117 229.159 426.308 229.377 426.555C229.813 427.049 230.453 427.764 231.265 428.649C232.89 430.419 235.204 432.867 237.959 435.576C243.478 441.002 250.738 447.446 257.766 451.605C264.977 455.871 267.704 460.208 268.578 463.568C269.012 465.24 268.98 466.644 268.835 467.637C268.762 468.133 268.661 468.527 268.577 468.801C268.534 468.938 268.496 469.046 268.467 469.121C268.46 469.141 268.453 469.158 268.447 469.173C268.441 469.188 268.436 469.2 268.432 469.21C268.427 469.221 268.423 469.23 268.42 469.237L268.417 469.245L268.415 469.25C268.415 469.25 268.414 469.251 267.868 469.006L268.414 469.251L268.256 469.603L224.174 469.643L216.101 462.6L205.295 462.544L204.456 469.662L186.446 469.683L186.312 469.269C181.632 454.766 183.324 442.777 186.196 434.41C187.631 430.23 189.359 426.955 190.732 424.722C191.418 423.606 192.015 422.749 192.443 422.17C192.657 421.88 192.829 421.659 192.948 421.509C193.008 421.435 193.054 421.378 193.087 421.339C193.103 421.319 193.115 421.305 193.124 421.294L193.134 421.282L193.137 421.279L193.138 421.277C193.138 421.277 193.139 421.277 193.595 421.663L193.139 421.277L193.58 420.76ZM193.627 422.586C193.561 422.673 193.488 422.77 193.409 422.877C192.999 423.432 192.421 424.26 191.754 425.345C190.419 427.516 188.732 430.712 187.33 434.796C184.556 442.88 182.897 454.454 187.321 468.489L203.39 468.47L204.229 461.345L216.555 461.409L224.624 468.449L267.443 468.41C267.509 468.189 267.589 467.869 267.648 467.465C267.774 466.606 267.807 465.365 267.417 463.867C266.642 460.886 264.166 456.78 257.154 452.631C249.998 448.396 242.656 441.87 237.117 436.425C234.344 433.699 232.016 431.236 230.381 429.454C229.563 428.563 228.918 427.842 228.477 427.343C228.368 427.22 228.271 427.11 228.188 427.014L210.879 441.507L193.627 422.586Z" fill="#FE5244"/>
<path fill-rule="evenodd" clip-rule="evenodd" d="M248.27 420.056C249.16 419.934 250.018 420.153 250.762 420.796C251.5 421.434 251.84 422.23 251.837 423.104C251.835 423.949 251.515 424.825 251.031 425.679C250.065 427.385 248.326 429.202 246.486 430.844C244.635 432.495 242.636 434.01 241.103 435.11C240.395 435.618 239.785 436.039 239.332 436.345C239.531 436.364 239.773 436.373 240.061 436.368C240.781 436.357 241.688 436.265 242.725 436.111C244.797 435.802 247.325 435.255 249.785 434.658C252.242 434.062 254.617 433.421 256.38 432.928C257.261 432.682 257.988 432.473 258.494 432.326C258.747 432.252 258.946 432.194 259.08 432.154C259.147 432.134 259.199 432.119 259.233 432.108L259.285 432.093C259.285 432.093 259.285 432.093 259.458 432.664C259.63 433.236 259.63 433.236 259.63 433.236L259.577 433.252C259.557 433.258 259.532 433.265 259.502 433.274C259.478 433.281 259.451 433.289 259.421 433.298C259.285 433.338 259.085 433.397 258.83 433.471C258.32 433.62 257.589 433.83 256.704 434.077C254.933 434.572 252.543 435.218 250.068 435.818C247.596 436.417 245.027 436.975 242.902 437.291C241.841 437.449 240.875 437.549 240.08 437.562C239.32 437.573 238.598 437.51 238.114 437.246C237.455 436.885 237.333 436.103 237.356 435.447C237.381 434.736 237.584 433.859 237.9 432.913C238.537 431.01 239.685 428.683 241.065 426.543C242.44 424.411 244.08 422.412 245.722 421.209C246.544 420.607 247.407 420.174 248.27 420.056ZM238.557 435.427C239.009 435.122 239.65 434.682 240.402 434.142C241.917 433.055 243.879 431.568 245.686 429.955C247.504 428.332 249.121 426.622 249.987 425.092C250.421 424.328 250.637 423.659 250.639 423.101C250.64 422.573 250.451 422.108 249.976 421.697C249.505 421.29 248.997 421.161 248.433 421.238C247.844 421.319 247.168 421.631 246.433 422.17C244.961 423.248 243.415 425.108 242.073 427.188C240.736 429.261 239.637 431.499 239.038 433.29C238.748 434.156 238.586 434.886 238.557 435.427Z" fill="#FE5244"/>
<path fill-rule="evenodd" clip-rule="evenodd" d="M184.265 444.189L184.905 443.18L205.154 455.898H219.362L228.332 463.397H268.207V464.591H227.895L218.926 457.092H204.808L184.265 444.189Z" fill="#FE5244"/>
<path fill-rule="evenodd" clip-rule="evenodd" d="M226.272 439.484L233.943 431.846L234.791 432.69L227.12 440.328L226.272 439.484Z" fill="#FE5244"/>
<path fill-rule="evenodd" clip-rule="evenodd" d="M229.787 443.164L237.458 435.525L238.306 436.369L230.635 444.008L229.787 443.164Z" fill="#FE5244"/>
<path fill-rule="evenodd" clip-rule="evenodd" d="M233.664 446.666L241.335 439.027L242.182 439.871L234.511 447.51L233.664 446.666Z" fill="#FE5244"/>
<path d="M269.425 222.705C234.885 239.574 216.787 270.764 207.218 303.526H102.401C75.5726 303.526 55.5761 278.88 61.2294 252.762L68.9204 217.195H251.166C257.918 217.195 264.191 219.224 269.425 222.705Z" fill="#FE5244"/>
<path d="M191.595 256.798L229.331 256.719L223.738 265.849L191.595 256.798Z" fill="#E57281"/>
<path fill-rule="evenodd" clip-rule="evenodd" d="M108.675 216.61C109 216.678 109.207 216.994 109.14 217.316L107.682 224.278C107.682 224.278 107.682 224.278 107.682 224.278C104.243 240.717 116.825 256.143 133.684 256.143H229.004C239.061 242.274 252.185 230.362 269.36 221.97C269.657 221.825 270.016 221.947 270.162 222.243C270.308 222.539 270.185 222.896 269.888 223.041C252.806 231.388 239.775 243.255 229.798 257.088L229.619 257.337H133.684C116.063 257.337 102.915 241.214 106.508 224.035L107.966 217.073C108.034 216.75 108.351 216.543 108.675 216.61Z" fill="white"/>
<path fill-rule="evenodd" clip-rule="evenodd" d="M191.021 256.616C191.112 256.299 191.444 256.116 191.762 256.207L224.252 265.491L223.855 266.156C216.875 277.859 211.739 290.641 207.934 303.673C207.842 303.99 207.509 304.172 207.191 304.08C206.873 303.988 206.691 303.657 206.783 303.34C210.537 290.48 215.588 277.839 222.43 266.212L191.432 257.354C191.114 257.263 190.93 256.933 191.021 256.616Z" fill="white"/>
<path d="M44.4293 121.653L63.6267 196.646H27.8088C6.95327 196.646 -6.47096 174.586 3.19769 156.186L30.7054 103.81C38.4962 88.9908 53.8981 79.7012 70.6984 79.7012H77.1908C55.1367 79.6813 38.9757 100.369 44.4293 121.653Z" fill="#3FB1B5"/>
<path d="M265.49 102.198C276.777 102.198 286.166 100.706 288.443 98.6176L253.424 174.207C247.092 187.893 233.328 196.645 218.205 196.645C213.771 196.645 209.416 195.89 205.301 194.437C201.185 192.985 197.31 190.857 193.854 188.072L171.78 170.328C171.78 170.328 169.583 183.198 153.901 186.481V217.154H68.901L44.4297 121.633C38.9761 100.348 55.1371 79.6406 77.1912 79.6406H136.701C141.955 79.6406 147.129 80.2971 152.123 81.5701C165.787 85.0314 178.053 93.028 186.722 104.486L215.808 142.917L241.938 97.444C241.938 97.4838 241.918 97.5434 241.918 97.5832C241.938 100.229 252.505 102.198 265.49 102.198Z" fill="#3FB1B5"/>
<path fill-rule="evenodd" clip-rule="evenodd" d="M44.0853 121.072C44.4065 120.993 44.7315 121.188 44.811 121.508L63.609 197.098C63.6885 197.418 63.4926 197.741 63.1713 197.821C62.85 197.9 62.5251 197.705 62.4455 197.385L43.6476 121.795C43.568 121.475 43.764 121.152 44.0853 121.072Z" fill="white"/>
<path fill-rule="evenodd" clip-rule="evenodd" d="M154.868 153.205C155.109 152.979 155.489 152.991 155.715 153.231L172.416 170.935C172.642 171.175 172.63 171.553 172.389 171.779C172.148 172.004 171.769 171.992 171.542 171.752L154.842 154.048C154.615 153.808 154.627 153.43 154.868 153.205Z" fill="white"/>
<path d="M288.963 97.5042L288.443 98.6182C286.166 100.727 276.777 102.199 265.49 102.199C252.506 102.199 241.938 100.229 241.938 97.6236C241.938 97.5838 241.938 97.5241 241.958 97.4843C242.318 94.9381 252.745 92.75 265.51 92.75C278.255 92.75 288.603 94.9381 288.963 97.5042C288.963 97.4843 288.963 97.4843 288.963 97.5042Z" fill="#FE5244"/>
<path d="M299.429 59.3108C299.429 60.4447 299.149 61.5586 298.63 62.5333C298.11 63.5081 297.351 64.3634 296.412 65.0198L295.953 65.3381L292.377 84.335C291.798 87.4182 289.96 90.1434 287.303 91.8343L282.409 94.9374L278.533 97.404L276.736 101.681C273.399 102.019 269.584 102.218 265.509 102.218C261.394 102.218 257.518 102.019 254.142 101.661V72.2009C254.142 70.9278 254.422 69.6746 254.961 68.5208L261.473 54.5566C261.473 54.5566 268.585 56.3071 265.309 65C262.332 72.8971 269.124 70.8681 272.94 69.4557C276.356 68.1827 291.278 60.6237 297.112 57.8587C298.19 57.3415 299.429 58.1372 299.429 59.3108Z" fill="#E57281"/>
<path fill-rule="evenodd" clip-rule="evenodd" d="M293.289 76.6238C293.56 76.6743 293.738 76.9341 293.688 77.2041C293.083 80.4229 291.164 83.2466 288.392 85.0111L279.622 90.5811C279.389 90.7288 279.08 90.6608 278.932 90.4292C278.784 90.1977 278.852 89.8902 279.084 89.7425L287.854 84.173C290.395 82.5559 292.152 79.9689 292.706 77.0212C292.757 76.7512 293.017 76.5733 293.289 76.6238Z" fill="#9A3B82"/>
<path fill-rule="evenodd" clip-rule="evenodd" d="M294.727 68.5691C294.998 68.6196 295.177 68.8794 295.126 69.1494C294.521 72.3682 292.603 75.1919 289.83 76.9564L281.06 82.5264C280.827 82.6741 280.519 82.6061 280.37 82.3745C280.222 82.143 280.29 81.8355 280.523 81.6878L289.292 76.1183C289.292 76.1183 289.292 76.1182 289.292 76.1181C289.292 76.1181 289.292 76.1181 289.292 76.1181C291.833 74.501 293.59 71.914 294.144 68.9665C294.195 68.6965 294.456 68.5186 294.727 68.5691Z" fill="#9A3B82"/>
<path fill-rule="evenodd" clip-rule="evenodd" d="M295.735 65.2895C295.883 65.5214 295.814 65.8287 295.581 65.9759L281.478 74.8875C281.245 75.0347 280.936 74.966 280.788 74.7341C280.64 74.5022 280.709 74.1949 280.942 74.0477L295.046 65.1361C295.279 64.9889 295.587 65.0576 295.735 65.2895Z" fill="#9A3B82"/>
<path d="M283.169 94.4409L282.39 94.9382L278.514 97.4048L276.716 101.682C273.38 102.02 269.565 102.219 265.49 102.219C261.374 102.219 257.499 102.02 254.123 101.662V93.3866C257.499 92.9888 261.374 92.77 265.49 92.77C272.541 92.7501 278.854 93.4065 283.169 94.4409Z" fill="#9A3B82"/>
<path d="M150.266 81.1132C147.37 84.9922 136.583 94.1226 100.265 94.1226C53.5401 94.1226 83.445 79.7208 83.445 79.7208L103.262 46.7598L124.517 59.7492V70.1925C124.517 75.4639 128.812 79.7208 134.085 79.7208H135.464C140.418 79.7009 145.532 79.9197 150.266 81.1132Z" fill="#E57281"/>
<path d="M124.498 59.7297V62.3952L83.4258 79.7013L103.243 46.7402L124.498 59.7297Z" fill="#9A3B82"/>
<path d="M125.614 61.0218H130.129C134.284 61.0218 137.66 57.6601 137.66 53.5226V28.4785H110.711V46.1824C110.711 54.3779 117.384 61.0218 125.614 61.0218Z" fill="#E57281"/>
<path fill-rule="evenodd" clip-rule="evenodd" d="M133.457 49.832L133.457 49.8316L133.456 49.831L133.456 49.8302C133.456 49.83 133.456 49.83 133.456 49.8303C133.456 49.8303 133.456 49.8303 133.456 49.8304M133.456 49.8304C133.456 49.8305 133.456 49.8306 133.456 49.8307C133.457 49.832 133.459 49.835 133.462 49.8397C133.468 49.8491 133.478 49.8651 133.493 49.8868C133.523 49.9302 133.57 49.9961 133.637 50.0771C133.771 50.2393 133.979 50.46 134.27 50.6818C134.847 51.122 135.756 51.5739 137.08 51.5739C137.356 51.5739 137.58 51.7965 137.58 52.0712C137.58 52.3458 137.356 52.5685 137.08 52.5685C135.508 52.5685 134.389 52.0258 133.663 51.4713C133.302 51.1958 133.039 50.9192 132.865 50.7085C132.778 50.603 132.713 50.5134 132.668 50.4481C132.646 50.4154 132.628 50.3886 132.616 50.3689C132.61 50.359 132.605 50.3509 132.601 50.3446L132.596 50.3366L132.594 50.3336L132.594 50.3325L132.593 50.3319C132.593 50.3317 132.593 50.3315 133.025 50.0819" fill="#73325A"/>
<path d="M134.462 44.0534C134.992 44.0534 135.421 43.2251 135.421 42.2034C135.421 41.1818 134.992 40.3535 134.462 40.3535C133.933 40.3535 133.503 41.1818 133.503 42.2034C133.503 43.2251 133.933 44.0534 134.462 44.0534Z" fill="#73325A"/>
<path d="M115.847 31.0858C115.847 31.0858 138.081 44.4533 145.312 32.8164C151.665 22.6118 123.518 17.3603 113.689 17.3206C103.002 17.2808 88.8385 21.9952 89.0782 37.6502C89.278 50.5402 89.8173 69.3979 82.1463 66.1157C54.8584 54.459 30.6069 66.6329 30.527 89.8269C30.4471 113.021 57.4753 115.189 58.1545 109.202C58.8537 103.234 41.3743 104.607 43.7315 120.103C46.0688 135.598 56.4965 154.973 80.3085 154.973C109.075 154.993 127.393 117.278 109.594 113.439C95.9501 110.495 123.498 136.712 131.668 109.46C140.458 80.1197 108.695 70.5118 107.916 52.788C107.137 35.0642 115.847 31.0858 115.847 31.0858Z" fill="#FFCF2D"/>
<path fill-rule="evenodd" clip-rule="evenodd" d="M97.0142 21.1819C101.968 17.982 108.287 16.8024 113.691 16.8225C118.659 16.8426 128.208 18.1742 135.733 20.7864C139.486 22.0893 142.807 23.7341 144.79 25.7468C145.787 26.7595 146.471 27.8912 146.673 29.1427C146.877 30.4022 146.582 31.72 145.737 33.0774C143.832 36.142 140.935 37.5507 137.719 37.9481C134.521 38.3433 130.988 37.7438 127.727 36.7914C124.459 35.8372 121.427 34.5173 119.214 33.4386C118.107 32.8987 117.203 32.418 116.574 32.0719C116.26 31.8987 116.015 31.7592 115.848 31.6626C115.843 31.6601 115.839 31.6577 115.835 31.6553C115.804 31.6732 115.77 31.6932 115.734 31.7155C115.515 31.848 115.196 32.0599 114.813 32.3698C114.046 32.9893 113.018 34.0019 112.009 35.5594C109.993 38.6695 108.029 43.9895 108.415 52.7655C108.603 57.046 110.662 60.8704 113.589 64.6919C115.051 66.601 116.719 68.4961 118.464 70.4399C118.761 70.7707 119.06 71.1031 119.36 71.437C120.822 73.0608 122.319 74.7237 123.764 76.4486C127.249 80.6091 130.466 85.1717 132.249 90.5633C134.036 95.9667 134.372 102.173 132.147 109.602C130.076 116.508 126.743 120.13 123.041 121.625C121.085 122.415 119.059 122.596 117.115 122.38C117.198 126.427 115.644 131.243 112.842 135.908C106.829 145.918 94.9148 155.48 80.3081 155.47C68.2476 155.47 59.5528 150.556 53.5888 143.673C47.6369 136.804 44.4164 127.992 43.2375 120.176C42.6652 116.413 43.2303 113.422 44.4518 111.139C44.2586 111.068 44.0653 110.995 43.8722 110.919C36.8857 108.165 29.9867 101.663 30.0275 89.8245C30.0681 78.0332 36.2645 69.0188 45.9193 64.4523C55.5588 59.8931 68.5964 59.7856 82.3431 65.6579L82.3434 65.658C83.2226 66.0342 83.9273 66.0706 84.5039 65.8887C85.0845 65.7057 85.6093 65.2782 86.0801 64.5857C87.0356 63.1803 87.6706 60.8283 88.0687 57.8805C88.8145 52.36 88.6972 45.0504 88.5973 38.8243C88.591 38.4307 88.5847 38.0414 88.5788 37.657C88.4561 29.6485 92.0317 24.4 97.0142 21.1819ZM45.41 111.466C44.2522 113.55 43.6677 116.363 44.2252 120.027L44.2253 120.028C45.3836 127.708 48.5456 136.331 54.345 143.023C60.1321 149.702 68.5571 154.475 80.3084 154.475H80.3088C94.4682 154.485 106.097 145.199 111.985 135.397C114.771 130.758 116.237 126.059 116.111 122.233C114.751 121.985 113.445 121.555 112.246 121.018C110.653 120.304 109.234 119.395 108.107 118.452C106.987 117.515 106.127 116.52 105.689 115.624C105.47 115.177 105.338 114.717 105.366 114.281C105.395 113.823 105.602 113.418 106 113.135C106.377 112.867 106.885 112.737 107.482 112.711C108.085 112.685 108.822 112.763 109.7 112.952C112.02 113.453 113.786 114.515 115.013 116.011C116.21 117.472 116.867 119.313 117.058 121.372C118.915 121.602 120.833 121.443 122.666 120.703C126 119.357 129.175 116.037 131.189 109.317C133.359 102.076 133.021 96.0784 131.3 90.8744C129.575 85.6586 126.451 81.2101 122.997 77.0856C121.564 75.3755 120.081 73.7282 118.62 72.1046C118.318 71.7697 118.018 71.4358 117.719 71.1026C115.974 69.158 114.283 67.2377 112.795 65.2951C109.822 61.4134 107.618 57.3905 107.417 52.809C107.024 43.8613 109.025 38.3302 111.169 35.0201C112.24 33.3676 113.341 32.2778 114.183 31.5975C114.604 31.2575 114.96 31.0201 115.214 30.8658C115.342 30.7887 115.444 30.7324 115.516 30.6944C115.552 30.6754 115.58 30.661 115.601 30.6509C115.611 30.6458 115.62 30.6418 115.626 30.6389L115.634 30.6352L115.638 30.6335C115.638 30.6333 115.638 30.6331 115.847 31.0851L115.638 30.6331L115.879 30.5234L116.105 30.6594L116.098 30.6705C116.105 30.6594 116.105 30.6594 116.105 30.6594L116.105 30.6597L116.108 30.6613L116.119 30.6679C116.129 30.674 116.145 30.6831 116.165 30.6952C116.206 30.7194 116.268 30.7554 116.349 30.8022C116.511 30.8957 116.75 31.032 117.058 31.2016C117.674 31.541 118.563 32.0138 119.653 32.5453C121.836 33.6093 124.813 34.904 128.008 35.837C131.209 36.7719 134.591 37.3323 137.596 36.9611C140.582 36.592 143.176 35.3078 144.887 32.554L144.888 32.5537C145.631 31.3601 145.846 30.2816 145.687 29.3006C145.527 28.3115 144.978 27.3584 144.076 26.4432C142.261 24.5999 139.122 23.0161 135.404 21.7255C127.987 19.1509 118.548 17.8368 113.687 17.8171M116.037 121.206C115.831 119.409 115.237 117.858 114.239 116.64C113.173 115.34 111.617 114.383 109.488 113.924C108.661 113.746 108.014 113.683 107.525 113.704C107.031 113.726 106.74 113.831 106.58 113.944C106.441 114.043 106.374 114.167 106.363 114.345C106.35 114.545 106.41 114.827 106.587 115.189C106.94 115.911 107.686 116.8 108.749 117.69C109.806 118.574 111.147 119.435 112.656 120.111C113.72 120.588 114.86 120.97 116.037 121.206ZM45.41 111.466C48.3735 112.408 51.275 112.7 53.5923 112.456C54.9487 112.313 56.1357 111.984 57.0213 111.468C57.9095 110.951 58.542 110.212 58.6506 109.258C58.7528 108.384 58.5205 107.619 58.028 107.009C57.5433 106.409 56.8316 105.988 56.0134 105.733C54.3815 105.225 52.2183 105.34 50.1412 106.139C48.2092 106.882 46.3197 108.229 44.9708 110.268C44.7273 110.182 44.4836 110.09 44.2398 109.994C37.5624 107.362 30.9872 101.184 31.0263 89.8279C31.0656 78.4251 37.035 69.7555 46.3478 65.3507C55.676 60.9387 68.408 60.7875 81.9491 66.5718C82.9877 67.0162 83.9441 67.1085 84.8055 66.8369C85.6629 66.5666 86.3529 65.9586 86.9072 65.1433C88.0018 63.5333 88.6578 60.9806 89.0587 58.0131C89.8149 52.4148 89.6962 45.0345 89.5964 38.8326C89.5899 38.4304 89.5835 38.0332 89.5775 37.6419C89.4604 29.9954 92.8466 25.0591 97.5577 22.0163C102.297 18.9552 108.404 17.7975 113.687 17.8171M45.9559 110.594C47.1665 108.869 48.8125 107.716 50.5011 107.067C52.4119 106.331 54.3401 106.254 55.7152 106.682C56.4006 106.896 56.9213 107.226 57.2496 107.632C57.5697 108.029 57.7307 108.526 57.6584 109.143L57.6582 109.145C57.5967 109.687 57.2361 110.191 56.5168 110.61C55.7946 111.031 54.7592 111.333 53.4874 111.467C51.3829 111.688 48.7151 111.438 45.9559 110.594Z" fill="white"/>
<path fill-rule="evenodd" clip-rule="evenodd" d="M130.19 42.3244H114.289V41.1309H130.19V42.3244Z" fill="#3FB1B5"/>
<path fill-rule="evenodd" clip-rule="evenodd" d="M135.085 37.1525C133.053 37.1525 131.169 39.321 131.169 42.3244C131.169 45.3279 133.053 47.4964 135.085 47.4964C137.117 47.4964 139 45.3279 139 42.3244C139 39.321 137.117 37.1525 135.085 37.1525ZM129.971 42.3244C129.971 38.956 132.13 35.959 135.085 35.959C138.04 35.959 140.199 38.956 140.199 42.3244C140.199 45.6929 138.04 48.6899 135.085 48.6899C132.13 48.6899 129.971 45.6929 129.971 42.3244Z" fill="#3FB1B5"/>
<path fill-rule="evenodd" clip-rule="evenodd" d="M110.433 13.9181C108.229 13.9181 106.458 15.6981 106.458 17.8766V34.6257H105.259V17.8766C105.259 15.0424 107.563 12.7246 110.433 12.7246H115.427C118.274 12.7246 120.601 15.0191 120.601 17.8766H119.403C119.403 15.6816 117.615 13.9181 115.427 13.9181H110.433Z" fill="#66B0F0"/>
<path d="M110.673 53.0669H101.065C98.6075 53.0669 96.6099 51.0777 96.6099 48.6309V39.0629C96.6099 36.6162 98.6075 34.627 101.065 34.627H110.673C113.13 34.627 115.128 36.6162 115.128 39.0629V48.6309C115.108 51.0777 113.13 53.0669 110.673 53.0669Z" fill="white"/>
<path fill-rule="evenodd" clip-rule="evenodd" d="M101.064 35.2228C98.9382 35.2228 97.2088 36.9448 97.2088 39.062V48.63C97.2088 50.7472 98.9382 52.4692 101.064 52.4692H110.673C112.794 52.4692 114.51 50.7518 114.529 48.6275V39.062C114.529 36.9448 112.799 35.2228 110.673 35.2228H101.064ZM96.0103 39.062C96.0103 36.2857 98.2762 34.0293 101.064 34.0293H110.673C113.461 34.0293 115.727 36.2857 115.727 39.062V48.6324L115.727 48.6349C115.704 51.403 113.466 53.6627 110.673 53.6627H101.064C98.2762 53.6627 96.0103 51.4063 96.0103 48.63V39.062Z" fill="#66B0F0"/>
<path d="M108.176 49.9032H103.481C101.464 49.9032 99.8057 48.272 99.8057 46.243V41.5684C99.8057 39.5593 101.444 37.9082 103.481 37.9082H108.176C110.193 37.9082 111.852 39.5394 111.852 41.5684V46.243C111.852 48.272 110.213 49.9032 108.176 49.9032Z" fill="white"/>
<path fill-rule="evenodd" clip-rule="evenodd" d="M103.482 38.506C101.778 38.506 100.406 39.8878 100.406 41.5694V46.244C100.406 47.9413 101.793 49.3074 103.482 49.3074H108.177C109.883 49.3074 111.253 47.9434 111.253 46.244V41.5694C111.253 39.8721 109.865 38.506 108.177 38.506H103.482ZM99.207 41.5694C99.207 39.2328 101.111 37.3125 103.482 37.3125H108.177C110.523 37.3125 112.452 39.2087 112.452 41.5694V46.244C112.452 48.6026 110.545 50.5009 108.177 50.5009H103.482C101.136 50.5009 99.207 48.6047 99.207 46.244V41.5694Z" fill="#66B0F0"/>
<path fill-rule="evenodd" clip-rule="evenodd" d="M101.204 49.0853L109.554 38.0254L110.512 38.7426L102.162 49.8025L101.204 49.0853Z" fill="#66B0F0"/>
<path fill-rule="evenodd" clip-rule="evenodd" d="M99.5674 47.1946L106.799 37.6465L107.756 38.3651L100.524 47.9132L99.5674 47.1946Z" fill="#66B0F0"/>
<path fill-rule="evenodd" clip-rule="evenodd" d="M103.94 49.5423L111.172 39.9941L112.129 40.7128L104.897 50.261L103.94 49.5423Z" fill="#66B0F0"/>
<path fill-rule="evenodd" clip-rule="evenodd" d="M106.839 49.5422L111.374 43.5547L112.331 44.2733L107.796 50.2608L106.839 49.5422Z" fill="#66B0F0"/>
<path fill-rule="evenodd" clip-rule="evenodd" d="M99.3477 43.5942L103.862 37.6465L104.818 38.3662L100.304 44.3139L99.3477 43.5942Z" fill="#66B0F0"/>
<path fill-rule="evenodd" clip-rule="evenodd" d="M98.1471 325.802V314.842H99.3457V325.802C99.3457 331.423 94.7625 335.987 89.1177 335.987H64.4268V334.793H89.1177C94.1005 334.793 98.1471 330.764 98.1471 325.802Z" fill="#66B0F0"/>
<path fill-rule="evenodd" clip-rule="evenodd" d="M107.358 415.515V314.961H108.556V415.515H107.358Z" fill="#66B0F0"/>
<path fill-rule="evenodd" clip-rule="evenodd" d="M102.903 416.111C81.2201 416.111 63.8485 430.393 63.8485 447.76H62.6499C62.6499 429.519 80.7965 414.918 102.903 414.918H112.851C134.957 414.918 153.104 429.519 153.104 447.76H151.905C151.905 430.393 134.533 416.111 112.851 416.111H102.903Z" fill="#66B0F0"/>
<path d="M204.022 316.493H58.9927C51.7213 316.493 45.8481 310.625 45.8481 303.404H207.458L204.022 316.493Z" fill="#FFCF2D"/>
<path d="M62.3705 469.084C68.2841 469.084 73.078 464.31 73.078 458.422C73.078 452.533 68.2841 447.76 62.3705 447.76C56.457 447.76 51.6631 452.533 51.6631 458.422C51.6631 464.31 56.457 469.084 62.3705 469.084Z" fill="#FFCF2D"/>
<path d="M56.9155 338.115H78.4103C80.1682 338.115 81.5865 336.703 81.5865 334.952V334.714C81.5865 332.963 80.1682 331.551 78.4103 331.551H56.9155C55.1576 331.551 53.7393 332.963 53.7393 334.714V334.952C53.7393 336.703 55.1576 338.115 56.9155 338.115Z" fill="#FFCF2D"/>
<path fill-rule="evenodd" clip-rule="evenodd" d="M12.044 211.285C9.38832 203.856 14.9108 196.047 22.8366 196.047H98.4877C105.853 196.047 112.411 200.662 114.893 207.562L114.894 207.563L149.599 304.399H45.4272L12.044 211.285ZM13.1731 210.885C10.7952 204.231 15.7404 197.24 22.8366 197.24H98.4877C105.345 197.24 111.453 201.537 113.765 207.965L147.898 303.205H46.272L13.1732 210.885C13.1732 210.885 13.1731 210.885 13.1731 210.885Z" fill="#FFCF2D"/>
<path fill-rule="evenodd" clip-rule="evenodd" d="M15.2461 199.607H91.836C98.9618 199.607 105.3 204.063 107.702 210.745L107.703 210.745L141.249 304.399H50.9441V303.205H139.549L106.574 211.147C104.342 204.939 98.4541 200.801 91.836 200.801H15.2461V199.607Z" fill="#FFCF2D"/>
<path d="M152.324 469.084C158.238 469.084 163.032 464.31 163.032 458.422C163.032 452.533 158.238 447.76 152.324 447.76C146.411 447.76 141.617 452.533 141.617 458.422C141.617 464.31 146.411 469.084 152.324 469.084Z" fill="#FFCF2D"/>
</svg>
