<svg width="495" height="554" viewBox="0 0 495 554" fill="none" xmlns="http://www.w3.org/2000/svg">
<path d="M157.959 429.042L161.202 437.911L176.19 478.817C181.813 482.799 188.913 485.358 196.877 485.358C197.817 485.358 198.949 485.127 199.909 485.07C208.238 484.492 216.221 480.837 221.748 476.181L217.276 426.848L216.95 423.27C192.789 432.659 164.618 431.081 157.959 429.042Z" fill="#E57281"/>
<path d="M157.959 429.042L164.311 446.358C183.693 448.994 212.095 433.101 217.257 426.848L216.931 423.27C192.79 432.659 164.618 431.081 157.959 429.042Z" fill="#9A3B82"/>
<path d="M175.883 478.758L180.47 526.916C181.295 539.615 191.005 549.332 202.519 549.332C203.037 549.332 203.555 549.312 204.093 549.274C216.298 548.35 225.49 536.825 224.626 523.549L221.844 480.99L221.556 476.43C219.1 478.739 216.24 480.72 213.074 482.259C209.101 484.184 204.669 485.434 199.929 485.8C198.969 485.877 198.029 485.915 197.088 485.915C194.363 485.915 191.696 485.607 189.163 485.03C189.086 485.011 188.99 484.992 188.913 484.972C184.173 483.856 179.836 481.798 176.229 479.008C176.094 478.931 175.979 478.854 175.883 478.758Z" fill="white"/>
<path d="M202.519 549.812C203.056 549.812 203.575 549.793 204.131 549.754C216.586 548.812 225.989 537.036 225.106 523.511L222.324 480.951L221.978 475.371L221.23 476.064C218.773 478.373 215.952 480.316 212.863 481.817C208.794 483.779 204.438 484.953 199.89 485.318C198.931 485.395 198.009 485.434 197.088 485.434C194.44 485.434 191.811 485.145 189.278 484.568C189.239 484.568 189.201 484.549 189.143 484.529C189.105 484.529 189.067 484.51 189.028 484.51C184.403 483.433 180.086 481.393 176.516 478.623L176.459 478.584C176.344 478.507 176.267 478.469 176.209 478.411L175.269 477.468L179.99 526.955C180.393 533.188 182.926 538.961 187.148 543.213C191.35 547.465 196.8 549.812 202.519 549.812ZM221.134 477.468L221.364 481.028L224.147 523.587C224.991 536.594 215.972 547.907 204.054 548.792C203.517 548.831 203.018 548.85 202.519 548.85C197.069 548.85 191.849 546.618 187.819 542.539C183.77 538.441 181.333 532.881 180.949 526.878L176.459 479.777C180.028 482.413 184.288 484.376 188.798 485.434C188.836 485.434 188.875 485.453 188.932 485.472C188.971 485.472 189.009 485.492 189.048 485.492C191.677 486.088 194.363 486.396 197.088 486.396C198.048 486.396 198.988 486.357 199.967 486.28C204.63 485.915 209.121 484.722 213.285 482.702C216.144 481.297 218.793 479.546 221.134 477.468Z" fill="#FFCF2D"/>
<path d="M202.174 539.655C202.634 539.655 203.076 539.636 203.536 539.597C214.091 538.789 222.093 528.803 221.345 517.317L218.793 478.971L217.833 479.028L220.386 517.374C221.096 528.322 213.496 537.846 203.46 538.616C203.018 538.654 202.596 538.674 202.174 538.674C192.656 538.674 184.672 530.554 184.001 520.164L180.758 481.626L179.798 481.703L183.041 520.241C183.387 525.532 185.536 530.439 189.105 534.037C192.675 537.673 197.319 539.655 202.174 539.655Z" fill="#FFCF2D"/>
<path d="M188.952 484.55C191.485 485.069 194.344 485.165 197.069 485.165C198.01 485.165 198.95 485.127 199.909 485.069C204.649 484.742 209.102 483.588 213.055 481.817L214.321 475.584C215.127 472.928 213.112 470.254 210.33 470.35L191.907 470.889C189.566 470.947 187.781 472.986 187.992 475.314L188.952 484.55Z" fill="#FFCF2D"/>
<path d="M189.144 484.358L191.466 513.622C191.869 519.298 197.242 523.493 202.308 522.569L202.711 522.531C209.927 521.203 215.454 513.661 214.513 505.58L213.055 481.799C209.082 483.569 204.649 484.723 199.909 485.05C198.95 485.127 198.01 485.147 197.069 485.147C194.344 485.166 191.677 484.877 189.144 484.358Z" fill="#FFCF2D"/>
<path d="M191.964 516.546C192.003 516.546 192.041 516.546 192.079 516.526L213.093 511.716C214.475 511.408 215.031 510.235 214.974 509.234C214.916 508.215 214.244 507.099 212.824 506.925L192.732 504.559C191.676 504.424 191.235 503.616 191.178 502.962C191.12 502.308 191.408 501.423 192.406 501.115L211.654 494.996C213.208 494.496 214.148 493.13 214.072 491.495C213.976 489.859 212.882 488.609 211.289 488.281L196.129 485.646C196.839 485.646 197.568 485.626 198.316 485.607C205.091 485.395 210.118 484.414 213.285 482.663C213.515 482.529 213.592 482.24 213.477 482.009C213.342 481.778 213.054 481.701 212.824 481.817C205.589 485.819 189.354 484.453 189.182 484.433C188.932 484.414 188.702 484.587 188.664 484.857C188.625 485.107 188.798 485.357 189.067 485.395L211.116 489.224C212.517 489.513 213.074 490.648 213.112 491.552C213.17 492.437 212.728 493.65 211.366 494.092L192.118 500.211C190.679 500.672 190.122 501.981 190.237 503.058C190.333 504.155 191.12 505.348 192.636 505.521L212.728 507.887C213.649 508.003 213.995 508.715 214.033 509.292C214.052 509.869 213.784 510.6 212.901 510.793L191.888 515.603C191.638 515.661 191.465 515.911 191.523 516.18C191.542 516.392 191.753 516.546 191.964 516.546Z" fill="white"/>
<path d="M118.312 320.814L157.959 429.041C164.618 431.081 196.033 433.775 226.699 419.518L202.577 307.635C200.331 290.703 185.939 278.043 168.878 278.043H151.147C128.867 278.024 112.593 299.188 118.312 320.814Z" fill="#FE5244"/>
<path d="M170.605 419.652C173.522 419.652 176.708 419.556 180.104 419.325C191.446 418.555 208.449 416.016 225.029 408.3C225.317 408.165 225.451 407.819 225.317 407.531C225.182 407.242 224.837 407.107 224.549 407.242C193.979 421.461 159.935 418.882 153.526 416.939C153.219 416.843 152.893 417.016 152.816 417.324C152.72 417.632 152.893 417.959 153.2 418.036C155.598 418.786 161.893 419.652 170.605 419.652Z" fill="white"/>
<path d="M105.09 431.176L109.081 438.276L134.624 483.087C144.468 486.993 156.079 488.436 166.48 486.242L167.785 485.877C172.928 484.799 178.186 481.913 181.909 478.681L163.275 428.752C163.275 428.752 163.256 428.752 163.237 428.752C156.808 430.888 134.701 436.891 105.09 431.176Z" fill="#E57281"/>
<path d="M105.09 431.177L113.514 446.049C145.946 451.244 164.33 431.677 164.33 431.677L163.255 428.771C156.808 430.888 134.7 436.891 105.09 431.177Z" fill="#9A3B82"/>
<path d="M50.4355 337.976L94.6692 429.099C132.109 438.488 156.865 430.888 163.255 428.772L116.968 304.652C113.802 297.129 108.544 290.914 102.038 286.585C95.5327 282.256 87.7798 279.812 79.6431 279.812C48.8235 279.812 35.5438 310.905 50.4355 337.976Z" fill="#FE5244"/>
<path d="M125.431 424.443C129.02 424.443 132.551 424.289 136.063 424C144.43 423.308 152.432 421.749 159.226 419.498C159.533 419.402 159.686 419.075 159.59 418.767C159.494 418.459 159.168 418.305 158.861 418.402C152.164 420.614 144.238 422.153 135.967 422.846C121.21 424.077 105.685 422.692 89.8335 418.709C89.5264 418.632 89.2194 418.825 89.1426 419.133C89.0658 419.441 89.2578 419.748 89.5648 419.825C101.77 422.904 113.802 424.443 125.431 424.443Z" fill="white"/>
<path d="M117.513 304.418L185.539 488.279L184.459 488.681L116.434 304.819L117.513 304.418Z" fill="white"/>
<path d="M135.007 483.223L136.504 487.167L153.468 531.67C158.324 546.927 174.29 555.99 188.318 552.507L189.086 552.257C198.93 549.814 205.186 537.923 201.329 527.418L181.947 479.932L181.544 478.951C179.107 481.145 176.266 482.953 173.1 484.262C171.411 484.954 169.627 485.512 167.765 485.916L166.46 486.282C160.953 487.436 155.272 487.648 149.669 486.994C144.641 486.378 139.69 485.108 135.007 483.223Z" fill="white"/>
<path d="M182.12 553.738C184.25 553.738 186.361 553.488 188.433 552.969H188.472L189.22 552.718C193.941 551.545 198.086 548.158 200.581 543.445C203.267 538.384 203.69 532.478 201.77 527.263L182.388 479.759L181.736 478.143L181.237 478.604C178.8 480.798 175.998 482.568 172.927 483.819C171.239 484.511 169.473 485.05 167.669 485.454H167.65L166.364 485.819C160.991 486.935 155.387 487.186 149.746 486.512C144.737 485.896 139.843 484.646 135.199 482.78L134.182 482.375L136.063 487.34L153.027 531.823C155.387 539.25 160.435 545.523 167.228 549.525C171.93 552.314 177.073 553.738 182.12 553.738ZM188.184 552.045C181.467 553.7 174.194 552.526 167.688 548.697C161.106 544.83 156.213 538.711 153.91 531.515V531.496L136.946 486.993L135.833 484.069C140.246 485.743 144.871 486.897 149.611 487.474C155.368 488.148 161.068 487.897 166.556 486.762H166.595L167.88 486.397C169.742 485.993 171.546 485.435 173.273 484.723C176.228 483.491 178.953 481.837 181.352 479.778L181.505 480.144L200.888 527.629C202.711 532.593 202.289 538.192 199.736 543.021C197.357 547.504 193.442 550.717 188.971 551.814H188.932L188.184 552.045Z" fill="#FFCF2D"/>
<path d="M179.356 543.252C181.141 543.252 182.925 543.04 184.672 542.598L184.71 542.578L185.324 542.367C189.316 541.366 192.808 538.519 194.9 534.555C197.145 530.303 197.51 525.339 195.917 520.933L179.49 480.932C179.394 480.682 179.106 480.566 178.857 480.663C178.608 480.759 178.492 481.047 178.588 481.298L195.015 521.279C196.531 525.416 196.186 530.091 194.056 534.113C192.079 537.845 188.817 540.52 185.075 541.462L185.036 541.482L184.422 541.693C178.819 543.079 172.755 542.097 167.324 538.903C161.816 535.671 157.729 530.572 155.829 524.55V524.531L140.956 485.126C140.86 484.876 140.592 484.761 140.342 484.838C140.093 484.934 139.977 485.203 140.054 485.454L154.927 524.839C156.923 531.073 161.144 536.344 166.844 539.712C170.816 542.04 175.115 543.252 179.356 543.252Z" fill="#FFCF2D"/>
<path d="M146.195 481.029L149.688 486.955C155.272 487.609 160.952 487.397 166.479 486.243L167.784 485.877C169.646 485.493 171.43 484.935 173.119 484.223L171.737 474.603C171.411 472.294 169.185 470.735 166.901 471.216L148.863 475.007C146.138 475.565 144.775 478.643 146.195 481.029Z" fill="#FFCF2D"/>
<path d="M149.688 486.955L149.784 487.109L158.803 511.005C161.279 518.759 169.377 523.358 176.516 521.588L176.9 521.453C181.908 520.202 185.094 514.161 183.117 508.831L173.158 484.588L173.1 484.223C171.411 484.915 169.627 485.473 167.765 485.877L166.46 486.243C160.953 487.417 155.272 487.609 149.688 486.955Z" fill="#FFCF2D"/>
<path d="M162.68 515.835C162.795 515.835 162.91 515.835 163.025 515.816L183.751 513.565C184.019 513.546 184.211 513.295 184.173 513.026C184.134 512.757 183.904 512.564 183.636 512.603L162.91 514.854C161.778 514.969 161.144 514.219 160.933 513.526C160.722 512.853 160.837 511.872 161.835 511.333L177.974 502.694C179.356 501.963 179.663 500.539 179.375 499.462C179.087 498.384 178.089 497.307 176.516 497.384L156.136 498.307C154.908 498.365 154.236 497.518 154.025 496.768C153.814 496.018 153.967 494.94 155.061 494.363L173.349 484.589C173.58 484.473 173.676 484.185 173.561 483.954C173.445 483.723 173.158 483.627 172.927 483.742C172.908 483.762 170.548 484.858 166.537 485.724C162.833 486.532 156.942 487.302 149.822 486.417C149.554 486.378 149.323 486.571 149.285 486.84C149.246 487.109 149.438 487.34 149.707 487.379C156.98 488.283 163.006 487.494 166.786 486.667C167.228 486.571 167.631 486.474 168.034 486.378L154.639 493.536C153.142 494.324 152.816 495.883 153.123 497.057C153.449 498.23 154.524 499.385 156.213 499.288L176.593 498.365C177.687 498.326 178.301 499.077 178.473 499.731C178.646 500.385 178.512 501.347 177.552 501.867L161.413 510.506C160.012 511.256 159.705 512.718 160.051 513.815C160.338 514.854 161.279 515.835 162.68 515.835Z" fill="white"/>
<path d="M232.341 283.757C154.187 283.757 90.8313 220.236 90.8313 141.879C90.8313 63.5212 154.187 0 232.341 0C310.494 0 373.85 63.5212 373.85 141.879C373.85 220.236 310.494 283.757 232.341 283.757Z" fill="#D0F0E4"/>
<path d="M279.952 284.412C294.652 279.486 308.469 272.29 321 263.055C333.397 253.916 344.278 242.987 353.374 230.539C362.566 217.936 369.705 204.083 374.599 189.326C379.665 174.068 382.217 158.118 382.217 141.879H380.874C380.874 157.964 378.341 173.779 373.313 188.902C368.458 203.525 361.396 217.263 352.28 229.75C343.28 242.083 332.495 252.934 320.194 261.977C307.759 271.136 294.076 278.255 279.511 283.142L279.952 284.412Z" fill="#FFCF2D"/>
<path d="M232.341 234.483C234.241 234.483 236.14 234.426 238.021 234.31C238.558 234.272 238.961 233.829 238.923 233.291C238.885 232.752 238.443 232.348 237.906 232.386C236.064 232.502 234.183 232.559 232.341 232.559H232.206C231.669 232.559 231.247 232.983 231.247 233.521C231.247 234.06 231.669 234.483 232.206 234.483H232.341ZM225.49 234.233C225.989 234.233 226.411 233.848 226.449 233.348C226.488 232.81 226.085 232.348 225.566 232.309C223.686 232.175 221.767 231.963 219.905 231.713C219.387 231.636 218.888 232.001 218.831 232.54C218.754 233.06 219.119 233.56 219.656 233.618C221.575 233.887 223.513 234.079 225.451 234.233C225.451 234.233 225.47 234.233 225.49 234.233ZM244.642 233.656C244.68 233.656 244.718 233.656 244.776 233.656C246.695 233.406 248.614 233.079 250.514 232.694C251.032 232.598 251.377 232.078 251.262 231.559C251.147 231.039 250.648 230.693 250.13 230.809C248.269 231.174 246.388 231.501 244.507 231.751C243.989 231.828 243.605 232.309 243.682 232.829C243.759 233.31 244.181 233.656 244.642 233.656ZM213.15 232.463C213.592 232.463 213.995 232.155 214.091 231.694C214.206 231.174 213.88 230.655 213.361 230.558C211.519 230.154 209.658 229.693 207.835 229.192C207.316 229.058 206.798 229.346 206.645 229.866C206.51 230.385 206.798 230.905 207.316 231.059C209.178 231.578 211.078 232.059 212.958 232.463C213.016 232.463 213.093 232.463 213.15 232.463ZM256.866 231.155C256.943 231.155 257.039 231.136 257.115 231.116C258.977 230.597 260.838 230.02 262.661 229.385C263.16 229.212 263.429 228.654 263.256 228.153C263.084 227.653 262.527 227.384 262.028 227.557C260.243 228.173 258.42 228.75 256.597 229.269C256.079 229.404 255.791 229.943 255.926 230.462C256.06 230.866 256.444 231.155 256.866 231.155ZM201.156 229.019C201.54 229.019 201.924 228.769 202.058 228.384C202.231 227.884 201.982 227.326 201.483 227.153C199.698 226.499 197.932 225.787 196.205 225.036C195.726 224.825 195.15 225.056 194.939 225.537C194.728 226.018 194.958 226.595 195.438 226.807C197.203 227.576 199.026 228.307 200.83 228.961C200.945 229 201.06 229.019 201.156 229.019ZM268.63 226.98C268.764 226.98 268.879 226.96 269.013 226.903C270.779 226.133 272.564 225.287 274.291 224.421C274.77 224.171 274.943 223.593 274.713 223.132C274.463 222.651 273.888 222.477 273.427 222.708C271.738 223.574 270.011 224.401 268.265 225.152C267.785 225.363 267.555 225.921 267.766 226.422C267.9 226.768 268.265 226.98 268.63 226.98ZM189.777 223.959C190.122 223.959 190.448 223.767 190.621 223.439C190.87 222.978 190.698 222.381 190.218 222.131C188.548 221.246 186.879 220.303 185.267 219.303C184.806 219.033 184.231 219.168 183.943 219.63C183.674 220.092 183.808 220.669 184.269 220.957C185.919 221.958 187.608 222.939 189.316 223.843C189.469 223.92 189.623 223.959 189.777 223.959ZM279.722 221.227C279.894 221.227 280.067 221.188 280.22 221.092C281.871 220.092 283.521 219.014 285.095 217.898C285.536 217.59 285.632 216.994 285.325 216.551C285.018 216.109 284.423 216.013 283.982 216.32C282.427 217.398 280.815 218.456 279.203 219.437C278.743 219.707 278.608 220.303 278.877 220.765C279.088 221.054 279.395 221.227 279.722 221.227ZM179.164 217.398C179.471 217.398 179.759 217.263 179.951 216.994C180.258 216.571 180.162 215.955 179.721 215.647C178.186 214.55 176.67 213.377 175.192 212.184C174.789 211.857 174.175 211.914 173.849 212.318C173.522 212.723 173.58 213.338 173.983 213.665C175.48 214.897 177.034 216.09 178.608 217.206C178.781 217.34 178.972 217.398 179.164 217.398ZM289.912 214.012C290.123 214.012 290.334 213.935 290.506 213.8C292.003 212.588 293.481 211.299 294.901 209.971C295.285 209.606 295.323 209.009 294.959 208.605C294.594 208.22 293.999 208.182 293.596 208.547C292.195 209.836 290.756 211.087 289.278 212.28C288.875 212.607 288.799 213.223 289.144 213.627C289.355 213.896 289.643 214.012 289.912 214.012ZM169.55 209.432C169.799 209.432 170.068 209.336 170.241 209.125C170.605 208.74 170.586 208.124 170.202 207.759C168.821 206.45 167.477 205.084 166.192 203.699C165.827 203.314 165.232 203.295 164.829 203.66C164.445 204.026 164.426 204.622 164.791 205.026C166.115 206.45 167.497 207.835 168.897 209.163C169.07 209.355 169.32 209.432 169.55 209.432ZM299.046 205.488C299.296 205.488 299.564 205.392 299.737 205.18C301.061 203.776 302.347 202.294 303.575 200.794C303.921 200.389 303.863 199.774 303.441 199.447C303.038 199.1 302.424 199.158 302.097 199.581C300.888 201.044 299.622 202.487 298.336 203.872C297.972 204.257 297.991 204.872 298.374 205.238C298.566 205.411 298.816 205.488 299.046 205.488ZM161.087 200.255C161.298 200.255 161.509 200.178 161.682 200.043C162.104 199.716 162.162 199.1 161.835 198.696C160.646 197.215 159.494 195.676 158.4 194.136C158.093 193.694 157.498 193.598 157.057 193.905C156.616 194.213 156.52 194.81 156.827 195.252C157.94 196.83 159.13 198.408 160.339 199.908C160.53 200.12 160.799 200.255 161.087 200.255ZM306.933 195.81C307.24 195.81 307.528 195.676 307.72 195.406C308.833 193.828 309.927 192.193 310.944 190.538C311.232 190.096 311.078 189.499 310.637 189.211C310.196 188.922 309.601 189.076 309.313 189.519C308.315 191.135 307.26 192.732 306.166 194.271C305.859 194.714 305.955 195.31 306.396 195.618C306.55 195.753 306.741 195.81 306.933 195.81ZM153.948 189.98C154.121 189.98 154.294 189.942 154.447 189.846C154.908 189.576 155.042 188.98 154.773 188.518C153.795 186.883 152.854 185.209 151.991 183.535C151.741 183.054 151.166 182.881 150.705 183.131C150.225 183.381 150.053 183.958 150.302 184.42C151.185 186.132 152.144 187.864 153.142 189.519C153.296 189.826 153.622 189.98 153.948 189.98ZM313.439 185.151C313.784 185.151 314.111 184.959 314.283 184.632C315.185 182.919 316.03 181.149 316.797 179.379C317.008 178.898 316.797 178.321 316.317 178.109C315.838 177.897 315.262 178.109 315.051 178.59C314.283 180.322 313.458 182.053 312.575 183.727C312.326 184.189 312.518 184.785 312.978 185.016C313.132 185.113 313.285 185.151 313.439 185.151ZM148.268 178.84C148.402 178.84 148.517 178.821 148.652 178.763C149.131 178.552 149.362 177.994 149.151 177.493C148.402 175.743 147.711 173.953 147.078 172.164C146.905 171.664 146.349 171.394 145.85 171.587C145.351 171.76 145.082 172.318 145.274 172.818C145.927 174.646 146.637 176.474 147.404 178.263C147.539 178.629 147.884 178.84 148.268 178.84ZM318.428 173.703C318.831 173.703 319.196 173.453 319.33 173.068C319.983 171.24 320.578 169.374 321.115 167.508C321.269 166.988 320.962 166.469 320.463 166.315C319.944 166.161 319.426 166.469 319.273 166.969C318.755 168.797 318.16 170.625 317.526 172.414C317.354 172.914 317.603 173.472 318.102 173.645C318.217 173.684 318.313 173.703 318.428 173.703ZM144.161 167.027C144.238 167.027 144.334 167.007 144.411 166.988C144.929 166.853 145.217 166.315 145.082 165.814C144.583 163.987 144.142 162.12 143.758 160.254C143.643 159.735 143.144 159.407 142.626 159.504C142.108 159.619 141.782 160.119 141.878 160.639C142.261 162.544 142.722 164.448 143.24 166.315C143.355 166.757 143.739 167.027 144.161 167.027ZM321.806 161.678C322.247 161.678 322.65 161.37 322.746 160.908C323.149 159.023 323.475 157.079 323.763 155.155C323.84 154.636 323.475 154.136 322.957 154.059C322.439 153.982 321.94 154.347 321.863 154.867C321.595 156.752 321.269 158.638 320.885 160.485C320.77 161.004 321.115 161.524 321.633 161.62C321.691 161.678 321.748 161.678 321.806 161.678ZM141.705 154.77C141.743 154.77 141.782 154.77 141.839 154.77C142.357 154.694 142.741 154.212 142.664 153.693C142.415 151.807 142.242 149.903 142.108 147.998C142.069 147.459 141.628 147.074 141.091 147.094C140.553 147.132 140.17 147.594 140.189 148.113C140.323 150.057 140.515 152 140.764 153.924C140.822 154.424 141.225 154.77 141.705 154.77ZM323.514 149.287C324.013 149.287 324.435 148.902 324.473 148.383C324.608 146.459 324.684 144.496 324.704 142.553C324.704 142.014 324.281 141.591 323.744 141.591C323.207 141.591 322.785 142.014 322.785 142.553C322.765 144.458 322.689 146.382 322.573 148.267C322.535 148.806 322.938 149.248 323.456 149.287C323.475 149.287 323.495 149.287 323.514 149.287ZM140.937 142.303C141.455 142.303 141.897 141.879 141.897 141.341C141.916 139.436 141.973 137.512 142.108 135.626C142.146 135.088 141.743 134.645 141.225 134.607C140.707 134.568 140.246 134.972 140.208 135.492C140.074 137.416 139.997 139.378 139.997 141.321C139.978 141.86 140.4 142.283 140.937 142.303ZM323.552 136.781C323.571 136.781 323.591 136.781 323.61 136.781C324.147 136.742 324.531 136.28 324.512 135.761C324.377 133.818 324.205 131.874 323.955 129.95C323.878 129.431 323.399 129.046 322.881 129.123C322.362 129.2 321.979 129.681 322.055 130.2C322.305 132.086 322.478 133.991 322.612 135.896C322.631 136.396 323.053 136.781 323.552 136.781ZM141.858 129.816C142.338 129.816 142.741 129.469 142.799 128.988C143.067 127.103 143.394 125.217 143.777 123.351C143.893 122.831 143.547 122.312 143.029 122.216C142.511 122.1 141.993 122.447 141.897 122.966C141.513 124.852 141.167 126.795 140.899 128.719C140.822 129.238 141.187 129.739 141.705 129.816C141.762 129.816 141.801 129.816 141.858 129.816ZM321.883 124.39C321.94 124.39 322.017 124.39 322.075 124.371C322.593 124.255 322.938 123.755 322.823 123.235C322.439 121.331 321.979 119.426 321.48 117.56C321.345 117.04 320.808 116.751 320.309 116.886C319.791 117.021 319.503 117.56 319.637 118.06C320.136 119.888 320.578 121.754 320.962 123.62C321.038 124.082 321.441 124.39 321.883 124.39ZM144.449 117.598C144.871 117.598 145.255 117.329 145.37 116.905C145.888 115.078 146.483 113.25 147.116 111.46C147.289 110.96 147.04 110.402 146.541 110.229C146.042 110.056 145.485 110.306 145.313 110.806C144.66 112.634 144.065 114.5 143.528 116.367C143.374 116.886 143.681 117.406 144.18 117.56C144.276 117.579 144.372 117.598 144.449 117.598ZM318.563 112.345C318.678 112.345 318.774 112.326 318.889 112.288C319.388 112.115 319.657 111.557 319.484 111.056C318.831 109.228 318.121 107.401 317.373 105.611C317.162 105.13 316.605 104.899 316.106 105.111C315.607 105.323 315.396 105.881 315.607 106.381C316.356 108.132 317.047 109.921 317.68 111.71C317.795 112.095 318.16 112.345 318.563 112.345ZM148.69 105.842C149.055 105.842 149.419 105.631 149.573 105.265C150.34 103.533 151.166 101.802 152.029 100.128C152.279 99.6467 152.087 99.0695 151.626 98.8386C151.166 98.5885 150.571 98.7809 150.34 99.2427C149.458 100.955 148.613 102.725 147.827 104.495C147.615 104.976 147.827 105.554 148.325 105.765C148.421 105.823 148.556 105.842 148.69 105.842ZM313.612 100.859C313.765 100.859 313.919 100.82 314.053 100.743C314.533 100.493 314.705 99.9161 314.456 99.4543C313.573 97.7419 312.614 96.0103 311.616 94.3556C311.347 93.8939 310.752 93.7592 310.292 94.0285C309.831 94.2979 309.697 94.8944 309.965 95.3561C310.944 96.9916 311.865 98.6655 312.748 100.359C312.921 100.666 313.266 100.859 313.612 100.859ZM154.486 94.7982C154.812 94.7982 155.119 94.6442 155.311 94.3364C156.309 92.7202 157.364 91.1233 158.458 89.5648C158.765 89.1223 158.669 88.5258 158.228 88.218C157.786 87.9101 157.191 88.0063 156.884 88.4488C155.771 90.0265 154.697 91.662 153.68 93.3167C153.411 93.7784 153.545 94.3556 153.987 94.6442C154.14 94.7404 154.313 94.7982 154.486 94.7982ZM307.144 90.1612C307.336 90.1612 307.528 90.1035 307.701 89.9881C308.142 89.6802 308.238 89.0838 307.931 88.6412C306.818 87.0635 305.648 85.4858 304.439 83.9658C304.112 83.5425 303.498 83.4848 303.095 83.8119C302.673 84.139 302.616 84.7547 302.942 85.1587C304.132 86.6402 305.283 88.1795 306.377 89.7187C306.55 90.0073 306.837 90.1612 307.144 90.1612ZM161.739 84.62C162.008 84.62 162.296 84.5046 162.488 84.2737C163.697 82.8114 164.944 81.3684 166.249 79.9831C166.614 79.5982 166.595 78.9826 166.211 78.617C165.827 78.2514 165.213 78.2707 164.848 78.6555C163.524 80.0793 162.238 81.5415 161.01 83.0423C160.665 83.4463 160.742 84.062 161.145 84.3891C161.317 84.5623 161.528 84.62 161.739 84.62ZM299.276 80.4448C299.507 80.4448 299.737 80.3679 299.929 80.1947C300.313 79.8291 300.332 79.2327 299.986 78.8286C298.662 77.4048 297.3 76.0195 295.899 74.6919C295.515 74.3264 294.901 74.3456 294.536 74.7304C294.172 75.1152 294.191 75.7309 294.575 76.0965C295.957 77.4049 297.3 78.7709 298.586 80.1562C298.758 80.3294 299.027 80.4448 299.276 80.4448ZM170.318 75.5385C170.548 75.5385 170.778 75.4616 170.97 75.2884C172.352 73.9993 173.81 72.7487 175.269 71.5365C175.672 71.2094 175.748 70.5938 175.403 70.1897C175.077 69.7857 174.463 69.7087 174.06 70.055C172.563 71.2864 171.085 72.5755 169.665 73.8839C169.281 74.2494 169.243 74.8459 169.608 75.2499C169.799 75.4231 170.049 75.5385 170.318 75.5385ZM290.18 71.8829C290.449 71.8829 290.737 71.7674 290.929 71.5365C291.255 71.1325 291.197 70.5168 290.794 70.1897C289.297 68.9583 287.743 67.7654 286.169 66.6302C285.747 66.3224 285.133 66.4186 284.826 66.8419C284.519 67.2652 284.615 67.8808 285.037 68.1887C286.572 69.2854 288.089 70.4591 289.566 71.6712C289.758 71.8059 289.969 71.8829 290.18 71.8829ZM180.028 67.6884C180.22 67.6884 180.412 67.6307 180.584 67.5153C182.139 66.4186 183.751 65.3796 185.363 64.3791C185.823 64.1097 185.958 63.5133 185.689 63.0515C185.42 62.5897 184.825 62.4551 184.365 62.7244C182.715 63.7249 181.083 64.8024 179.491 65.9183C179.049 66.2262 178.953 66.8226 179.26 67.2652C179.433 67.5345 179.721 67.6884 180.028 67.6884ZM280.029 64.6485C280.355 64.6485 280.662 64.4945 280.854 64.1867C281.122 63.7249 280.988 63.1477 280.528 62.8591C278.877 61.8394 277.188 60.8773 275.48 59.973C275.02 59.7229 274.425 59.8961 274.176 60.3771C273.926 60.8389 274.099 61.4353 274.579 61.6854C276.248 62.5705 277.918 63.5133 279.53 64.5138C279.683 64.5907 279.856 64.6485 280.029 64.6485ZM190.717 61.2237C190.87 61.2237 191.005 61.1852 191.158 61.1082C192.847 60.2424 194.574 59.4151 196.32 58.6647C196.8 58.4531 197.03 57.8951 196.819 57.3948C196.608 56.9138 196.052 56.6829 195.553 56.8946C193.787 57.6642 192.003 58.5108 190.275 59.3958C189.796 59.646 189.623 60.2232 189.853 60.6849C190.026 61.0313 190.371 61.2237 190.717 61.2237ZM268.975 58.8571C269.34 58.8571 269.704 58.6455 269.858 58.2799C270.069 57.7989 269.858 57.2217 269.359 57.01C267.593 56.2404 265.77 55.5093 263.966 54.8359C263.467 54.6627 262.911 54.9128 262.738 55.4131C262.565 55.9133 262.815 56.4713 263.314 56.6445C265.079 57.2986 266.864 58.0105 268.591 58.7609C268.725 58.8379 268.841 58.8571 268.975 58.8571ZM202.193 56.2981C202.289 56.2981 202.404 56.2789 202.5 56.2404C204.284 55.6055 206.107 55.0475 207.931 54.528C208.449 54.3933 208.737 53.8546 208.602 53.3351C208.468 52.8156 207.931 52.527 207.412 52.6617C205.551 53.1812 203.69 53.7776 201.866 54.4126C201.367 54.5857 201.099 55.1437 201.272 55.644C201.425 56.048 201.79 56.2981 202.193 56.2981ZM257.25 54.6435C257.672 54.6435 258.056 54.3741 258.171 53.9508C258.324 53.4313 258.017 52.9118 257.499 52.7579C255.638 52.2384 253.738 51.7574 251.857 51.3534C251.339 51.2379 250.821 51.565 250.725 52.0845C250.61 52.604 250.936 53.1235 251.454 53.2197C253.296 53.6237 255.158 54.0855 256.981 54.605C257.077 54.6242 257.154 54.6435 257.25 54.6435ZM214.225 53.008C214.283 53.008 214.359 53.008 214.417 52.9888C216.278 52.6232 218.159 52.2961 220.04 52.046C220.558 51.9691 220.942 51.488 220.865 50.9685C220.788 50.4491 220.308 50.0835 219.79 50.1412C217.871 50.4106 215.952 50.7377 214.052 51.1032C213.534 51.1994 213.189 51.7189 213.304 52.2384C213.381 52.6809 213.764 53.008 214.225 53.008ZM245.045 52.0845C245.524 52.0845 245.927 51.7382 245.985 51.2571C246.062 50.7377 245.697 50.2374 245.16 50.1797C243.241 49.9103 241.303 49.6987 239.383 49.564C238.846 49.5255 238.386 49.9296 238.347 50.449C238.309 50.9878 238.712 51.4496 239.23 51.488C241.111 51.6227 243.03 51.8344 244.891 52.1037C244.949 52.0653 245.006 52.0845 245.045 52.0845ZM226.584 51.3726C226.603 51.3726 226.622 51.3726 226.641 51.3726C228.522 51.2572 230.441 51.1994 232.341 51.1994H232.609C233.147 51.1994 233.569 50.7761 233.569 50.2374C233.569 49.6987 233.147 49.2754 232.609 49.2754H232.341C230.402 49.2754 228.445 49.3331 226.526 49.4486C225.989 49.487 225.586 49.9296 225.624 50.4683C225.662 50.9878 226.085 51.3726 226.584 51.3726Z" fill="white"/>
<path d="M232.341 66.9562C233.128 66.9562 233.78 66.302 233.78 65.5132V50.2555C233.78 49.4667 233.128 48.8125 232.341 48.8125C231.554 48.8125 230.902 49.4667 230.902 50.2555V65.5132C230.902 66.302 231.554 66.9562 232.341 66.9562Z" fill="white"/>
<path d="M232.341 234.964C233.128 234.964 233.78 234.31 233.78 233.521V218.244C233.78 217.455 233.128 216.801 232.341 216.801C231.554 216.801 230.902 217.455 230.902 218.244V233.521C230.902 234.31 231.554 234.964 232.341 234.964Z" fill="white"/>
<path d="M286.208 89.333C286.573 89.333 286.937 89.1983 287.225 88.9097L297.991 78.0966C298.547 77.5387 298.547 76.6151 297.991 76.0572C297.434 75.4992 296.513 75.4992 295.957 76.0572L285.191 86.8703C284.634 87.4282 284.634 88.3518 285.191 88.9097C285.479 89.1983 285.843 89.333 286.208 89.333Z" fill="white"/>
<path d="M167.727 208.122C168.092 208.122 168.456 207.988 168.744 207.699L179.51 196.905C180.066 196.347 180.066 195.424 179.51 194.866C178.953 194.308 178.032 194.308 177.476 194.866L166.71 205.66C166.153 206.218 166.153 207.141 166.71 207.699C166.998 207.988 167.362 208.122 167.727 208.122Z" fill="white"/>
<path d="M308.507 143.322H323.744C324.531 143.322 325.184 142.667 325.184 141.879C325.184 141.09 324.531 140.436 323.744 140.436H308.507C307.72 140.436 307.068 141.09 307.068 141.879C307.068 142.667 307.72 143.322 308.507 143.322Z" fill="white"/>
<path d="M140.957 143.322H156.174C156.961 143.322 157.614 142.667 157.614 141.879C157.614 141.09 156.961 140.436 156.174 140.436H140.957C140.17 140.436 139.517 141.09 139.517 141.879C139.517 142.667 140.17 143.322 140.957 143.322Z" fill="white"/>
<path d="M296.974 208.122C297.338 208.122 297.703 207.988 297.991 207.699C298.547 207.141 298.547 206.218 297.991 205.66L287.225 194.866C286.669 194.308 285.747 194.308 285.191 194.866C284.634 195.424 284.634 196.347 285.191 196.905L295.957 207.699C296.245 207.988 296.609 208.122 296.974 208.122Z" fill="white"/>
<path d="M178.493 89.333C178.857 89.333 179.222 89.1983 179.51 88.9097C180.066 88.3518 180.066 87.4282 179.51 86.8703L168.744 76.0572C168.188 75.4992 167.266 75.4992 166.71 76.0572C166.153 76.6151 166.153 77.5387 166.71 78.0966L177.476 88.9097C177.764 89.1983 178.128 89.333 178.493 89.333Z" fill="white"/>
<path d="M232.341 239.293C245.448 239.293 258.171 236.714 270.165 231.635C281.737 226.729 292.119 219.706 301.042 210.759C309.966 201.812 316.97 191.403 321.864 179.801C326.93 167.795 329.501 155.039 329.501 141.879C329.501 114.884 319.062 90.1027 300.275 72.998L292.541 81.5407C300.543 88.8328 306.435 96.8368 311.002 107.573C315.588 118.367 318.006 130.219 318.006 141.859C318.006 153.461 315.742 164.698 311.271 175.28C306.953 185.497 300.774 194.693 292.906 202.582C285.038 210.471 275.884 216.666 265.675 220.976C255.12 225.459 243.913 227.729 232.341 227.729C220.769 227.729 209.562 225.459 199.007 220.976C188.817 216.647 179.644 210.451 171.776 202.582C163.908 194.693 157.729 185.516 153.411 175.28C148.94 164.698 146.675 153.461 146.675 141.859C146.675 130.315 149.017 119.098 153.641 108.497C158.094 98.2991 164.465 89.1022 172.563 81.1944C180.642 73.3059 190.007 67.0912 200.408 62.7429C211.136 58.2599 220.731 56.3743 232.303 56.3743V44.8301C219.196 44.8301 208.104 47.0235 195.975 52.0837C184.231 56.99 173.657 63.9935 164.522 72.921C155.349 81.8871 148.134 92.2961 143.087 103.86C137.829 115.923 135.142 128.699 135.142 141.84C135.142 154.981 137.714 167.738 142.78 179.763C147.673 191.365 154.678 201.774 163.601 210.721C172.525 219.667 182.907 226.69 194.478 231.597C206.511 236.714 219.234 239.293 232.341 239.293Z" fill="#D0F0E4"/>
<path d="M232.341 240.736C245.64 240.736 258.555 238.119 270.722 232.963C282.447 227.98 293.002 220.861 302.059 211.779C311.117 202.698 318.218 192.135 323.188 180.36C328.331 168.161 330.941 155.232 330.941 141.879C330.941 128.237 328.35 115.212 323.265 103.167C318.141 91.0842 310.734 80.579 301.253 71.94C300.966 71.6899 300.601 71.5552 300.217 71.5745C299.833 71.5937 299.469 71.7669 299.219 72.0555L291.486 80.5982C290.948 81.1947 290.987 82.099 291.582 82.6377C299.757 90.0837 305.341 97.9723 309.678 108.17C314.188 118.771 316.567 130.431 316.567 141.898C316.567 153.308 314.341 164.352 309.947 174.761C305.686 184.823 299.622 193.847 291.889 201.601C284.136 209.374 275.135 215.454 265.118 219.687C254.736 224.093 243.721 226.325 232.341 226.325C220.961 226.325 209.946 224.093 199.564 219.687C189.547 215.435 180.527 209.336 172.794 201.601C165.06 193.847 158.977 184.804 154.735 174.761C150.341 164.352 148.115 153.308 148.115 141.898C148.115 130.566 150.418 119.522 154.966 109.112C159.341 99.069 165.616 90.0452 173.58 82.2721C181.544 74.499 190.756 68.3806 200.984 64.1092C211.481 59.7224 220.846 57.8561 232.322 57.8561C233.109 57.8561 233.761 57.2019 233.761 56.413V44.8688C233.761 44.08 233.109 43.4258 232.322 43.4258C219.023 43.4258 207.643 45.6962 195.438 50.7949C183.521 55.7781 172.794 62.8778 163.525 71.94C154.217 81.0407 146.887 91.6037 141.782 103.34C136.428 115.616 133.722 128.584 133.722 141.898C133.722 155.232 136.332 168.18 141.475 180.379C146.445 192.135 153.546 202.717 162.603 211.798C171.661 220.88 182.197 227.999 193.941 232.982C206.108 238.1 219.023 240.736 232.341 240.736ZM300.371 75.0377C309.045 83.2149 315.857 93.0468 320.617 104.283C325.568 115.962 328.062 128.603 328.062 141.86C328.062 154.828 325.529 167.392 320.54 179.224C315.723 190.653 308.814 200.908 300.025 209.72C291.236 218.533 280.989 225.459 269.609 230.288C257.787 235.291 245.256 237.831 232.341 237.831C219.426 237.831 206.876 235.272 195.035 230.25C183.636 225.421 173.408 218.494 164.618 209.682C155.829 200.87 148.921 190.596 144.104 179.186C139.115 167.334 136.581 154.77 136.581 141.821C136.581 128.911 139.21 116.328 144.411 104.418C149.381 93.0275 156.482 82.7724 165.54 73.941C174.54 65.1482 184.96 58.2409 196.532 53.4115C207.931 48.6592 218.582 46.4465 230.863 46.2734V54.9315C219.637 55.0855 210.272 57.048 199.852 61.3963C189.297 65.8024 179.779 72.1132 171.565 80.1365C163.333 88.1789 156.866 97.5105 152.337 107.9C147.635 118.675 145.255 130.104 145.255 141.84C145.255 153.635 147.558 165.064 152.106 175.819C156.482 186.209 162.776 195.56 170.779 203.583C178.781 211.587 188.088 217.878 198.47 222.284C209.198 226.844 220.597 229.153 232.36 229.153C244.124 229.153 255.523 226.844 266.25 222.284C276.594 217.917 285.92 211.625 293.942 203.583C301.925 195.579 308.22 186.228 312.614 175.819C317.162 165.064 319.465 153.635 319.465 141.84C319.465 130.008 317.009 117.944 312.346 106.996C308.028 96.8371 302.52 88.9101 294.594 81.4448L300.371 75.0377Z" fill="white"/>
<path d="M219.925 155.656C220.097 155.656 220.27 155.579 220.404 155.444L280.72 93.4132C280.969 93.1438 280.969 92.7205 280.7 92.4704C280.432 92.2203 280.009 92.2203 279.76 92.4896L219.445 154.521C219.195 154.79 219.195 155.213 219.464 155.463C219.579 155.598 219.752 155.656 219.925 155.656Z" fill="#FE5244"/>
<path d="M231.688 147.304C229.049 147.304 226.91 145.159 226.91 142.514C226.91 139.868 229.049 137.723 231.688 137.723C234.327 137.723 236.467 139.868 236.467 142.514C236.467 145.159 234.327 147.304 231.688 147.304Z" fill="#D0F0E4"/>
<path d="M231.689 148.747C235.124 148.747 237.906 145.957 237.906 142.513C237.906 139.069 235.124 136.279 231.689 136.279C228.253 136.279 225.471 139.069 225.471 142.513C225.471 145.957 228.253 148.747 231.689 148.747ZM231.689 139.165C233.531 139.165 235.028 140.666 235.028 142.513C235.028 144.36 233.531 145.861 231.689 145.861C229.846 145.861 228.349 144.36 228.349 142.513C228.349 140.666 229.846 139.165 231.689 139.165Z" fill="white"/>
<path d="M192.732 46.2923C192.943 46.2923 193.173 46.2346 193.365 46.1384C194.075 45.792 194.363 44.9262 194.018 44.1951L191.101 38.3268C190.698 37.4609 190.698 36.4604 191.082 35.5946C191.465 34.7288 192.214 34.0746 193.116 33.786L199.142 31.9582C200.063 31.6696 201.041 31.8043 201.847 32.3238C202.653 32.824 203.191 33.6706 203.325 34.6134L204.189 40.7703C204.304 41.5591 205.033 42.1171 205.82 42.0017C206.606 41.8862 207.163 41.1551 207.048 40.3662L206.184 34.1901C205.916 32.4007 204.899 30.8422 203.383 29.8802C201.866 28.9182 200.024 28.6681 198.316 29.2068L192.291 31.0346C190.583 31.5541 189.182 32.7855 188.452 34.421C187.723 36.0564 187.742 37.9419 188.51 39.5581L188.529 39.5774L191.446 45.4649C191.696 46.0037 192.195 46.2923 192.732 46.2923Z" fill="white"/>
<path d="M22.851 553.22H24.0342V305.885H352.999V553.22H354.183V304.73H22.851V553.22Z" fill="#66B0F0"/>
<path d="M19.326 313.599H358.618C366.279 313.599 372.5 309.193 372.5 303.767V266.306C372.5 260.881 366.279 256.475 358.618 256.475H19.326C11.6649 256.475 5.44351 260.881 5.44351 266.306V303.767C5.44351 309.193 11.6649 313.599 19.326 313.599Z" fill="white"/>
<path d="M19.326 314.176H358.618C366.714 314.176 373.315 309.5 373.315 303.767V266.306C373.315 260.572 366.714 255.896 358.618 255.896H19.326C11.2302 255.896 4.62854 260.572 4.62854 266.306V303.767C4.62854 309.5 11.2302 314.176 19.326 314.176ZM358.618 257.051C365.817 257.051 371.685 261.207 371.685 266.306V303.767C371.685 308.865 365.817 313.021 358.618 313.021H19.326C12.1267 313.021 6.25858 308.865 6.25858 303.767V266.306C6.25858 261.207 12.1267 257.051 19.326 257.051H358.618Z" fill="#66B0F0"/>
<path d="M18.5038 306.899H359.433C367.094 306.899 373.315 302.489 373.315 297.057V259.559C373.315 254.127 367.094 249.717 359.433 249.717H18.5038C10.8424 249.717 4.62097 254.127 4.62097 259.559V297.057C4.62097 302.489 10.8424 306.899 18.5038 306.899Z" fill="#66B0F0"/>
<path d="M84.7329 255.799H170.61V295.34H84.7329V255.799Z" fill="white"/>
<path d="M26.8896 260.073H115.453L115.376 249.722H168.725L184.25 204.122L200.869 234.81L153.949 274.946L176.382 305.422L231.804 269.808C241.84 263.248 247.885 252.069 247.885 240.063C247.885 234.06 246.369 228.134 243.452 222.881L217.584 175.973C206.722 156.29 186.073 144.092 163.659 144.092H80.5841C66.7671 144.092 53.8136 150.826 45.8496 162.139L5.56912 218.36C-6.96216 235.772 5.47319 260.073 26.8896 260.073Z" fill="white"/>
<path d="M176.248 306.191L232.13 270.289C242.358 263.593 248.48 252.299 248.48 240.062C248.48 233.943 246.926 227.902 243.97 222.592L218.102 175.684C207.144 155.828 186.284 143.514 163.678 143.514H80.6031C66.6134 143.514 53.468 150.344 45.3889 161.811L5.10847 218.012C2.07642 222.226 0.310913 227.132 0.0422516 232.173C-0.22641 236.906 0.790665 241.678 2.99754 245.988C5.18524 250.298 8.4668 253.915 12.4584 256.474C16.7186 259.206 21.7081 260.649 26.9087 260.649H116.028L115.952 250.298H169.128L169.262 249.913L184.365 205.564L200.14 234.694L153.162 274.868L176.248 306.191ZM163.659 144.668C185.862 144.668 206.338 156.77 217.085 176.261L242.953 223.169C245.813 228.306 247.309 234.155 247.309 240.062C247.309 251.914 241.399 262.843 231.497 269.327L176.536 304.652L154.735 275.041L201.598 234.944L184.135 202.697L168.322 249.143H114.8L114.877 259.495H26.8895C21.9 259.495 17.1216 258.109 13.0533 255.512C9.23438 253.068 6.08717 249.586 3.99544 245.468C1.90369 241.351 0.924988 236.791 1.17447 232.25C1.44313 227.44 3.13188 222.746 6.02962 218.705L46.3101 162.485C54.1589 151.325 66.978 144.668 80.584 144.668H163.659Z" fill="#FE5244"/>
<path d="M158.189 294.916C164.753 303.767 172.832 308.846 176.267 306.287C179.702 303.728 177.169 294.493 170.625 285.642C164.062 276.792 156.75 272.097 153.315 274.656C149.88 277.215 151.646 286.085 158.189 294.916Z" fill="#FE5244"/>
<path d="M129.903 182.109L157.633 143.59H104.323L129.903 182.109ZM155.369 144.744L129.942 180.07L106.472 144.744H155.369Z" fill="#FE5244"/>
<path d="M129.634 195.117C131.477 195.117 132.993 193.597 132.993 191.75C132.993 189.903 131.477 188.383 129.634 188.383C127.792 188.383 126.276 189.903 126.276 191.75C126.276 193.597 127.792 195.117 129.634 195.117ZM129.634 189.537C130.843 189.537 131.841 190.538 131.841 191.75C131.841 192.962 130.843 193.963 129.634 193.963C128.425 193.963 127.427 192.962 127.427 191.75C127.427 190.538 128.425 189.537 129.634 189.537Z" fill="#FE5244"/>
<path d="M129.634 212.818C131.477 212.818 132.993 211.298 132.993 209.451C132.993 207.604 131.477 206.084 129.634 206.084C127.792 206.084 126.276 207.604 126.276 209.451C126.276 211.298 127.792 212.818 129.634 212.818ZM129.634 207.238C130.843 207.238 131.841 208.239 131.841 209.451C131.841 210.663 130.843 211.664 129.634 211.664C128.425 211.664 127.427 210.663 127.427 209.451C127.427 208.239 128.425 207.238 129.634 207.238Z" fill="#FE5244"/>
<path d="M114.129 260.744H115.28V220.917H62.411L74.52 202.081L73.5605 201.465L60.3 222.071H114.129V260.744Z" fill="#FE5244"/>
<path d="M47.3657 220.918H61.3555V222.072H47.3657V220.918Z" fill="#FE5244"/>
<path d="M114.704 260.744C110.422 260.744 106.951 251.811 106.951 240.792C106.951 229.773 110.422 220.84 114.704 220.84C118.986 220.84 122.457 229.773 122.457 240.792C122.457 251.811 118.986 260.744 114.704 260.744Z" fill="#FE5244"/>
<path d="M107.028 260.61V259.455C103.133 259.455 99.851 250.913 99.851 240.792C99.851 230.672 103.133 222.129 107.028 222.129V220.975C102.365 220.975 98.6996 229.671 98.6996 240.792C98.6996 251.913 102.365 260.61 107.028 260.61Z" fill="#FE5244"/>
<path d="M182.581 302.15C186.323 299.36 183.886 289.951 177.054 280.697C173.753 276.252 170.376 272.828 167.267 270.788C163.947 268.614 161.203 268.191 159.322 269.595L160.013 270.519C163.064 268.248 169.704 272.712 176.133 281.389C182.37 289.817 184.999 298.898 181.89 301.226L182.581 302.15Z" fill="#FE5244"/>
<path d="M156.309 128.218C156.175 109.247 143.605 104.052 122.956 105.707C100.695 107.496 109.811 138.204 97.4521 139.223C92.2707 139.647 86.3601 133.759 78.4921 128.91C72.0057 124.524 64.1953 121.965 55.7708 121.965C33.2989 121.965 15.0681 140.243 15.0681 162.774C15.0681 173.144 19.8849 183.168 26.2369 190.364C26.2369 190.364 50.2439 156.559 59.5512 153.384C77.8588 147.15 83.6735 163.274 96.3775 165.775C98.0471 166.102 99.8317 166.198 101.789 165.967C119.866 163.89 116.412 134.009 116.412 134.009C121.095 132.085 122.112 127.217 122.284 124.274C122.188 122.85 122.246 121.907 122.246 121.907C122.246 121.907 122.361 122.869 122.284 124.274C122.668 129.815 126.046 143.071 144.871 138.319V144.765C144.871 183.803 144.238 191.384 152.125 201.197C153.296 202.659 161.126 214.453 147.097 220.822C129.02 229.018 141.782 250.587 141.782 250.587H180.028C180.028 250.587 202.73 246.546 204.707 225.882C207.528 196.348 170.586 188.44 165.77 187.536C175.135 186.093 184.288 176.838 184.288 165.621C184.288 155.674 176.67 147.266 168.84 144.495C168.821 144.495 168.821 144.495 168.802 144.476C168.571 144.399 168.341 144.322 168.111 144.245C161.989 142.129 157.479 137.472 156.482 131.835L156.309 128.218Z" fill="#FFCF2D"/>
<path d="M122.189 128.431C122.208 128.431 122.208 128.431 122.189 128.431C122.457 128.431 122.668 128.2 122.668 127.95L122.515 118.118C122.515 117.848 122.304 117.637 122.035 117.637C121.766 117.637 121.555 117.868 121.555 118.118L121.709 127.95C121.728 128.219 121.939 128.431 122.189 128.431Z" fill="#E57281"/>
<path d="M144.027 139.627C144.104 139.627 144.181 139.607 144.257 139.569C148.901 137.125 149.88 134.624 149.938 134.528C150.034 134.278 149.899 134.008 149.65 133.912C149.4 133.816 149.132 133.951 149.036 134.182C149.017 134.22 148.076 136.471 143.816 138.722C143.586 138.838 143.49 139.146 143.605 139.377C143.682 139.531 143.854 139.627 144.027 139.627Z" fill="#E57281"/>
<path d="M79.5667 122.908C76.3871 122.908 73.8096 120.323 73.8096 117.135C73.8096 113.948 76.3871 111.363 79.5667 111.363C82.7462 111.363 85.3237 113.948 85.3237 117.135C85.3237 120.323 82.7462 122.908 79.5667 122.908Z" fill="#FFCF2D"/>
<path d="M147.328 214.184C144.774 214.184 142.703 212.108 142.703 209.547C142.703 206.986 144.774 204.91 147.328 204.91C149.882 204.91 151.953 206.986 151.953 209.547C151.953 212.108 149.882 214.184 147.328 214.184Z" fill="#FFCF2D"/>
<path d="M118.197 279.331L118.216 282.833C118.216 283.141 118.292 283.449 118.408 283.718L126.813 302.497C128.06 305.209 130.766 306.941 133.741 306.941H151.722C156.213 306.941 160.569 305.421 164.1 302.651L164.733 302.15L175.441 293.704C174.252 291.126 172.62 288.374 170.605 285.661C166.767 280.466 162.373 276.58 158.727 274.752H132.916C130.862 279.35 137.54 283.045 137.54 283.045H125.873L121.651 278.446C120.557 277.253 118.58 277.773 118.197 279.331Z" fill="#E57281"/>
<path d="M131.764 301.708H146.905C147.174 301.708 147.385 301.496 147.385 301.227C147.385 300.957 147.174 300.746 146.905 300.746H131.764C128.982 300.746 126.43 299.11 125.278 296.59C125.163 296.34 124.875 296.244 124.645 296.359C124.395 296.474 124.299 296.763 124.415 296.994C125.719 299.861 128.617 301.708 131.764 301.708Z" fill="#9A3B82"/>
<path d="M129.116 295.763H144.258C144.526 295.763 144.737 295.551 144.737 295.282C144.737 295.012 144.526 294.801 144.258 294.801H129.116C126.334 294.801 123.782 293.165 122.63 290.645C122.515 290.394 122.227 290.298 121.997 290.414C121.747 290.529 121.651 290.818 121.767 291.049C123.072 293.915 125.969 295.763 129.116 295.763Z" fill="#9A3B82"/>
<path d="M126.257 289.143H141.398C141.667 289.143 141.878 288.932 141.878 288.662C141.878 288.393 141.667 288.181 141.398 288.181H126.257C123.474 288.181 120.922 286.546 119.771 284.025C119.656 283.775 119.368 283.679 119.137 283.795C118.888 283.91 118.792 284.199 118.907 284.429C120.212 287.296 123.11 289.143 126.257 289.143Z" fill="#9A3B82"/>
<path d="M158.382 294.531C160.089 297.321 162.603 300.226 164.734 302.15L164.753 302.131L175.461 293.684C174.271 291.106 172.64 288.355 170.625 285.642C166.787 280.447 162.392 276.56 158.746 274.732H153.2C152.701 279.1 153.43 286.45 158.382 294.531Z" fill="#9A3B82"/>
<path d="M139.978 235.175C139.978 235.175 130.652 210.22 127.044 210.72C123.455 211.201 135.085 233.328 135.085 233.328L139.978 235.175Z" fill="#FE5244"/>
<path d="M106.951 240.793C106.951 251.472 110.214 260.168 114.301 260.707C114.435 260.726 114.57 260.726 114.704 260.726H152.701C153.852 260.726 154.773 259.803 154.773 258.648V246.488C154.773 243.044 152.663 239.966 149.458 238.754L133.549 232.712C132.11 232.173 130.574 231.885 129.039 231.885H107.776C107.258 234.578 106.951 237.599 106.951 240.793Z" fill="#E57281"/>
<path d="M154.102 252.317C154.37 252.317 154.582 252.106 154.582 251.836C154.582 249.066 152.854 246.545 150.264 245.564L138.251 241.004C138.001 240.908 137.733 241.042 137.637 241.292C137.541 241.543 137.675 241.812 137.924 241.908L149.938 246.468C152.144 247.315 153.641 249.47 153.641 251.855C153.622 252.106 153.833 252.317 154.102 252.317Z" fill="#9A3B82"/>
<path d="M154.102 259.591C154.37 259.591 154.582 259.379 154.582 259.11C154.582 256.339 152.854 253.819 150.264 252.837L138.251 248.277C138.001 248.181 137.733 248.316 137.637 248.566C137.541 248.816 137.675 249.085 137.924 249.182L149.938 253.742C152.144 254.588 153.641 256.743 153.641 259.129C153.622 259.379 153.833 259.591 154.102 259.591Z" fill="#9A3B82"/>
<path d="M150.744 260.552C150.936 260.552 151.128 260.436 151.185 260.244C151.281 259.994 151.147 259.725 150.897 259.628L138.884 255.068C138.635 254.972 138.366 255.107 138.27 255.357C138.174 255.607 138.309 255.876 138.558 255.973L150.571 260.533C150.629 260.533 150.686 260.552 150.744 260.552Z" fill="#9A3B82"/>
<path d="M106.951 240.793C106.951 251.471 110.214 260.168 114.301 260.707C114.435 260.726 114.57 260.726 114.704 260.726C118.984 260.726 122.457 251.798 122.457 240.774C122.457 237.83 122.016 234.482 121.555 231.865H107.872C107.393 234.501 106.951 237.849 106.951 240.793Z" fill="#9A3B82"/>
<path d="M110.137 138.299C110.137 139.415 110.521 140.474 111.154 141.301C111.806 142.147 112.708 142.763 113.802 143.052L116.45 143.744V146.707C116.45 153.865 122.227 159.656 129.366 159.656H131.918C139.038 159.656 144.795 153.884 144.833 146.765V138.299C126.007 143.071 122.63 129.795 122.246 124.254C122.092 127.063 121.152 131.604 117.007 133.701L116.278 133.509C113.169 132.739 110.137 135.086 110.137 138.299Z" fill="#E57281"/>
<path d="M119.963 142.726C120.078 142.726 120.193 142.687 120.27 142.61C122.362 140.821 126.046 141.167 126.085 141.167C126.353 141.186 126.583 140.994 126.603 140.744C126.622 140.474 126.43 140.244 126.18 140.224C126.008 140.205 122.035 139.84 119.637 141.898C119.445 142.071 119.406 142.379 119.579 142.572C119.694 142.668 119.828 142.726 119.963 142.726Z" fill="#9A3B82"/>
<path d="M132.014 153.519C132.283 153.519 132.494 153.308 132.494 153.038C132.532 147.343 133.741 142.841 135.43 142.091C138.405 140.782 141.091 142.187 141.11 142.206C141.341 142.341 141.628 142.245 141.763 142.014C141.897 141.783 141.801 141.494 141.571 141.36C141.437 141.283 138.443 139.705 135.046 141.206C132.916 142.148 131.573 146.67 131.534 153.038C131.534 153.308 131.745 153.519 132.014 153.519Z" fill="#9A3B82"/>
<path d="M137.656 147.652C137.242 147.652 136.907 147.006 136.907 146.209C136.907 145.412 137.242 144.766 137.656 144.766C138.069 144.766 138.404 145.412 138.404 146.209C138.404 147.006 138.069 147.652 137.656 147.652Z" fill="#9A3B82"/>
<path d="M123.724 147.652C123.31 147.652 122.975 147.006 122.975 146.209C122.975 145.412 123.31 144.766 123.724 144.766C124.137 144.766 124.472 145.412 124.472 146.209C124.472 147.006 124.137 147.652 123.724 147.652Z" fill="#9A3B82"/>
<path d="M115.721 140.648C115.99 140.648 116.201 140.436 116.201 140.167C116.201 138.281 114.858 136.626 113.016 136.242C112.766 136.184 112.497 136.357 112.44 136.607C112.382 136.877 112.555 137.127 112.804 137.184C114.205 137.473 115.222 138.743 115.222 140.186C115.242 140.436 115.453 140.648 115.721 140.648Z" fill="#9A3B82"/>
<path d="M321.307 435.997C319.023 441.385 319.695 452.467 331.19 452.313C345.448 452.121 345.084 413.602 345.084 413.602C345.084 413.602 330.518 414.275 321.307 435.997Z" fill="#3FB1B5"/>
<path d="M454.104 422.972C457.673 430.553 452.876 436.652 448.846 434.555C441.803 430.88 438.771 421.433 438.771 421.433C438.771 421.433 450.899 416.2 454.104 422.972Z" fill="#3FB1B5"/>
<path d="M321.499 435.997C329.137 420.663 337.753 413.371 351.551 413.371C374.791 413.371 389.701 438.306 392.542 470.553C392.887 466.551 397.013 462.453 397.32 458.297C401.465 403.077 371.279 381.297 348.634 381.297C330.096 381.278 325.471 407.983 321.499 435.997Z" fill="white"/>
<path d="M391.966 470.611H393.117C393.271 468.764 394.307 466.879 395.401 464.859C396.552 462.761 397.742 460.568 397.895 458.336C400.429 424.531 390.066 405.656 380.931 395.766C372.084 386.204 360.302 380.701 348.634 380.701H348.615C339.979 380.701 333.589 386.319 329.079 397.902C325.087 408.138 322.957 421.722 320.942 435.902L320.443 439.423L322.036 436.248C325.989 428.302 329.981 422.953 334.587 419.374C339.327 415.719 344.873 413.929 351.57 413.929C362.432 413.929 372.008 419.548 379.242 430.168C386.132 440.346 390.526 454.315 391.966 470.611ZM348.615 381.875H348.634C359.995 381.875 371.451 387.224 380.087 396.555C389.068 406.272 399.258 424.839 396.744 458.24C396.59 460.222 395.477 462.3 394.384 464.301C393.827 465.32 393.251 466.379 392.81 467.437C391.102 452.256 386.746 439.211 380.183 429.552C372.718 418.585 362.835 412.794 351.57 412.794C344.604 412.794 338.828 414.66 333.877 418.47C329.731 421.664 326.104 426.243 322.554 432.727C324.416 419.836 326.507 407.657 330.154 398.345C332.245 392.977 334.663 389.032 337.542 386.319C340.689 383.337 344.316 381.875 348.615 381.875Z" fill="#3FB1B5"/>
<path d="M397.876 471.362C400.39 437.96 389.855 418.989 380.567 408.965C371.758 399.441 359.956 393.746 348.999 393.746C337.235 393.746 329.77 400.576 324.051 416.565L325.126 416.95C330.672 401.5 337.811 394.901 348.999 394.901C359.63 394.901 371.125 400.461 379.722 409.754C388.857 419.624 399.2 438.307 396.725 471.285L397.876 471.362Z" fill="#3FB1B5"/>
<path d="M484.252 357.997C490.45 364.154 501.658 389.398 487.783 394.4C473.908 399.422 457.654 349.993 457.654 349.993C457.654 349.993 469.418 343.24 484.252 357.997Z" fill="#FFCF2D"/>
<path d="M485.749 395.344C486.497 395.344 487.246 395.209 487.975 394.959C491.525 393.67 493.751 391.072 494.615 387.205C496.783 377.335 489.299 362.231 484.655 357.613C480.356 353.342 473.524 348.166 465.407 347.916C460.513 347.762 457.501 349.455 457.366 349.532L456.963 349.763L457.117 350.206C457.155 350.302 460.302 359.826 464.927 369.966C471.183 383.665 477.017 391.919 482.294 394.497C483.465 395.036 484.636 395.344 485.749 395.344ZM464.774 349.032C464.985 349.032 465.215 349.032 465.445 349.051C473.16 349.34 479.704 354.304 483.849 358.421C488.435 362.981 495.517 377.816 493.502 386.955C492.734 390.418 490.757 392.746 487.591 393.881C486.075 394.439 484.501 394.285 482.793 393.458C471.49 387.936 459.861 354.708 458.364 350.321C459.266 349.879 461.55 349.032 464.774 349.032Z" fill="#FFCF2D"/>
<path d="M369.859 472.691L374.81 499.608C377.304 513.115 389.049 522.927 402.751 522.927C416.453 522.927 428.197 513.115 430.692 499.608L435.643 472.691C435.643 471.344 435.336 470.055 434.799 468.9C430.826 472.902 417.911 475.827 402.617 475.827C387.533 475.827 374.791 472.979 370.607 469.093C370.127 470.189 369.859 471.421 369.859 472.691Z" fill="#D0F0E4"/>
<path d="M373.102 466.302C373.102 470.112 386.324 473.191 402.636 473.191C418.947 473.191 432.169 470.112 432.169 466.302C432.169 465.995 432.093 465.706 431.92 465.417C430.039 462.031 417.642 459.434 402.636 459.434C387.168 459.434 374.483 462.204 373.217 465.725C373.14 465.918 373.102 466.11 373.102 466.302Z" fill="#66B0F0"/>
<path d="M392.042 426.146C392.042 442.077 394.23 457.123 398.126 470.361H409.333C409.371 403.462 433.705 349.262 463.699 349.262C471.49 349.262 478.898 352.917 485.595 359.497C465.868 336.351 457.673 330.002 446.409 330.002C419.504 330.002 392.042 373.043 392.042 426.146Z" fill="white"/>
<path d="M397.704 470.939H409.909V470.361C409.947 403.905 434.069 349.84 463.699 349.84C471.164 349.84 478.399 353.226 485.192 359.902L486.037 359.113C465.925 335.525 457.788 329.406 446.409 329.406C433.033 329.406 419.274 339.777 408.642 357.844C403.346 366.848 399.162 377.18 396.207 388.551C393.06 400.615 391.486 413.256 391.486 426.128C391.486 441.578 393.597 456.932 397.588 470.496L397.704 470.939ZM408.757 469.784H398.548C394.672 456.412 392.618 441.347 392.618 426.147C392.618 413.371 394.192 400.827 397.32 388.859C400.256 377.603 404.401 367.368 409.64 358.44C414.687 349.859 420.655 342.798 426.911 338.007C433.359 333.081 439.922 330.561 446.409 330.561C456.445 330.561 463.968 335.621 480.433 354.38C475.06 350.59 469.456 348.666 463.699 348.666C456.215 348.666 448.961 351.918 442.168 358.344C435.643 364.501 429.79 373.294 424.762 384.472C414.514 407.291 408.834 437.556 408.757 469.784Z" fill="#FFCF2D"/>
<path d="M402.194 470.4L403.345 470.285C402.021 456.72 401.714 443.521 402.424 431.053C403.096 419.355 404.689 408.234 407.145 398.018C411.712 379.027 419.158 363.404 428.696 352.861C436.813 343.875 445.967 339.123 455.14 339.123C462.24 339.123 466.29 341.201 472.68 345.857L473.352 344.914C466.75 340.104 462.547 337.949 455.121 337.949C445.602 337.949 436.18 342.836 427.832 352.052C418.16 362.75 410.618 378.546 406.013 397.729C403.537 408.023 401.944 419.201 401.254 430.977C400.544 443.521 400.851 456.778 402.194 470.4Z" fill="#FFCF2D"/>
<path d="M402.693 470.342C402.693 470.342 401.042 407.522 435.182 407.311C444.221 407.253 452.684 421.626 452.684 421.626C452.684 421.626 412.71 411.159 410.734 470.342H402.693Z" fill="white"/>
<path d="M402.136 470.92H411.29L411.309 470.362C412 449.409 417.527 434.921 427.698 427.302C433.628 422.857 440.057 421.703 444.394 421.51C449.134 421.299 452.492 422.165 452.53 422.165L453.874 422.511L453.164 421.299C453.068 421.145 450.976 417.605 447.733 414.026C443.338 409.158 439.116 406.695 435.221 406.695C435.201 406.695 435.182 406.695 435.163 406.695C428.254 406.734 422.267 409.331 417.374 414.391C413.631 418.259 410.503 423.627 408.066 430.322C406.128 435.652 404.631 441.847 403.595 448.736C401.849 460.434 402.079 470.227 402.079 470.323L402.136 470.92ZM410.177 469.765H403.269C403.25 467.533 403.288 458.933 404.785 448.909C406.378 438.25 410.004 423.742 418.237 415.219C422.9 410.389 428.6 407.927 435.201 407.888C435.221 407.888 435.24 407.888 435.259 407.888C442.379 407.888 449.306 417.451 451.494 420.779C450.055 420.529 447.541 420.221 444.413 420.356C439.903 420.548 433.206 421.741 427.045 426.359C416.644 434.132 410.964 448.736 410.177 469.765Z" fill="#3FB1B5"/>
<path d="M406.301 470.553L407.452 470.515C407.356 466.667 407.376 456.565 409.851 445.733C412.365 434.766 416.568 426.377 422.344 420.817C428.37 415.006 436.103 412.37 445.315 412.986L445.392 411.832C435.835 411.197 427.813 413.948 421.557 419.989C415.627 425.723 411.31 434.285 408.738 445.483C406.224 456.45 406.205 466.667 406.301 470.553Z" fill="#3FB1B5"/>
<path d="M452.837 362.039C451.089 362.039 449.671 360.617 449.671 358.864C449.671 357.111 451.089 355.689 452.837 355.689C454.586 355.689 456.004 357.111 456.004 358.864C456.004 360.617 454.586 362.039 452.837 362.039Z" fill="white"/>
<path d="M452.837 362.615C454.91 362.615 456.58 360.941 456.58 358.863C456.58 356.785 454.91 355.111 452.837 355.111C450.765 355.111 449.095 356.785 449.095 358.863C449.095 360.941 450.765 362.615 452.837 362.615ZM452.837 356.266C454.258 356.266 455.428 357.439 455.428 358.863C455.428 360.287 454.258 361.461 452.837 361.461C451.417 361.461 450.247 360.287 450.247 358.863C450.247 357.439 451.417 356.266 452.837 356.266Z" fill="#FFCF2D"/>
<path d="M378.206 452.834C375.652 452.834 373.581 450.758 373.581 448.197C373.581 445.637 375.652 443.561 378.206 443.561C380.76 443.561 382.831 445.637 382.831 448.197C382.831 450.758 380.76 452.834 378.206 452.834Z" fill="white"/>
<path d="M378.206 453.411C381.066 453.411 383.407 451.063 383.407 448.197C383.407 445.33 381.066 442.982 378.206 442.982C375.347 442.982 373.006 445.33 373.006 448.197C373.006 451.063 375.347 453.411 378.206 453.411ZM378.206 444.137C380.432 444.137 382.255 445.965 382.255 448.197C382.255 450.428 380.432 452.256 378.206 452.256C375.98 452.256 374.157 450.428 374.157 448.197C374.157 445.965 375.98 444.137 378.206 444.137Z" fill="#FFCF2D"/>
<path d="M385.882 363.384C381.06 363.384 377.151 359.464 377.151 354.629C377.151 349.794 381.06 345.875 385.882 345.875C390.705 345.875 394.614 349.794 394.614 354.629C394.614 359.464 390.705 363.384 385.882 363.384Z" fill="#D0F0E4"/>
<path d="M363.506 553.538L371.24 514.922C371.547 513.383 372.737 512.652 373.754 512.479C374.771 512.306 376.134 512.594 376.94 513.941C379.53 518.27 383.368 521.81 388.032 524.177C392.407 526.409 397.454 527.602 402.597 527.621C407.759 527.64 412.806 526.486 417.22 524.293C421.922 521.945 425.798 518.424 428.427 514.114L428.619 513.787C429.425 512.46 430.807 512.19 431.805 512.363C432.803 512.537 433.992 513.287 434.299 514.807L442.052 553.538L443.185 553.307L435.432 514.576C435.086 512.825 433.781 511.555 432.016 511.228C430.25 510.92 428.581 511.671 427.64 513.191L427.449 513.537C424.935 517.655 421.212 521.022 416.721 523.273C412.48 525.389 407.587 526.505 402.616 526.486C397.646 526.467 392.791 525.312 388.569 523.157C384.098 520.868 380.432 517.481 377.938 513.345C377.016 511.805 375.347 511.036 373.562 511.344C371.797 511.652 370.472 512.941 370.127 514.711L362.393 553.326L363.506 553.538Z" fill="#66B0F0"/>
<path d="M402.194 527.062H403.345V553.595H402.194V527.062Z" fill="#66B0F0"/>
<path d="M202.941 552.846H460.168V554H202.941V552.846Z" fill="#66B0F0"/>
<path d="M246.697 291.538H334.572C336.932 291.538 339.042 290.105 339.918 287.92L363.965 228.386C365.109 225.538 363.017 222.422 359.96 222.422H272.085C269.725 222.422 267.615 223.855 266.739 226.04L242.692 285.574C241.53 288.422 243.621 291.538 246.697 291.538Z" fill="white"/>
<path fill-rule="evenodd" clip-rule="evenodd" d="M363.467 228.187C363.467 228.187 363.467 228.187 363.467 228.188L339.42 287.722C338.625 289.703 336.713 291.003 334.572 291.003H246.697C244.002 291.003 242.171 288.273 243.188 285.779L267.236 226.243L267.237 226.242C268.031 224.261 269.944 222.961 272.085 222.961H359.96C362.635 222.961 364.47 225.69 363.467 228.187ZM364.462 228.589C365.748 225.39 363.4 221.887 359.96 221.887H272.085C269.505 221.887 267.199 223.453 266.241 225.842L242.195 285.373C240.888 288.575 243.241 292.077 246.697 292.077H334.572C337.151 292.077 339.458 290.511 340.415 288.122L364.462 228.589Z" fill="#FE5244"/>
<path d="M250.773 291.971H334.607C336.842 291.971 338.863 290.609 339.703 288.532L362.642 231.738C363.732 229.016 361.748 226.061 358.816 226.061H274.981C272.746 226.061 270.726 227.422 269.885 229.499L246.947 286.293C245.856 289.015 247.859 291.971 250.773 291.971Z" fill="#FE5244"/>
<path d="M302.246 266.143C304.713 266.143 307.038 265.176 308.79 263.421C310.22 261.988 311.007 260.09 311.007 258.084C311.007 256.06 310.22 254.161 308.79 252.746C307.628 251.582 306.072 250.938 304.427 250.938C302.783 250.938 301.227 251.582 300.065 252.746C298.08 254.734 298.08 257.958 300.065 259.946C301.71 261.594 304.374 261.594 306.019 259.946C306.305 259.66 306.305 259.212 306.019 258.925C305.733 258.639 305.286 258.639 305 258.925C303.909 260.018 302.157 260.018 301.066 258.925C299.636 257.493 299.636 255.182 301.066 253.749C301.96 252.854 303.158 252.352 304.427 252.352C305.697 252.352 306.895 252.854 307.789 253.749C308.951 254.914 309.577 256.436 309.577 258.084C309.577 259.714 308.933 261.254 307.789 262.418C306.305 263.905 304.356 264.711 302.264 264.711C300.172 264.711 298.206 263.905 296.739 262.418C296.453 262.131 296.006 262.131 295.72 262.418C295.434 262.705 295.434 263.152 295.72 263.439C297.455 265.176 299.779 266.143 302.246 266.143Z" fill="white"/>
<path d="M215.248 297.845H334.465C335.841 297.845 336.95 296.735 336.95 295.356V294.156C336.95 292.776 335.841 291.666 334.465 291.666H215.248C213.871 291.666 212.762 292.776 212.762 294.156V295.356C212.78 296.735 213.889 297.845 215.248 297.845Z" fill="white"/>
<path fill-rule="evenodd" clip-rule="evenodd" d="M334.464 292.204C335.545 292.204 336.413 293.073 336.413 294.156V295.356C336.413 296.438 335.545 297.308 334.464 297.308H215.247C214.19 297.308 213.314 296.442 213.298 295.352V294.156C213.298 293.073 214.167 292.204 215.247 292.204H334.464ZM337.486 294.156C337.486 292.48 336.137 291.129 334.464 291.129H215.247C213.574 291.129 212.226 292.48 212.226 294.156V295.359L212.226 295.363C212.247 297.029 213.588 298.383 215.247 298.383H334.464C336.137 298.383 337.486 297.032 337.486 295.356V294.156Z" fill="#FE5244"/>
</svg>
